<svg width="141" height="63" viewBox="0 0 141 63" fill="none" xmlns="http://www.w3.org/2000/svg">
<path d="M15.7008 33.8391H7.2971C6.31654 33.8391 5.63133 34.0281 5.23753 34.4101C4.84767 34.7921 4.65077 35.4458 4.65077 36.3869V39.6988H13.3892L13.0544 43.8494H4.6547V53.5251H0V34.544C0 32.7837 0.38592 31.5314 1.15383 30.795C1.92174 30.0586 3.24491 29.6884 5.11939 29.6884H15.6968V33.8391H15.7008Z" fill="white"/>
<path d="M34.7851 53.5211H29.9335L28.5946 49.402H20.5926L19.2891 53.5211H14.4375L22.0693 31.6968C22.4041 30.9368 22.7742 30.413 23.1917 30.1255C23.6051 29.8341 24.1131 29.6884 24.7157 29.6884C25.3182 29.6884 25.8026 29.8223 26.1727 30.0901C26.5429 30.3579 26.8697 30.8934 27.1612 31.6968L34.793 53.5211H34.7851ZM27.5235 45.4876L24.7117 36.0483L21.7661 45.4876H27.5235Z" fill="white"/>
<path d="M48.8179 44.2827H53.134C53.134 47.0944 52.4842 49.3036 51.1768 50.9103C49.8733 52.517 48.0146 53.4306 45.6046 53.6551L45.3368 54.3245C46.4079 54.612 46.9435 55.2342 46.9435 56.1833C46.9435 57.1323 46.6245 57.8806 45.9905 58.4279C45.3565 58.9753 44.3798 59.247 43.0606 59.247C42.7731 59.247 42.2454 59.2037 41.4894 59.1131L42.1943 57.408C42.5959 57.4749 42.9858 57.5065 43.3638 57.5065C44.2814 57.5065 44.7382 57.1599 44.7382 56.4668C44.7382 55.7068 44.0884 55.3287 42.7968 55.3287L43.4347 53.6866C38.0121 53.3046 35.2988 49.7368 35.2988 42.9753V40.9669C35.2988 35.3198 36.8622 31.7835 39.985 30.354C41.2098 29.7751 42.6944 29.4837 44.435 29.4837C46.9789 29.4837 49.0503 30.1807 50.6452 31.5748C52.2401 32.9688 53.0395 34.9851 53.0395 37.6196H48.688C48.4399 36.3043 48.0067 35.308 47.3845 34.6385C46.7584 33.9691 45.7778 33.6343 44.4389 33.6343C42.8755 33.6343 41.7178 34.1266 40.9577 35.1072C40.4222 35.8002 40.1071 36.9816 40.0205 38.6553C39.9732 39.1909 39.9535 39.9154 39.9535 40.8291V42.9044C39.9535 45.472 40.3119 47.2204 41.0247 48.1577C41.7611 49.0949 42.9031 49.5635 44.4586 49.5635C46.0141 49.5635 47.0813 49.1343 47.672 48.2758C48.2627 47.4173 48.6486 46.0823 48.8258 44.2748L48.8179 44.2827Z" fill="white"/>
<path d="M74.416 53.5211H69.5644L68.2254 49.402H60.2234L58.92 53.5211H54.0684L61.7002 31.6968C62.0349 30.9368 62.4051 30.413 62.8225 30.1255C63.236 29.8341 63.744 29.6884 64.3465 29.6884C64.949 29.6884 65.4334 29.8223 65.8036 30.0901C66.1737 30.3579 66.5006 30.8934 66.792 31.6968L74.4238 53.5211H74.416ZM67.1543 45.4876L64.3426 36.0483L61.397 45.4876H67.1543Z" fill="white"/>
<path d="M4.35734 16.3506C4.35734 15.6969 5.04649 15.0786 6.31846 15.0786C7.2242 15.0786 7.80702 15.4055 7.80702 16.1655C7.80702 16.3467 7.80702 16.3821 7.77158 16.6026H10.7841C10.855 16.1655 10.9299 15.8426 10.9299 15.5157C10.9299 13.9209 9.07899 13.086 6.72014 13.086C3.4201 13.086 1.27784 14.7557 1.27784 16.9689C1.27784 20.5957 7.04699 19.5089 7.04699 21.3243C7.04699 22.0489 6.10187 22.5923 4.86928 22.5923C3.7824 22.5923 3.01843 22.1552 3.01843 21.3597C3.01843 21.2495 3.01843 21.1038 3.05387 20.8517H0.0767464C0.0413044 21.2495 0.00585938 21.5409 0.00585938 21.8323C0.00585938 23.9745 2.25446 24.5889 4.50699 24.5889C7.99211 24.5889 10.2761 23.0649 10.2761 20.7414C10.2761 17.0043 4.36128 18.3117 4.36128 16.3506M26.2408 24.5889C29.4345 24.5889 31.4665 22.9546 31.4665 20.962C31.4665 19.8357 30.9585 18.93 29.1824 18.6031C30.8521 18.3865 32.2659 17.2248 32.2659 15.626C32.2659 14.0272 31.1396 13.086 29.147 13.086H23.2321L20.8024 24.5889H26.2447H26.2408ZM42.0597 21.47C42.0597 20.0169 41.7328 19.2568 39.9568 18.93C42.0597 18.7843 43.5837 17.5162 43.5837 15.7717C43.5837 14.2831 42.3117 13.086 40.0631 13.086H34.294L31.7894 24.5889H35.0894L36.07 20.1271H37.594C38.0311 20.1271 38.862 20.1271 38.862 21.3243C38.862 21.8677 38.6809 23.3917 38.6454 24.5889H42.0203C41.9849 23.3563 42.0557 22.3403 42.0557 21.47M14.3323 22.3757L14.8757 19.9066H20.066L20.5386 17.6934H15.3483L15.8563 15.3346H21.4088L21.8814 13.1214H13.0997L10.6306 24.5889H19.5186L19.9912 22.3757H14.3323ZM66.0027 13.1214H57.2209L54.7518 24.5889H63.6399L64.1124 22.3757H58.4142L58.9222 19.9066H64.2188L64.6913 17.6934H59.3947L59.9027 15.3346H65.5262L65.9987 13.1214H66.0027ZM42.0203 24.5889H45.214L46.3757 22.4112H50.5854L50.7666 24.5889H54.0666L52.4717 13.1608H48.518L42.0242 24.5889H42.0203ZM27.6506 15.118C28.45 15.118 28.958 15.4803 28.958 16.2797C28.958 17.0791 28.4145 17.6934 27.2883 17.6934H25.402L25.9454 15.118H27.6506ZM36.5386 18.0557L37.1175 15.2243H38.5312C39.0392 15.2243 40.2718 15.2243 40.2718 16.4215C40.2718 17.402 39.4724 18.0557 38.1689 18.0557H36.5347H36.5386ZM50.0381 15.4803H50.0735L50.4358 20.2335H47.5335L50.0381 15.4803ZM26.6346 19.7609C27.1426 19.7609 28.1586 19.8712 28.1586 21.0289C28.1586 21.8992 27.5049 22.482 26.1974 22.482H24.382L24.9609 19.7609H26.6306H26.6346Z" fill="white"/>
<path d="M108.285 63C90.9147 63 76.7852 48.8705 76.7852 31.5C76.7852 14.1295 90.9186 0 108.285 0C109.545 0 110.569 1.02388 110.569 2.28403C110.569 3.54419 109.545 4.56807 108.285 4.56807C93.435 4.56807 81.3532 16.6498 81.3532 31.5C81.3532 46.3502 93.435 58.4319 108.285 58.4319C123.135 58.4319 135.217 46.3502 135.217 31.5C135.217 30.2398 136.241 29.216 137.501 29.216C138.761 29.216 139.785 30.2398 139.785 31.5C139.785 48.8705 125.656 63 108.285 63Z" fill="white"/>
<path d="M106.266 43.1918H106.242C105.632 43.184 105.049 42.9359 104.627 42.4987L92.5968 30.0941C91.7186 29.1883 91.7422 27.7431 92.648 26.8649C93.5537 25.9867 94.999 26.0104 95.8771 26.9161L106.301 37.6668L136.242 8.08464C137.139 7.19859 138.585 7.20647 139.471 8.10433C140.357 9.00219 140.349 10.4474 139.451 11.3335L107.868 42.5381C107.439 42.9595 106.864 43.1958 106.262 43.1958L106.266 43.1918Z" fill="white"/>
</svg>
