<svg width="16" height="14" viewBox="0 0 16 14" fill="none" xmlns="http://www.w3.org/2000/svg">
<path d="M7.47165 3.13562L7.99881 4.10567L8.526 3.13563C8.74094 2.74014 9.09624 2.21661 9.61321 1.81405L9.24457 1.34065L9.61321 1.81405C10.1421 1.40223 10.7294 1.19961 11.3738 1.19961C13.1744 1.19961 14.5988 2.676 14.5988 4.777C14.5988 5.88016 14.1671 6.8329 13.3216 7.86018C12.4609 8.90594 11.2177 9.97529 9.6512 11.3194L9.65119 11.3194L9.65061 11.3199C9.15162 11.7481 8.58721 12.2324 7.99884 12.7491C7.4109 12.2328 6.84681 11.7487 6.34834 11.321L6.34681 11.3197L6.34679 11.3197C4.78016 9.97543 3.53683 8.90601 2.67607 7.86021C1.83051 6.8329 1.39883 5.88015 1.39883 4.777C1.39883 2.676 2.82329 1.19961 4.62383 1.19961C5.26823 1.19961 5.8556 1.40223 6.38445 1.81405L6.75309 1.34065L6.38445 1.81405C6.90142 2.21662 7.25672 2.74012 7.47165 3.13562Z" stroke="#647283" stroke-width="1.2"/>
</svg>