<svg width="25" height="24" viewBox="0 0 25 24" fill="none" xmlns="http://www.w3.org/2000/svg">
<path fill-rule="evenodd" clip-rule="evenodd" d="M22.44 7.88C22.4206 7.0503 22.2652 6.2294 21.98 5.45C21.7257 4.78313 21.33 4.17928 20.82 3.68C20.3248 3.16743 19.7196 2.77418 19.05 2.53C18.2727 2.23616 17.4508 2.07721 16.62 2.06C15.56 2 15.22 2 12.5 2C9.78 2 9.44 2 8.38 2.06C7.54915 2.07721 6.72734 2.23616 5.95 2.53C5.28168 2.77665 4.67693 3.16956 4.18 3.68C3.66743 4.17518 3.27418 4.78044 3.03 5.45C2.73616 6.22734 2.57721 7.04915 2.56 7.88C2.5 8.94 2.5 9.28 2.5 12C2.5 14.72 2.5 15.06 2.56 16.12C2.57721 16.9508 2.73616 17.7727 3.03 18.55C3.27418 19.2196 3.66743 19.8248 4.18 20.32C4.67693 20.8304 5.28168 21.2234 5.95 21.47C6.72734 21.7638 7.54915 21.9228 8.38 21.94C9.44 22 9.78 22 12.5 22C15.22 22 15.56 22 16.62 21.94C17.4508 21.9228 18.2727 21.7638 19.05 21.47C19.7196 21.2258 20.3248 20.8326 20.82 20.32C21.3322 19.8226 21.7283 19.2182 21.98 18.55C22.2652 17.7706 22.4206 16.9497 22.44 16.12C22.44 15.7126 22.4489 15.4116 22.4598 15.0409V15.0408V15.0408V15.0407C22.4773 14.447 22.5 13.6745 22.5 12C22.5 9.28 22.5 8.94 22.44 7.88ZM17.8401 5.45999C17.3547 5.45999 16.9171 5.75236 16.7314 6.20077C16.5457 6.64918 16.6483 7.16532 16.9915 7.50852C17.3347 7.85171 17.8509 7.95438 18.2993 7.76864C18.7477 7.58291 19.0401 7.14534 19.0401 6.65999C19.0401 5.99725 18.5028 5.45999 17.8401 5.45999ZM20.3 17.8601C20.5177 17.2638 20.6327 16.6349 20.64 16.0001C20.69 15.0001 20.7 14.6301 20.7 12.0001C20.7 9.3701 20.69 9.0001 20.64 8.0001C20.6373 7.35188 20.5222 6.70903 20.3 6.1001C20.1337 5.68283 19.8777 5.30728 19.55 5.0001C19.2223 4.64294 18.8144 4.36875 18.36 4.2001C17.7637 3.98234 17.1347 3.86738 16.5 3.8601C15.5 3.8001 15.13 3.8001 12.5 3.8001C10.8731 3.8001 10.111 3.82306 9.52966 3.84057C9.17117 3.85137 8.8814 3.8601 8.49998 3.8601C7.85197 3.86518 7.20953 3.98014 6.59998 4.2001C6.17926 4.38319 5.80379 4.65627 5.49998 5.0001C5.15624 5.30176 4.88602 5.67801 4.70998 6.1001C4.48293 6.70804 4.36446 7.35115 4.35998 8.0001C4.29998 9.0001 4.29998 9.3701 4.29998 12.0001C4.29998 13.6269 4.32293 14.389 4.34045 14.9704C4.35125 15.3289 4.35998 15.6187 4.35998 16.0001C4.38042 16.652 4.51583 17.2952 4.75998 17.9001C4.91482 18.3353 5.16806 18.7288 5.49998 19.0501C5.81133 19.3729 6.18576 19.6282 6.59998 19.8001C7.22457 20.011 7.88087 20.1124 8.53998 20.1001C9.53998 20.1601 9.90998 20.1601 12.54 20.1601C15.17 20.1601 15.54 20.1501 16.54 20.1001C17.1747 20.0928 17.8037 19.9779 18.4 19.7601C18.8332 19.5965 19.2256 19.3406 19.55 19.0101C19.8839 18.6885 20.1403 18.2953 20.3 17.8601ZM12.5 6.86997C9.66813 6.87549 7.37637 9.17471 7.38005 12.0066C7.38372 14.8385 9.68145 17.1318 12.5134 17.13C15.3453 17.1281 17.64 14.8319 17.64 12C17.6427 10.6369 17.1017 9.32895 16.1369 8.36602C15.1721 7.40309 13.8631 6.86464 12.5 6.86997ZM9.17006 12.0001C9.17006 13.8392 10.6609 15.3301 12.5001 15.3301C13.3832 15.3301 14.2302 14.9792 14.8547 14.3547C15.4792 13.7302 15.8301 12.8832 15.8301 12.0001C15.8301 10.1609 14.3392 8.67006 12.5001 8.67006C10.6609 8.67006 9.17006 10.1609 9.17006 12.0001Z" fill="white"/>
</svg>
