<svg width="17" height="16" viewBox="0 0 17 16" fill="none" xmlns="http://www.w3.org/2000/svg">
<path fill-rule="evenodd" clip-rule="evenodd" d="M11.8844 4.02102C12.4421 5.63192 11.9176 7.41929 10.5779 8.47338C12.8696 9.38286 14.4722 11.4829 14.7445 13.9334C14.7836 14.2975 14.5216 14.6249 14.1579 14.6667H14.0845C13.7432 14.6688 13.4554 14.4127 13.4179 14.0734C13.1148 11.3752 10.833 9.33539 8.11788 9.33539C5.40274 9.33539 3.12097 11.3752 2.81788 14.0734C2.77738 14.4416 2.44607 14.7072 2.07788 14.6667C1.70969 14.6262 1.44405 14.2949 1.48455 13.9267C1.75563 11.4834 3.34928 9.38761 5.63122 8.47338C4.29145 7.41929 3.76695 5.63192 4.32469 4.02102C4.88243 2.41012 6.39983 1.32971 8.10455 1.32971C9.80927 1.32971 11.3267 2.41012 11.8844 4.02102ZM5.43788 5.33338C5.43788 6.80613 6.63179 8.00004 8.10455 8.00004C8.81179 8.00004 9.49007 7.71909 9.99017 7.21899C10.4903 6.7189 10.7712 6.04062 10.7712 5.33338C10.7712 3.86062 9.57731 2.66671 8.10455 2.66671C6.63179 2.66671 5.43788 3.86062 5.43788 5.33338Z" fill="#005EB8"/>
</svg>
