<svg width="18" height="14" viewBox="0 0 18 14" fill="none" xmlns="http://www.w3.org/2000/svg">
<path fill-rule="evenodd" clip-rule="evenodd" d="M14.8327 0.333008H3.16602C1.7853 0.333008 0.666016 1.4523 0.666016 2.83301V11.1663C0.666016 12.5471 1.7853 13.6663 3.16602 13.6663H14.8327C16.2134 13.6663 17.3327 12.5471 17.3327 11.1663V2.83301C17.3327 1.4523 16.2134 0.333008 14.8327 0.333008ZM3.16602 1.99967H14.8327C15.2929 1.99967 15.666 2.37277 15.666 2.83301L8.99935 6.89967L2.33268 2.83301C2.33268 2.37277 2.70578 1.99967 3.16602 1.99967ZM14.8327 11.9997C15.2929 11.9997 15.666 11.6266 15.666 11.1663V4.73301L9.39935 8.54134C9.14151 8.6902 8.82385 8.6902 8.56602 8.54134L2.33268 4.73301V11.1663C2.33268 11.6266 2.70578 11.9997 3.16602 11.9997H14.8327Z" fill="white"/>
</svg>