<svg width="18" height="18" viewBox="0 0 18 18" fill="none" xmlns="http://www.w3.org/2000/svg">
<path fill-rule="evenodd" clip-rule="evenodd" d="M10.9659 1.75857C12.4252 0.30834 14.7816 0.30834 16.2409 1.75857C17.6819 3.22703 17.667 5.58345 16.2075 7.03358L12.4159 10.8252C11.0345 12.2087 8.81854 12.2887 7.34088 11.0086C7.27374 10.9539 7.20975 10.8955 7.14922 10.8336C6.82015 10.5114 6.81455 9.98348 7.13672 9.65441C7.45888 9.32534 7.98681 9.31974 8.31588 9.64191L8.41588 9.72524C9.2271 10.457 10.4696 10.424 11.2409 9.65024L15.0242 5.85857C15.8296 5.05316 15.8296 3.74732 15.0242 2.94191C14.2188 2.13649 12.913 2.13649 12.1075 2.94191L10.6659 4.37524C10.3275 4.65181 9.83293 4.61998 9.53279 4.30231C9.23265 3.98465 9.22891 3.48907 9.52422 3.16691L10.9659 1.75857ZM5.85755 15.0586L7.33255 13.6252C7.67094 13.3487 8.1655 13.3805 8.46564 13.6982C8.76578 14.0158 8.76953 14.5114 8.47422 14.8336L7.03255 16.2419C5.55945 17.5953 3.28141 17.5471 1.86691 16.1325C0.452409 14.718 0.404181 12.44 1.75755 10.9669L5.59088 7.17524C6.97055 5.78777 9.18969 5.7076 10.6659 6.99191C10.7188 7.04769 10.7688 7.1061 10.8159 7.16691C11.145 7.48907 11.1505 8.01701 10.8284 8.34608C10.5062 8.67514 9.97829 8.68074 9.64922 8.35857L9.54922 8.27524C8.738 7.5435 7.49547 7.57649 6.72422 8.35024L2.94088 12.1419C2.13547 12.9473 2.13547 14.2532 2.94088 15.0586C3.7463 15.864 5.05213 15.864 5.85755 15.0586Z" fill="white"/>
</svg>