<svg width="24" height="24" viewBox="0 0 24 24" fill="none" xmlns="http://www.w3.org/2000/svg">
<path fill-rule="evenodd" clip-rule="evenodd" d="M17.8322 14.1102C19.0337 14.5742 20.265 13.8314 20.5425 12.4733C20.5569 12.4475 20.564 12.419 20.5711 12.3905C20.5783 12.3613 20.5856 12.3321 20.6007 12.3059L20.6023 12.2978C20.6201 12.3064 20.6273 12.3339 20.6344 12.3614L20.6369 12.371C20.6367 12.5088 20.6371 12.6467 20.6375 12.7846C20.6386 13.1488 20.6396 13.5136 20.6298 13.8773C20.6249 14.0689 20.6696 14.142 20.8761 14.1327C21.2466 14.1157 21.6184 14.1164 21.9889 14.1327C22.1912 14.142 22.2416 14.0774 22.2387 13.8809L22.2382 13.8485C22.2284 13.2249 22.2186 12.6001 22.2472 11.9779C22.287 11.0996 22.8051 10.6738 23.6794 10.7576C23.7149 10.7611 23.7497 10.7647 23.7845 10.7718C23.9023 10.7966 23.9399 10.7427 23.9449 10.6313C23.9543 10.4079 23.9669 10.1849 23.9796 9.96199C23.9859 9.85103 23.9922 9.73894 23.9981 9.62801C24.003 9.54784 24.0066 9.48185 23.8952 9.45063C23.3047 9.28531 22.6333 9.53364 22.2891 10.0559C22.2469 10.1198 22.2062 10.1845 22.1657 10.2491L22.128 10.3091C22.0826 10.092 22.0819 9.89195 22.0826 9.69258L22.0826 9.68971C22.0833 9.60834 22.0841 9.5266 21.9669 9.53081C21.8055 9.53706 21.5947 9.53268 21.389 9.52841C21.0351 9.52105 20.6961 9.514 20.649 9.56203C20.6315 9.57989 20.6124 9.68232 20.6147 9.70837C20.617 9.73443 20.6237 10.4388 20.6227 10.7384C20.6226 10.7888 20.6215 10.8423 20.6204 10.8969C20.6183 10.9993 20.6161 11.1054 20.6199 11.2015C20.6046 11.186 20.5889 11.1709 20.5732 11.1558L20.5489 11.1324C20.3821 10.4392 20.0493 9.84954 19.3602 9.57709C18.5128 9.2422 17.7385 9.42454 17.0444 10.1014V9.79065C17.0444 9.6008 17.044 9.41094 17.0435 9.22109C17.0424 8.72271 17.0413 8.22433 17.0479 7.72595C17.0501 7.55141 16.9961 7.49536 16.8223 7.50033C16.4326 7.51097 16.043 7.51239 15.6541 7.50033C15.4731 7.49465 15.4305 7.56276 15.4334 7.73092C15.44 8.13323 15.4389 8.53591 15.4378 8.93843C15.4373 9.0917 15.4369 9.2451 15.4369 9.39829C15.4369 9.75782 15.4372 10.1173 15.4376 10.4768C15.4386 11.5998 15.4397 12.7228 15.4305 13.8456C15.4284 14.0854 15.4987 14.1528 15.7279 14.1336C15.8933 14.1203 16.0597 14.1234 16.2262 14.1266C16.299 14.128 16.3719 14.1294 16.4447 14.1294C16.9088 14.1294 16.9088 14.1294 16.913 13.6828L16.9131 13.6767C16.9133 13.6557 16.9118 13.6343 16.9103 13.6126C16.9054 13.5395 16.9001 13.4617 16.9543 13.3759C17.1601 13.7384 17.4617 13.9669 17.8322 14.1102ZM18.874 12.3877C18.9499 12.2054 18.9677 12.0138 18.9854 11.7726C18.9819 11.7472 18.9792 11.7179 18.9763 11.6861C18.9685 11.6017 18.9591 11.4993 18.9286 11.4029C18.8144 11.029 18.6057 10.736 18.1856 10.6671C17.7661 10.599 17.4276 10.7438 17.2225 11.112C16.9699 11.5654 16.9599 12.0436 17.2041 12.5013C17.3865 12.8425 17.6824 13.0334 18.0919 13.0029C18.4929 12.9731 18.7285 12.7389 18.874 12.3877Z" fill="white"/>
<path fill-rule="evenodd" clip-rule="evenodd" d="M5.12811 13.9237C5.11753 14.057 5.10695 14.1903 5.08591 14.3218C4.93262 15.2718 4.41169 15.8224 3.46637 16.0034C2.56717 16.1758 1.67366 16.1403 0.789367 15.8849C0.626135 15.8373 0.555165 15.7763 0.577166 15.5954C0.609812 15.3243 0.624006 15.0505 0.628264 14.7773C0.631103 14.5723 0.699235 14.5673 0.865305 14.646C1.36281 14.8823 1.89225 14.9646 2.43943 14.9171C3.30385 14.8419 3.73748 14.2941 3.62676 13.4243C3.58768 13.4057 3.56653 13.431 3.5466 13.455L3.54018 13.4626C2.93622 14.1551 2.17755 14.2814 1.34719 14.0068C0.510454 13.7293 0.147085 13.061 0.0356618 12.2401C-0.0409862 11.6753 -0.0012428 11.1148 0.225153 10.5791C0.798593 9.22107 2.57427 8.96351 3.50824 10.1037C3.54403 10.1476 3.58029 10.191 3.62923 10.2495L3.66509 10.2924C3.70718 10.1257 3.70085 9.97461 3.69474 9.82901C3.69292 9.7856 3.69112 9.74268 3.69064 9.69999C3.68922 9.55738 3.72115 9.49565 3.88013 9.49991C4.17477 9.50796 4.46977 9.50816 4.76488 9.50835C4.88559 9.50843 5.00634 9.50851 5.12708 9.50913C5.15192 9.5368 5.16114 9.56873 5.16114 9.60562C5.15459 9.99886 5.16763 10.3923 5.18066 10.7853C5.18769 10.9974 5.19472 11.2094 5.19867 11.4212C5.20818 11.3802 5.21909 11.3393 5.23139 11.2984C5.46062 10.1809 6.32149 9.59624 7.3825 9.45647C8.13407 9.35784 8.85939 9.45718 9.52225 9.86302C9.81536 10.0425 10.0339 10.2909 10.2312 10.564C10.2561 10.5791 10.28 10.5953 10.3021 10.6135C10.3005 10.594 10.2993 10.5744 10.2981 10.5549C10.297 10.5366 10.2959 10.5181 10.2944 10.4999C10.267 10.4225 10.2404 10.3447 10.2137 10.267C10.1519 10.0868 10.0899 9.9062 10.0191 9.72933C9.95021 9.55833 9.99776 9.51647 10.1716 9.52073C10.5783 9.52995 10.9857 9.53421 11.3916 9.5186C11.5761 9.5115 11.6556 9.57181 11.7046 9.74706C11.7771 10.0088 11.845 10.272 11.9129 10.5353C12.0762 11.1686 12.2396 11.8019 12.4675 12.4141C12.4985 12.4972 12.5229 12.5562 12.5458 12.6113C12.5664 12.6611 12.5858 12.7078 12.6073 12.7661C12.6804 12.5148 12.7535 12.2643 12.8265 12.0142C13.0459 11.2628 13.2641 10.5151 13.4739 9.76622C13.5257 9.58175 13.6002 9.50937 13.7982 9.5186C14.1602 9.53563 14.5235 9.53137 14.8855 9.52002C15.0842 9.51363 15.0998 9.56756 15.0331 9.74564C15.0331 9.74564 13.5747 13.9914 13.4022 14.0851C13.2716 14.1558 13.0823 14.1458 12.9009 14.1361C12.8329 14.1325 12.7661 14.129 12.7039 14.1298C12.5212 14.1321 12.3455 14.1313 12.1699 14.1306C12.082 14.1302 11.9942 14.1298 11.9054 14.1298C11.7046 14.1298 11.6152 14.0815 11.5463 13.885C11.3247 13.2564 11.091 12.6319 10.8574 12.0075C10.7701 11.7743 10.6827 11.5407 10.596 11.3073C10.575 11.2958 10.5605 11.28 10.5493 11.2621C10.549 11.2633 10.5486 11.2646 10.5483 11.2658C10.5264 11.3498 10.5044 11.4342 10.5485 11.5212C10.6088 12.5003 10.3242 13.3184 9.43496 13.8413C8.96655 14.1166 8.44776 14.2188 7.9091 14.2259C7.40663 14.2329 6.91977 14.1492 6.46627 13.93C5.80483 13.61 5.3861 13.0913 5.23281 12.3683C5.21815 12.3211 5.20548 12.2739 5.19476 12.2267C5.19324 12.3117 5.19196 12.3967 5.19067 12.4818C5.1843 12.9022 5.17792 13.3237 5.1434 13.7435C5.13767 13.8035 5.13289 13.8637 5.12811 13.9237ZM1.66727 11.767C1.66869 10.9092 2.21516 10.4488 2.94119 10.6943C3.40817 10.8525 3.68779 11.4059 3.57637 11.9771C3.52172 12.2595 3.39965 12.5099 3.16687 12.6958C2.67576 13.086 2.00367 12.9143 1.76379 12.3361C1.68785 12.153 1.66798 11.9622 1.66727 11.767ZM6.83528 11.8292C6.83102 11.6043 6.86509 11.4049 6.93251 11.2119C7.07445 10.8047 7.35833 10.5691 7.79196 10.5386C8.20927 10.5095 8.54922 10.6677 8.72948 11.0502C8.98001 11.5809 8.9871 12.1272 8.69896 12.6516C8.49173 13.0283 8.14469 13.1496 7.73164 13.1056C7.33988 13.0638 7.08652 12.8389 6.946 12.4834C6.86154 12.2684 6.82535 12.0414 6.83528 11.8292Z" fill="white"/>
<path d="M15.0104 12.8566C14.6555 12.5729 14.1588 12.6438 13.8841 13.0915C13.591 13.8471 14.1204 14.1678 14.4781 14.2047C14.7989 14.2374 15.0407 14.0983 15.1857 13.8471C15.3652 13.5361 15.3112 13.0972 15.0104 12.8566Z" fill="white"/>
</svg>
