<svg width="1920" height="1024" viewBox="0 0 1920 1024" fill="none" xmlns="http://www.w3.org/2000/svg">
<g clip-path="url(#clip0_1_272)">
<rect width="1920" height="1024" fill="white"/>
<path opacity="0.7" d="M373.483 644.237L388.534 597.353H568.563L558.42 644.237H373.483Z" stroke="#007BC3" stroke-width="0.705036"/>
<path opacity="0.7" d="M1160.48 320.237L1175.53 273.353H1355.56L1345.42 320.237H1160.48Z" stroke="#007BC3" stroke-width="0.705036"/>
<path opacity="0.6" d="M520.483 733.237L535.534 686.353H715.563L705.42 733.237H520.483Z" stroke="#007BC3" stroke-width="0.705036"/>
<path opacity="0.6" d="M452.336 746.236L460.284 721.764H555.696L550.34 746.236H452.336Z" stroke="#007BC3" stroke-width="0.488825"/>
<path opacity="0.6" d="M1317.34 285.716L1325.28 261.244H1420.7L1415.34 285.716H1317.34Z" stroke="#007BC3" stroke-width="0.488825"/>
<path opacity="0.6" d="M1307.48 409.237L1322.53 362.353H1502.56L1492.42 409.237H1307.48Z" stroke="#007BC3" stroke-width="0.705036"/>
<path opacity="0.6" d="M1519.48 893.647L1554.56 784.353H1971.56L1947.92 893.647H1519.48Z" stroke="#007BC3" stroke-width="0.705036"/>
<path opacity="0.6" d="M-79.5166 272.647L-44.4353 163.353H372.563L348.92 272.647H-79.5166Z" stroke="#007BC3" stroke-width="0.705036"/>
</g>
<defs>
<clipPath id="clip0_1_272">
<rect width="1920" height="1024" fill="white"/>
</clipPath>
</defs>
</svg>
