<svg width="231" height="171" viewBox="0 0 231 171" fill="none" xmlns="http://www.w3.org/2000/svg">
<g clip-path="url(#clip0_26495_8963)">
<rect width="231" height="171" rx="8" fill="#FFB71B" style="fill:#FFB71B;fill:color(display-p3 1.0000 0.7176 0.1059);fill-opacity:1;"/>
<rect x="4.99609" y="4" width="221" height="123" rx="2" fill="#FFB71B" style="fill:#FFB71B;fill:color(display-p3 1.0000 0.7176 0.1059);fill-opacity:1;"/>
<path d="M76.5348 44.0495C76.5348 45.5384 76.0228 46.7072 75.0013 47.5558C73.9773 48.4043 72.673 48.8286 71.0834 48.8286C69.8254 48.8286 68.6113 48.459 67.4362 47.7223C66.8559 47.3397 66.3805 46.7957 66.0075 46.0955C65.6345 45.3953 65.4492 44.5935 65.4492 43.6955L68.0603 43.5627C68.0603 44.3593 68.3772 44.9788 69.0136 45.4213C69.6499 45.8638 70.352 46.0851 71.1273 46.0851C72.8534 46.0851 73.7165 45.4369 73.7165 44.138C73.7165 43.076 73.1313 42.4487 71.9562 42.256L69.5524 41.9905C68.3504 41.8005 67.3972 41.3424 66.6926 40.6187C65.988 39.8951 65.6369 38.8565 65.6369 37.4977C65.6369 36.139 66.1416 35.0197 67.1485 34.1347C68.1554 33.2496 69.4305 32.8071 70.9713 32.8071C72.5121 32.8071 73.7506 33.2236 74.6917 34.0566C75.6327 34.8895 76.1008 35.962 76.1008 37.2765L73.5312 37.4092C73.2971 36.126 72.4877 35.483 71.1078 35.483C70.2643 35.483 69.606 35.6756 69.1282 36.0583C68.6503 36.4409 68.4138 36.8964 68.4138 37.4197C68.4138 37.9429 68.5869 38.3567 68.9331 38.6587C69.2769 38.9606 69.706 39.1507 70.2179 39.2235L72.5804 39.489C75.2183 39.8717 76.5372 41.3918 76.5372 44.0469L76.5348 44.0495Z" fill="white" style="fill:white;fill-opacity:1;"/>
<path d="M88.5538 48.6958H83.3316C81.6738 48.6958 80.5108 48.3912 79.8404 47.7769C79.1699 47.1652 78.8359 46.085 78.8359 44.5362V32.9424H88.5562V35.686H81.7176V39.3822H86.5034L86.2962 42.1258H81.7176V44.3175C81.7176 44.937 81.8469 45.3639 82.1102 45.6008C82.371 45.8377 82.8489 45.9548 83.5388 45.9548H88.5538V48.6984V48.6958Z" fill="white" style="fill:white;fill-opacity:1;"/>
<path d="M98.915 32.9424V43.0759C98.915 45.1843 98.5078 46.6706 97.6935 47.5348C96.8793 48.399 95.6968 48.8311 94.1487 48.8311C93.154 48.8311 92.3202 48.6906 91.6522 48.4094C90.9817 48.1309 90.3649 47.6884 89.7969 47.0819L91.4133 45.2025C91.6498 45.455 92.0033 45.6633 92.4811 45.8325C92.9565 46.0017 93.5026 46.0876 94.1194 46.0876C94.7363 46.0876 95.2068 45.9288 95.5384 45.6112C95.8699 45.2936 96.0357 44.7002 96.0357 43.8308V32.945H98.9174L98.915 32.9424Z" fill="white" style="fill:white;fill-opacity:1;"/>
<path d="M113.15 48.6958H110.147L109.318 45.973H104.364L103.557 48.6958H100.551L105.276 34.2699C105.483 33.7675 105.714 33.4213 105.97 33.2313C106.226 33.0387 106.538 32.9424 106.914 32.9424C107.289 32.9424 107.587 33.0309 107.816 33.2079C108.045 33.3849 108.248 33.7389 108.428 34.2699L113.153 48.6958H113.15ZM108.652 43.3856L106.912 37.1462L105.088 43.3856H108.652Z" fill="white" style="fill:white;fill-opacity:1;"/>
<path d="M68.1432 24.1262C68.1432 23.6941 68.5699 23.2854 69.3573 23.2854C69.9181 23.2854 70.2789 23.5014 70.2789 24.0038C70.2789 24.1236 70.2789 24.147 70.2569 24.2927H72.122C72.1659 24.0038 72.2122 23.7904 72.2122 23.5743C72.2122 22.5201 71.0664 21.9683 69.606 21.9683C67.563 21.9683 66.2367 23.0719 66.2367 24.5348C66.2367 26.9322 69.8084 26.2138 69.8084 27.4138C69.8084 27.8927 69.2232 28.2519 68.4601 28.2519C67.7873 28.2519 67.3143 27.963 67.3143 27.4372C67.3143 27.3643 67.3143 27.268 67.3362 27.1014H65.4931C65.4712 27.3643 65.4492 27.5569 65.4492 27.7495C65.4492 29.1656 66.8413 29.5716 68.2358 29.5716C70.3935 29.5716 71.8075 28.5643 71.8075 27.0285C71.8075 24.5583 68.1456 25.4225 68.1456 24.1262M81.6911 29.5716C83.6683 29.5716 84.9264 28.4914 84.9264 27.1743C84.9264 26.4298 84.6119 25.8311 83.5123 25.6151C84.546 25.4719 85.4213 24.704 85.4213 23.6472C85.4213 22.5904 84.724 21.9683 83.4904 21.9683H79.8285L78.3243 29.5716H81.6936H81.6911ZM91.4846 27.5101C91.4846 26.5496 91.2822 26.0472 90.1827 25.8311C91.4846 25.7348 92.4281 24.8966 92.4281 23.7435C92.4281 22.7596 91.6406 21.9683 90.2485 21.9683H86.6768L85.1263 29.5716H87.1693L87.7764 26.6224H88.7199C88.9905 26.6224 89.5049 26.6224 89.5049 27.4138C89.5049 27.773 89.3928 28.7803 89.3708 29.5716H91.4602C91.4382 28.7569 91.4821 28.0853 91.4821 27.5101M74.3186 28.1088L74.6551 26.4767H77.8684L78.1609 25.0138H74.9476L75.2621 23.4546H78.6997L78.9923 21.9917H73.5556L72.0269 29.5716H77.5295L77.822 28.1088H74.3186V28.1088ZM106.308 21.9917H100.871L99.3422 29.5716H104.845L105.137 28.1088H101.61L101.924 26.4767H105.203L105.496 25.0138H102.217L102.531 23.4546H106.013L106.305 21.9917H106.308ZM91.4602 29.5716H93.4374L94.1566 28.1322H96.7628L96.875 29.5716H98.918L97.9306 22.0177H95.4829L91.4626 29.5716H91.4602ZM82.5639 23.3114C83.0589 23.3114 83.3734 23.5509 83.3734 24.0793C83.3734 24.6077 83.0369 25.0138 82.3396 25.0138H81.1718L81.5083 23.3114H82.5639V23.3114ZM88.0665 25.2533L88.4249 23.3817H89.3001C89.6146 23.3817 90.3777 23.3817 90.3777 24.173C90.3777 24.8212 89.8828 25.2533 89.0758 25.2533H88.0641H88.0665ZM96.4239 23.5509H96.4459L96.6702 26.6927H94.8734L96.4239 23.5509ZM81.9349 26.3804C82.2494 26.3804 82.8784 26.4532 82.8784 27.2185C82.8784 27.7938 82.4737 28.179 81.6643 28.179H80.5404L80.8988 26.3804H81.9325H81.9349Z" fill="white" style="fill:white;fill-opacity:1;"/>
<path d="M131.535 42.5373C131.535 42.5373 131.531 42.5581 131.528 42.5685C131.606 42.5815 131.687 42.5841 131.765 42.6023C131.925 42.1208 132.103 41.647 132.301 41.1863C131.894 41.0744 131.474 40.9989 131.04 40.9833C129.899 40.9442 128.715 40.9338 127.508 40.9416C128.383 40.9468 129.263 40.9546 130.16 40.9833C130.941 41.0093 131.555 41.7043 131.531 42.5373H131.535Z" fill="white" style="fill:white;fill-opacity:1;"/>
<path d="M126.912 43.9533L126.875 43.9689C127.09 43.9689 127.307 43.9585 127.519 43.9585C127.316 43.9585 127.111 43.9507 126.912 43.9507V43.9533Z" fill="white" style="fill:white;fill-opacity:1;"/>
<path d="M131.524 42.5684C131.485 43.3597 130.893 43.9636 130.145 43.9896C130.41 43.9974 130.686 43.9948 130.947 44.0026C131.083 44.0078 131.212 44.0365 131.344 44.0599C131.461 43.5653 131.602 43.0812 131.761 42.6022C131.683 42.584 131.602 42.5814 131.524 42.5684V42.5684Z" fill="white" style="fill:white;fill-opacity:1;"/>
<path d="M127.522 43.961C127.727 43.961 127.936 43.9688 128.141 43.9714L128.105 43.9558C127.912 43.9558 127.715 43.961 127.52 43.961H127.522Z" fill="white" style="fill:white;fill-opacity:1;"/>
<path d="M123.491 42.5685C123.491 42.5685 123.484 42.5477 123.484 42.5373C123.459 41.7043 124.074 41.0067 124.854 40.9833C125.751 40.9546 126.634 40.9468 127.507 40.9416C126.302 40.9364 125.115 40.9442 123.974 40.9833C120.851 41.0926 118.308 43.8362 118.189 47.2279C118.159 48.0608 118.766 48.7637 119.549 48.7949C119.566 48.7949 119.585 48.7949 119.603 48.7949C120.358 48.7949 120.985 48.1572 121.014 47.3424C121.024 47.0821 121.065 46.8322 121.124 46.5901L119.6 47.2851C119.685 44.9034 121.329 42.9251 123.486 42.5685H123.491Z" fill="white" style="fill:white;fill-opacity:1;"/>
<path d="M130.142 43.9896C129.469 43.974 128.796 43.9558 128.102 43.9558L128.138 43.9714C128.782 43.9792 129.418 43.9818 130.074 44.0027C130.098 44.0027 130.118 43.9896 130.142 43.9896V43.9896Z" fill="white" style="fill:white;fill-opacity:1;"/>
<path d="M128.102 43.9558L127.505 43.6851L126.91 43.9558C127.11 43.9558 127.315 43.961 127.517 43.9636C127.712 43.9636 127.91 43.9584 128.102 43.9584V43.9558Z" fill="white" style="fill:white;fill-opacity:1;"/>
<path d="M123.484 42.537C123.484 42.537 123.489 42.5579 123.492 42.5683C123.667 42.5397 123.84 42.5006 124.023 42.4928C125.184 42.4512 126.347 42.4433 127.51 42.4485C128.672 42.4433 129.835 42.4512 130.996 42.4928C131.179 42.498 131.352 42.5397 131.527 42.5683C131.527 42.5579 131.535 42.5475 131.535 42.537C131.559 41.7041 130.945 41.0065 130.164 40.9831C129.267 40.9544 128.387 40.9466 127.512 40.9414C126.637 40.9466 125.757 40.9544 124.859 40.9831C124.079 41.0091 123.465 41.7041 123.489 42.537H123.484Z" fill="white" style="fill:white;fill-opacity:1;"/>
<path d="M131.53 42.5684C131.354 42.5398 131.181 42.5008 130.998 42.4929C129.838 42.4513 128.675 42.4435 127.512 42.4487C128.382 42.4539 129.252 42.4643 130.123 42.4929L127.512 43.6825L128.109 43.9532C128.804 43.9532 129.477 43.9715 130.15 43.9871C130.898 43.961 131.493 43.3597 131.53 42.5658V42.5684Z" fill="white" style="fill:white;fill-opacity:1;"/>
<path d="M124.066 44.0026C124.324 43.9948 124.599 43.9948 124.86 43.9896C124.109 43.9818 123.524 43.3597 123.488 42.5684C121.33 42.925 119.687 44.9059 119.602 47.285L121.125 46.59C121.476 45.1375 122.656 44.0495 124.068 44L124.066 44.0026Z" fill="white" style="fill:white;fill-opacity:1;"/>
<path d="M127.506 42.4487C126.343 42.4435 125.18 42.4513 124.02 42.4929C123.837 42.4981 123.664 42.5398 123.488 42.5684C123.525 43.3571 124.11 43.9793 124.861 43.9897C125.536 43.9715 126.212 43.9558 126.911 43.9558L127.506 43.6851L124.895 42.4955C125.765 42.4669 126.636 42.4565 127.506 42.4513V42.4487Z" fill="white" style="fill:white;fill-opacity:1;"/>
<path d="M127.51 42.4487C126.639 42.4539 125.769 42.4643 124.898 42.493L127.51 43.6826L130.121 42.493C129.25 42.4643 128.38 42.4539 127.51 42.4487Z" fill="white" style="fill:white;fill-opacity:1;"/>
<path d="M127.946 38.6638H127.959C130.604 38.6586 132.749 36.3498 132.744 33.5177C132.742 32.1433 132.237 30.8496 131.323 29.8813C130.414 28.9156 129.236 28.3768 127.932 28.395C125.289 28.4054 123.144 30.7169 123.148 33.5437C123.151 34.9155 123.653 36.204 124.56 37.1697C125.465 38.1328 126.669 38.6638 127.949 38.6638H127.946ZM127.937 29.9047C129.804 29.8969 131.325 31.5186 131.33 33.5229C131.335 35.5272 129.826 37.1515 127.956 37.1567C126.084 37.1619 124.567 35.548 124.562 33.5437C124.558 31.5394 126.064 29.9151 127.937 29.9073V29.9047Z" fill="white" style="fill:white;fill-opacity:1;"/>
<path d="M127.956 37.1541C129.829 37.1489 131.335 35.5272 131.33 33.5203C131.326 31.5186 129.804 29.8943 127.937 29.9021C126.064 29.9099 124.558 31.5342 124.563 33.5385C124.567 35.5428 126.081 37.1567 127.956 37.1515V37.1541ZM127.944 31.4145C128.466 31.4483 128.958 31.6279 129.331 32.0236C129.709 32.4244 129.916 32.9581 129.919 33.5255C129.921 34.6917 129.041 35.6418 127.956 35.6444H127.951C127.425 35.6444 126.932 35.4283 126.562 35.0326C126.189 34.6344 125.984 34.106 125.981 33.5385C125.979 32.3724 126.862 31.4197 127.946 31.4171L127.944 31.4145Z" fill="white" style="fill:white;fill-opacity:1;"/>
<path d="M164.407 45.4682C163.437 38.8644 158.551 33.2757 153.514 33.0128C151.186 32.8931 149.999 32.8645 147.748 32.8827C145.484 32.8645 144.291 32.8905 141.961 33.0128C138.067 33.2159 134.271 36.6076 132.296 41.1863C132.757 41.3138 133.189 41.509 133.601 41.7459C135.41 37.5785 138.825 34.6892 142.029 34.5226C144.306 34.4028 145.457 34.3768 147.736 34.395C150.016 34.3768 151.166 34.4054 153.444 34.5226C157.586 34.7386 162.096 39.5021 163.008 45.7025C163.222 47.1654 162.152 48.4903 160.765 48.4903H136.214C135.997 48.6569 135.749 48.7818 135.461 48.7922C135.444 48.7922 135.424 48.7922 135.407 48.7922C135.09 48.7922 134.81 48.6621 134.574 48.4721C133.328 48.394 132.384 47.2539 132.455 45.9341L131.094 45.3146C131.087 45.3641 131.075 45.4135 131.068 45.4656C130.902 46.5979 131.207 47.7458 131.906 48.6204C132.608 49.4977 133.63 50 134.708 50H160.765C161.842 50 162.864 49.4977 163.566 48.6204C164.266 47.7484 164.571 46.5979 164.405 45.4656L164.407 45.4682Z" fill="white" style="fill:white;fill-opacity:1;"/>
<path d="M132.468 45.7025C132.521 45.3459 132.587 44.9945 132.663 44.6457C132.278 44.3437 131.829 44.1459 131.344 44.0574C131.246 44.4713 131.163 44.8929 131.098 45.3172L132.458 45.9367C132.463 45.8587 132.458 45.7806 132.468 45.6999V45.7025Z" fill="white" style="fill:white;fill-opacity:1;"/>
<path d="M134.581 48.4771C134.817 48.6671 135.097 48.7972 135.414 48.7972C135.431 48.7972 135.451 48.7972 135.468 48.7972C135.756 48.7868 136.004 48.6619 136.221 48.4953H134.712C134.666 48.4953 134.624 48.4823 134.578 48.4797L134.581 48.4771Z" fill="white" style="fill:white;fill-opacity:1;"/>
<path d="M133.075 43.1489C133.231 42.6674 133.409 42.1989 133.606 41.7459C133.194 41.5091 132.763 41.3138 132.302 41.1863C132.105 41.647 131.924 42.1182 131.766 42.6023C132.236 42.7064 132.673 42.8991 133.077 43.1489H133.075Z" fill="white" style="fill:white;fill-opacity:1;"/>
<path d="M131.765 42.6023C131.606 43.0786 131.465 43.5654 131.348 44.06C131.833 44.1459 132.281 44.3463 132.667 44.6483C132.779 44.1355 132.918 43.6383 133.076 43.1515C132.671 42.9016 132.235 42.709 131.765 42.6049V42.6023Z" fill="white" style="fill:white;fill-opacity:1;"/>
<path d="M133.998 47.3421C133.988 47.0818 133.946 46.832 133.888 46.5899L132.457 45.9365C132.386 47.2536 133.33 48.3938 134.575 48.4745C134.246 48.2115 134.012 47.8159 133.995 47.3421H133.998Z" fill="white" style="fill:white;fill-opacity:1;"/>
<path d="M142.104 36.0296C143.965 35.9333 145.045 35.8968 146.588 35.8968C146.946 35.8968 147.329 35.8968 147.753 35.902C149.984 35.8838 151.088 35.9073 153.38 36.027C156.681 36.1988 160.777 40.2204 161.616 45.934C161.667 46.288 161.516 46.5405 161.421 46.6577C161.323 46.7774 161.111 46.9804 160.77 46.9804H136.794C136.799 47.0637 136.821 47.1418 136.826 47.2277C136.846 47.7535 136.592 48.2064 136.219 48.4902H160.77C162.157 48.4902 163.227 47.1652 163.013 45.7024C162.101 39.502 157.59 34.7385 153.448 34.5225C151.171 34.4027 150.023 34.3767 147.741 34.3949C145.461 34.3767 144.311 34.4053 142.034 34.5225C138.83 34.689 135.417 37.581 133.605 41.7458C134.03 41.9879 134.422 42.282 134.778 42.623C136.377 38.7263 139.486 36.1676 142.102 36.0296H142.104Z" fill="white" style="fill:white;fill-opacity:1;"/>
<path d="M132.666 44.6455C132.59 44.9917 132.522 45.3431 132.471 45.7023C132.458 45.783 132.466 45.8585 132.461 45.9392L133.892 46.5926C133.699 45.796 133.261 45.114 132.666 44.6481V44.6455Z" fill="white" style="fill:white;fill-opacity:1;"/>
<path d="M134.244 44.1797C134.396 43.6408 134.574 43.1202 134.778 42.6231C134.422 42.2821 134.03 41.9879 133.606 41.7458C133.408 42.1988 133.23 42.6673 133.074 43.1489C133.518 43.4222 133.91 43.7684 134.247 44.1797H134.244Z" fill="white" style="fill:white;fill-opacity:1;"/>
<path d="M136.825 47.2278C136.822 47.1445 136.8 47.0638 136.793 46.9805H135.374C135.384 47.0821 135.408 47.181 135.41 47.2851L134.742 46.9805H134.708C134.379 46.9805 134.172 46.7957 134.072 46.6734L133.887 46.5901C133.945 46.8322 133.987 47.0821 133.996 47.3424C134.013 47.8161 134.245 48.2118 134.577 48.4747C134.621 48.4773 134.664 48.4903 134.711 48.4903H136.22C136.593 48.2039 136.844 47.7536 136.827 47.2278H136.825Z" fill="white" style="fill:white;fill-opacity:1;"/>
<path d="M135.412 47.285C135.407 47.1809 135.382 47.0846 135.375 46.9805H134.746L135.414 47.285H135.412Z" fill="white" style="fill:white;fill-opacity:1;"/>
<path d="M133.89 46.5927L134.076 46.676C134.076 46.676 134.066 46.6656 134.061 46.6604C133.966 46.5406 133.815 46.2907 133.866 45.9367C133.956 45.3302 134.088 44.7446 134.246 44.1797C133.912 43.7684 133.517 43.4222 133.074 43.1489C132.915 43.6357 132.776 44.1329 132.664 44.6457C133.256 45.1116 133.698 45.7962 133.89 46.5901V46.5927Z" fill="white" style="fill:white;fill-opacity:1;"/>
<path d="M147.743 30.4618H147.76C151.742 30.4514 154.974 26.9738 154.965 22.7127C154.96 20.6433 154.199 18.6989 152.824 17.2386C151.461 15.7939 149.662 15 147.748 15H147.719C143.74 15.0182 140.51 18.4958 140.52 22.7543C140.524 24.8211 141.278 26.7604 142.643 28.2154C144.006 29.6653 145.815 30.4644 147.741 30.4644L147.743 30.4618ZM147.726 16.5071C150.93 16.4941 153.543 19.2793 153.551 22.7153C153.558 26.1565 150.969 28.9443 147.758 28.9521C144.542 28.9599 141.943 26.1903 141.934 22.7491C141.926 19.308 144.511 16.5202 147.726 16.5071V16.5071Z" fill="white" style="fill:white;fill-opacity:1;"/>
<path d="M147.758 28.9521C150.971 28.9443 153.558 26.1591 153.551 22.7153C153.543 19.2793 150.93 16.4941 147.726 16.5071C144.513 16.5201 141.926 19.308 141.934 22.7491C141.941 26.1903 144.542 28.9599 147.758 28.9521ZM147.731 18.0169H147.748C148.909 18.0169 150.003 18.501 150.83 19.3782C151.669 20.2685 152.132 21.4554 152.137 22.7179C152.141 25.3157 150.176 27.4345 147.756 27.4397C146.595 27.4762 145.474 26.9582 144.642 26.0732C143.811 25.1881 143.353 24.0038 143.348 22.7439C143.343 20.1461 145.308 18.0247 147.731 18.0169V18.0169Z" fill="white" style="fill:white;fill-opacity:1;"/>
<path d="M29.0216 26.3993L22.0198 56.7402H-187.788L-171.689 26.3993H29.0216Z" stroke="white" style="stroke:white;stroke-opacity:1;" stroke-width="0.798445"/>
<path d="M194.072 25.151L201.074 -5.18989H410.882L394.783 25.151H194.072Z" stroke="white" style="stroke:white;stroke-opacity:1;" stroke-width="0.798445"/>
<rect y="66" width="237" height="105" fill="white" style="fill:white;fill-opacity:1;"/>
</g>
<defs>
<clipPath id="clip0_26495_8963">
<rect width="231" height="171" rx="8" fill="white" style="fill:white;fill-opacity:1;"/>
</clipPath>
</defs>
</svg>
