<svg width="232" height="171" viewBox="0 0 232 171" fill="none" xmlns="http://www.w3.org/2000/svg">
<g clip-path="url(#clip0_26499_20959)">
<rect width="232" height="171" rx="8" fill="#00A7E1" style="fill:#00A7E1;fill:color(display-p3 0.0000 0.6549 0.8824);fill-opacity:1;"/>
<path d="M29.4747 26.3993L22.473 56.7402H-187.335L-171.236 26.3993H29.4747Z" stroke="white" style="stroke:white;stroke-opacity:1;" stroke-width="0.798445"/>
<path d="M194.525 25.151L201.527 -5.18989H411.335L395.236 25.151H194.525Z" stroke="white" style="stroke:white;stroke-opacity:1;" stroke-width="0.798445"/>
<rect y="66" width="237" height="105" fill="white" style="fill:white;fill-opacity:1;"/>
<path d="M83.0852 38.9481H77.9277C77.3259 38.9481 76.9053 39.0651 76.6636 39.3016C76.4244 39.5381 76.3035 39.9427 76.3035 40.5254V42.5756H81.6665L81.4611 45.145H76.3059V51.1347H73.4492V39.3845C73.4492 38.2948 73.6861 37.5196 74.1574 37.0637C74.6286 36.6078 75.4407 36.3787 76.5911 36.3787H83.0828V38.9481H83.0852Z" fill="white" style="fill:white;fill-opacity:1;"/>
<path d="M94.7965 51.1323H91.8189L90.9972 48.5823H86.0861L85.2862 51.1323H82.3086L86.9925 37.6219C87.1979 37.1514 87.4251 36.8272 87.6813 36.6493C87.935 36.4689 88.2468 36.3787 88.6166 36.3787C88.9864 36.3787 89.2837 36.4615 89.5108 36.6273C89.738 36.7931 89.9386 37.1246 90.1175 37.6219L94.8013 51.1323H94.7965ZM90.3398 46.1591L88.6142 40.3157L86.8064 46.1591H90.3398Z" fill="white" style="fill:white;fill-opacity:1;"/>
<path d="M103.41 45.4132H106.059C106.059 47.1538 105.66 48.5214 104.858 49.516C104.058 50.5107 102.917 51.0762 101.438 51.2152L101.274 51.6296C101.931 51.8076 102.26 52.1928 102.26 52.7803C102.26 53.3678 102.064 53.831 101.675 54.1698C101.286 54.5087 100.687 54.6769 99.8769 54.6769C99.7005 54.6769 99.3766 54.6501 98.9126 54.594L99.3452 53.5384C99.5917 53.5799 99.831 53.5994 100.063 53.5994C100.626 53.5994 100.906 53.3848 100.906 52.9558C100.906 52.4853 100.508 52.2513 99.715 52.2513L100.107 51.2347C96.7785 50.9982 95.1133 48.7896 95.1133 44.6039V43.3606C95.1133 39.8648 96.0728 37.6756 97.9893 36.7907C98.741 36.4323 99.6521 36.252 100.72 36.252C102.282 36.252 103.553 36.6834 104.532 37.5464C105.511 38.4094 106.001 39.6576 106.001 41.2885H103.331C103.178 40.4742 102.912 39.8575 102.531 39.443C102.146 39.0286 101.545 38.8214 100.723 38.8214C99.7633 38.8214 99.0528 39.1261 98.5863 39.7331C98.2576 40.1622 98.0643 40.8935 98.0111 41.9296C97.9821 42.2611 97.97 42.7097 97.97 43.2753V44.56C97.97 46.1494 98.1899 47.2318 98.6274 47.812C99.0793 48.3922 99.7802 48.6823 100.735 48.6823C101.69 48.6823 102.345 48.4166 102.707 47.8852C103.07 47.3537 103.306 46.5273 103.415 45.4083L103.41 45.4132Z" fill="white" style="fill:white;fill-opacity:1;"/>
<path d="M119.121 51.1323H116.143L115.321 48.5823H110.41L109.61 51.1323H106.633L111.317 37.6219C111.522 37.1514 111.749 36.8272 112.005 36.6493C112.259 36.4689 112.571 36.3787 112.941 36.3787C113.311 36.3787 113.608 36.4615 113.835 36.6273C114.062 36.7931 114.263 37.1246 114.442 37.6219L119.126 51.1323H119.121ZM114.664 46.1591L112.938 40.3157L111.131 46.1591H114.664Z" fill="white" style="fill:white;fill-opacity:1;"/>
<path d="M76.1238 28.1218C76.1238 27.7171 76.5467 27.3344 77.3273 27.3344C77.8832 27.3344 78.2409 27.5367 78.2409 28.0072C78.2409 28.1193 78.2409 28.1413 78.2192 28.2778H80.0681C80.1116 28.0072 80.1575 27.8073 80.1575 27.605C80.1575 26.6176 79.0216 26.1008 77.5739 26.1008C75.5485 26.1008 74.2338 27.1345 74.2338 28.5045C74.2338 30.7497 77.7745 30.0769 77.7745 31.2007C77.7745 31.6493 77.1944 31.9857 76.4379 31.9857C75.7709 31.9857 75.302 31.7151 75.302 31.2227C75.302 31.1544 75.302 31.0642 75.3238 30.9082H73.4966C73.4749 31.1544 73.4531 31.3348 73.4531 31.5152C73.4531 32.8414 74.8332 33.2217 76.2156 33.2217C78.3545 33.2217 79.7563 32.2782 79.7563 30.8399C79.7563 28.5264 76.1262 29.3358 76.1262 28.1218M89.5542 33.2217C91.5143 33.2217 92.7614 32.21 92.7614 30.9764C92.7614 30.2792 92.4496 29.7185 91.3596 29.5162C92.3844 29.3821 93.252 28.663 93.252 27.6732C93.252 26.6835 92.5608 26.1008 91.3379 26.1008H87.7078L86.2166 33.2217H89.5567H89.5542ZM99.2628 31.2909C99.2628 30.3914 99.0622 29.9209 97.9722 29.7185C99.2628 29.6283 100.198 28.8434 100.198 27.7634C100.198 26.8419 99.4174 26.1008 98.0374 26.1008H94.4967L92.9596 33.2217H94.9849L95.5867 30.4596H96.522C96.7903 30.4596 97.3003 30.4596 97.3003 31.2007C97.3003 31.5371 97.1891 32.4806 97.1673 33.2217H99.2386C99.2168 32.4586 99.2603 31.8297 99.2603 31.2909M82.2457 31.8516L82.5792 30.3231H85.7646L86.0546 28.9531H82.8692L83.181 27.4928H86.5888L86.8788 26.1228H81.4892L79.9738 33.2217H85.4287L85.7187 31.8516H82.2457V31.8516ZM113.957 26.1228H108.568L107.052 33.2217H112.507L112.797 31.8516H109.3L109.612 30.3231H112.862L113.152 28.9531H109.902L110.214 27.4928H113.665L113.955 26.1228H113.957ZM99.2386 33.2217H101.199L101.912 31.8736H104.495L104.606 33.2217H106.632L105.653 26.1471H103.226L99.241 33.2217H99.2386ZM90.4195 27.3587C90.9101 27.3587 91.2219 27.583 91.2219 28.0779C91.2219 28.5728 90.8883 28.9531 90.1971 28.9531H89.0394L89.373 27.3587H90.4195V27.3587ZM95.8743 29.1773L96.2296 27.4246H97.0973C97.409 27.4246 98.1655 27.4246 98.1655 28.1657C98.1655 28.7727 97.6749 29.1773 96.8749 29.1773H95.8719H95.8743ZM104.159 27.583H104.181L104.403 30.5254H102.622L104.159 27.583ZM89.7959 30.2329C90.1077 30.2329 90.7312 30.3012 90.7312 31.0179C90.7312 31.5566 90.33 31.9174 89.5277 31.9174H88.4135L88.7688 30.2329H89.7935H89.7959Z" fill="white" style="fill:white;fill-opacity:1;"/>
<path d="M139.907 57C129.246 57 120.574 48.2532 120.574 37.5C120.574 26.7468 129.248 18 139.907 18C140.68 18 141.308 18.6338 141.308 19.4139C141.308 20.194 140.68 20.8279 139.907 20.8279C130.793 20.8279 123.378 28.307 123.378 37.5C123.378 46.693 130.793 54.1722 139.907 54.1722C149.021 54.1722 156.436 46.693 156.436 37.5C156.436 36.7199 157.064 36.0861 157.837 36.0861C158.611 36.0861 159.239 36.7199 159.239 37.5C159.239 48.2532 150.567 57 139.907 57V57Z" fill="white" style="fill:white;fill-opacity:1;"/>
<path d="M138.667 44.7378H138.652C138.278 44.7329 137.92 44.5793 137.661 44.3087L130.278 36.6296C129.739 36.0689 129.753 35.1743 130.309 34.6306C130.865 34.087 131.752 34.1016 132.291 34.6623L138.689 41.3175L157.064 23.0047C157.615 22.4562 158.502 22.4611 159.046 23.0169C159.589 23.5727 159.585 24.4674 159.034 25.0159L139.65 44.3331C139.387 44.5939 139.034 44.7402 138.664 44.7402L138.667 44.7378Z" fill="white" style="fill:white;fill-opacity:1;"/>
</g>
<defs>
<clipPath id="clip0_26499_20959">
<rect width="232" height="171" rx="8" fill="white" style="fill:white;fill-opacity:1;"/>
</clipPath>
</defs>
</svg>
