<svg width="232" height="171" viewBox="0 0 232 171" fill="none" xmlns="http://www.w3.org/2000/svg">
<g clip-path="url(#clip0_26495_8965)">
<rect width="232" height="171" rx="8" fill="#6ABF4B" style="fill:#6ABF4B;fill:color(display-p3 0.4157 0.7490 0.2941);fill-opacity:1;"/>
<rect x="5.89844" y="4" width="221" height="123" rx="2" fill="#6ABF4B" style="fill:#6ABF4B;fill:color(display-p3 0.4157 0.7490 0.2941);fill-opacity:1;"/>
<g clip-path="url(#clip1_26495_8965)">
<path d="M183.709 39.5082H170.54C169.755 39.5082 169.117 38.8787 169.117 38.104C169.117 37.3293 169.755 36.6999 170.54 36.6999H181.135L178.743 32.9401C178.455 32.4898 178.451 31.9161 178.733 31.4634L181.491 26.9919H170.54C169.755 26.9919 169.117 26.3624 169.117 25.5877C169.117 24.813 169.755 24.1836 170.54 24.1836H184.023C184.538 24.1836 185.011 24.4572 185.264 24.9002C185.517 25.3432 185.507 25.8855 185.24 26.3189L181.621 32.1824L184.916 37.3559C185.191 37.7893 185.208 38.3364 184.955 38.7819C184.705 39.2297 184.229 39.5082 183.709 39.5082V39.5082Z" fill="white" style="fill:white;fill-opacity:1;"/>
<path d="M60.1293 51.9928H57.1065L56.2723 49.4605H51.2866L50.4745 51.9928H47.4492L52.2042 38.576C52.4128 38.1087 52.6459 37.7868 52.9035 37.61C53.1611 37.4309 53.4752 37.3413 53.853 37.3413C54.2309 37.3413 54.5302 37.4236 54.7609 37.5882C54.9915 37.7529 55.1951 38.0821 55.3767 38.576L60.1317 51.9928H60.1293ZM55.6024 47.0541L53.8506 41.2511L52.0153 47.0541H55.6024V47.0541Z" fill="white" style="fill:white;fill-opacity:1;"/>
<path d="M71.3286 51.9928H66.9073C65.2388 51.9928 64.0317 51.6733 63.2882 51.0366C62.5448 50.3999 62.1719 49.3589 62.1719 47.9184V37.3413H65.072V47.9184C65.072 48.4946 65.202 48.8916 65.467 49.1119C65.7296 49.3322 66.2105 49.4412 66.9048 49.4412H71.3261V51.9928H71.3286Z" fill="white" style="fill:white;fill-opacity:1;"/>
<path d="M81.1521 46.3135H83.8437C83.8437 48.18 83.3701 49.6132 82.4255 50.6131C81.4809 51.6153 80.1462 52.1165 78.4213 52.1165C74.6256 52.1165 72.7266 49.9134 72.7266 45.5097V44.275C72.7266 40.8034 73.7006 38.6294 75.6463 37.7506C76.4118 37.3947 77.3344 37.2156 78.4188 37.2156C80.0039 37.2156 81.2944 37.6441 82.2881 38.5011C83.2818 39.3581 83.7799 40.5976 83.7799 42.2172H81.0687C80.9166 41.4086 80.6442 40.7961 80.2566 40.3846C79.8689 39.973 79.2555 39.7672 78.4213 39.7672C77.4472 39.7672 76.7259 40.0699 76.2523 40.6727C75.9187 41.0988 75.7248 41.825 75.6684 42.8539C75.6414 43.1832 75.6267 43.6286 75.6267 44.1903V45.4661C75.6267 47.0446 75.85 48.1195 76.2941 48.6957C76.7529 49.2719 77.4669 49.56 78.4336 49.56C79.4003 49.56 80.0676 49.2961 80.4357 48.7683C80.8037 48.2405 81.0442 47.4198 81.1546 46.3086L81.1521 46.3135Z" fill="white" style="fill:white;fill-opacity:1;"/>
<path d="M97.5668 51.9928H94.544L93.7098 49.4605H88.7241L87.912 51.9928H84.8867L89.6417 38.576C89.8503 38.1087 90.0834 37.7868 90.341 37.61C90.5986 37.4309 90.9127 37.3413 91.2905 37.3413C91.6684 37.3413 91.9677 37.4236 92.1984 37.5882C92.429 37.7529 92.6326 38.0821 92.8142 38.576L97.5692 51.9928H97.5668ZM93.0399 47.0541L91.2881 41.2511L89.4528 47.0541H93.0399Z" fill="white" style="fill:white;fill-opacity:1;"/>
<path d="M111.184 37.3413V50.5112C111.184 50.9639 111.045 51.3513 110.767 51.6733C110.49 51.9953 110.161 52.1575 109.788 52.1575C108.829 52.1575 108.044 51.6079 107.433 50.5112L102.302 42.5875V51.9928H99.4023V37.3413H102.197L108.287 46.9307V37.3413H111.184V37.3413Z" fill="white" style="fill:white;fill-opacity:1;"/>
<path d="M121.695 46.3135H124.387C124.387 48.18 123.913 49.6132 122.968 50.6131C122.024 51.6153 120.689 52.1165 118.964 52.1165C115.169 52.1165 113.27 49.9134 113.27 45.5097V44.275C113.27 40.8034 114.244 38.6294 116.189 37.7506C116.955 37.3947 117.877 37.2156 118.962 37.2156C120.547 37.2156 121.837 37.6441 122.831 38.5011C123.825 39.3581 124.323 40.5976 124.323 42.2172H121.612C121.46 41.4086 121.187 40.7961 120.8 40.3846C120.412 39.973 119.798 39.7672 118.964 39.7672C117.99 39.7672 117.269 40.0699 116.795 40.6727C116.462 41.0988 116.268 41.825 116.211 42.8539C116.184 43.1832 116.17 43.6286 116.17 44.1903V45.4661C116.17 47.0446 116.393 48.1195 116.837 48.6957C117.296 49.2719 118.01 49.56 118.977 49.56C119.943 49.56 120.611 49.2961 120.979 48.7683C121.347 48.2405 121.587 47.4198 121.698 46.3086L121.695 46.3135Z" fill="white" style="fill:white;fill-opacity:1;"/>
<path d="M136.628 51.9928H131.372C129.704 51.9928 128.533 51.7096 127.859 51.1382C127.184 50.5693 126.848 49.5646 126.848 48.1242V37.3413H136.63V39.893H129.748V43.3307H134.564L134.356 45.8824H129.748V47.9208C129.748 48.497 129.878 48.894 130.143 49.1143C130.405 49.3346 130.886 49.4436 131.581 49.4436H136.628V51.9953V51.9928Z" fill="white" style="fill:white;fill-opacity:1;"/>
<path d="M52.5628 29.1417C52.5628 28.7398 52.9921 28.3598 53.7846 28.3598C54.349 28.3598 54.7121 28.5607 54.7121 29.0279C54.7121 29.1393 54.7121 29.1611 54.69 29.2967H56.567C56.6111 29.0279 56.6578 28.8294 56.6578 28.6285C56.6578 27.648 55.5046 27.1348 54.0349 27.1348C51.9788 27.1348 50.6441 28.1612 50.6441 29.5218C50.6441 31.7515 54.2385 31.0833 54.2385 32.1994C54.2385 32.6448 53.6497 32.9789 52.8817 32.9789C52.2045 32.9789 51.7285 32.7102 51.7285 32.2212C51.7285 32.1534 51.7285 32.0638 51.7506 31.9089H49.8957C49.8736 32.1534 49.8516 32.3325 49.8516 32.5117C49.8516 33.8287 51.2525 34.2063 52.656 34.2063C54.8274 34.2063 56.2505 33.2694 56.2505 31.8411C56.2505 29.5436 52.5652 30.3474 52.5652 29.1417M66.1972 34.2063C68.1871 34.2063 69.4531 33.2016 69.4531 31.9766C69.4531 31.2843 69.1366 30.7274 68.0301 30.5265C69.0704 30.3934 69.9512 29.6792 69.9512 28.6963C69.9512 27.7134 69.2495 27.1348 68.008 27.1348H64.3227L62.8089 34.2063H66.1997H66.1972ZM76.0532 32.2889C76.0532 31.3956 75.8496 30.9284 74.743 30.7274C76.0532 30.6379 77.0028 29.8583 77.0028 28.7858C77.0028 27.8707 76.2103 27.1348 74.8093 27.1348H71.2148L69.6543 34.2063H71.7104L72.3214 31.4634H73.2709C73.5432 31.4634 74.0609 31.4634 74.0609 32.1994C74.0609 32.5335 73.9481 33.4704 73.926 34.2063H76.0287C76.0066 33.4486 76.0508 32.824 76.0508 32.2889M58.7776 32.8458L59.1162 31.3278H62.35L62.6445 29.9673H59.4107L59.7272 28.5171H63.1867L63.4811 27.1566H58.0097L56.4713 34.2063H62.009L62.3034 32.8458H58.7776V32.8458ZM90.9709 27.1566H85.4995L83.9611 34.2063H89.4988L89.7932 32.8458H86.2429L86.5594 31.3278H89.8595L90.1539 29.9673H86.8538L87.1704 28.5171H90.6741L90.9685 27.1566H90.9709ZM76.0287 34.2063H78.0185L78.7423 32.8676H81.3652L81.4781 34.2063H83.5342L82.5405 27.1808H80.0771L76.0312 34.2063H76.0287ZM67.0756 28.384C67.5737 28.384 67.8902 28.6067 67.8902 29.0981C67.8902 29.5896 67.5516 29.9673 66.8499 29.9673H65.6746L66.0132 28.384H67.0756ZM72.6133 30.19L72.974 28.4493H73.8548C74.1713 28.4493 74.9393 28.4493 74.9393 29.1853C74.9393 29.7881 74.4412 30.19 73.6291 30.19H72.6109H72.6133ZM81.0242 28.6067H81.0463L81.272 31.5288H79.4637L81.0242 28.6067ZM66.4426 31.2383C66.7591 31.2383 67.3921 31.306 67.3921 32.0178C67.3921 32.5528 66.9848 32.9111 66.1703 32.9111H65.0392L65.3998 31.2383H66.4401H66.4426Z" fill="white" style="fill:white;fill-opacity:1;"/>
<path d="M169.657 53C168.872 53 168.234 52.3706 168.234 51.5959V22.4041C168.234 21.6294 168.872 21 169.657 21C170.443 21 171.081 21.6294 171.081 22.4041V51.5959C171.081 52.3706 170.443 53 169.657 53Z" fill="white" style="fill:white;fill-opacity:1;"/>
<path d="M160.76 52.775H158.208C156.166 52.775 154.508 51.136 154.508 49.1242V33.393C154.508 31.3787 156.169 29.7422 158.208 29.7422H160.76C162.801 29.7422 164.459 31.3812 164.459 33.393V49.1242C164.459 51.1385 162.798 52.775 160.76 52.775ZM158.208 32.5505C157.737 32.5505 157.354 32.9281 157.354 33.393V49.1242C157.354 49.5891 157.737 49.9667 158.208 49.9667H160.76C161.231 49.9667 161.613 49.5891 161.613 49.1242V33.393C161.613 32.9281 161.231 32.5505 160.76 32.5505H158.208V32.5505Z" fill="white" style="fill:white;fill-opacity:1;"/>
<path d="M147.131 52.775H144.579C142.538 52.775 140.879 51.136 140.879 49.1242V44.7641C140.879 42.7498 142.54 41.1133 144.579 41.1133H147.131C149.172 41.1133 150.831 42.7523 150.831 44.7641V49.1242C150.831 51.1384 149.17 52.775 147.131 52.775ZM144.579 43.9216C144.108 43.9216 143.725 44.2992 143.725 44.7641V49.1242C143.725 49.589 144.108 49.9667 144.579 49.9667H147.131C147.602 49.9667 147.984 49.589 147.984 49.1242V44.7641C147.984 44.2992 147.602 43.9216 147.131 43.9216H144.579Z" fill="white" style="fill:white;fill-opacity:1;"/>
</g>
<path d="M29.9239 26.3993L22.9222 56.7402H-186.886L-170.787 26.3993H29.9239Z" stroke="white" style="stroke:white;stroke-opacity:1;" stroke-width="0.798445"/>
<path d="M194.974 25.151L201.976 -5.18989H411.784L395.686 25.151H194.974Z" stroke="white" style="stroke:white;stroke-opacity:1;" stroke-width="0.798445"/>
<rect y="66" width="237" height="105" fill="white" style="fill:white;fill-opacity:1;"/>
</g>
<defs>
<clipPath id="clip0_26495_8965">
<rect width="232" height="171" rx="8" fill="white" style="fill:white;fill-opacity:1;"/>
</clipPath>
<clipPath id="clip1_26495_8965">
<rect width="138" height="32" fill="white" style="fill:white;fill-opacity:1;" transform="translate(47.4492 21)"/>
</clipPath>
</defs>
</svg>
