<svg width="232" height="171" viewBox="0 0 232 171" fill="none" xmlns="http://www.w3.org/2000/svg">
<g clip-path="url(#clip0_26495_8962)">
<rect width="232" height="171" rx="8" fill="#F93549" style="fill:#F93549;fill:color(display-p3 0.9765 0.2078 0.2863);fill-opacity:1;"/>
<path d="M29.4747 26.3993L22.473 56.7402H-187.335L-171.236 26.3993H29.4747Z" stroke="white" style="stroke:white;stroke-opacity:1;" stroke-width="0.798445"/>
<path d="M194.525 25.151L201.527 -5.18989H411.335L395.236 25.151H194.525Z" stroke="white" style="stroke:white;stroke-opacity:1;" stroke-width="0.798445"/>
<rect y="66" width="237" height="105" fill="white" style="fill:white;fill-opacity:1;"/>
<path d="M133.365 55C132.485 55 131.601 54.7739 130.79 54.3174C129.11 53.3734 128.105 51.6597 128.105 49.7322V47.8318C128.105 47.1678 128.645 46.6284 129.309 46.6284C129.973 46.6284 130.512 47.1678 130.512 47.8318V49.7322C130.512 50.7779 131.056 51.7074 131.969 52.2178C132.879 52.7302 133.956 52.7074 134.848 52.1638L154.868 39.9311C155.722 39.4083 156.231 38.4996 156.231 37.4995C156.231 36.4995 155.72 35.5887 154.868 35.0679L134.848 22.8352C133.956 22.2917 132.879 22.2688 131.969 22.7813C131.058 23.2917 130.512 24.2212 130.512 25.2668V27.2814C130.512 27.9453 129.973 28.4848 129.309 28.4848C128.645 28.4848 128.105 27.9453 128.105 27.2814V25.2668C128.105 23.3394 129.11 21.6257 130.79 20.6817C132.473 19.7397 134.458 19.775 136.104 20.7812L156.123 33.0139C157.698 33.9766 158.639 35.653 158.639 37.4995C158.639 39.3461 157.7 41.0224 156.123 41.9851L136.104 54.2157C135.253 54.7365 134.309 54.9979 133.365 54.9979V55Z" fill="white" style="fill:white;fill-opacity:1;"/>
<path d="M79.6892 38.9124H81.9632C81.9632 40.512 81.5627 41.7402 80.764 42.5971C79.9631 43.4561 78.8345 43.8855 77.378 43.8855C74.1684 43.8855 72.5625 41.9975 72.5625 38.2236V37.1654C72.5625 34.1903 73.3862 32.3271 75.0314 31.574C75.6788 31.269 76.4589 31.1155 77.378 31.1155C78.7183 31.1155 79.8096 31.4827 80.6499 32.2172C81.4901 32.9516 81.9113 34.0139 81.9113 35.4019H79.6187C79.488 34.7089 79.2598 34.184 78.9299 33.8313C78.6 33.4786 78.0834 33.3023 77.378 33.3023C76.5543 33.3023 75.9423 33.5616 75.5439 34.0782C75.2617 34.4434 75.0978 35.0658 75.0501 35.9476C75.0273 36.2297 75.0148 36.6115 75.0148 37.0928V38.1862C75.0148 39.5389 75.2016 40.4601 75.5792 40.9539C75.9672 41.4477 76.5688 41.6946 77.3863 41.6946C78.2037 41.6946 78.7681 41.4685 79.0793 41.0162C79.3905 40.5639 79.5917 39.8605 79.6872 38.9082L79.6892 38.9124Z" fill="white" style="fill:white;fill-opacity:1;"/>
<path d="M93.2532 36.9184V37.8707C93.2532 39.9745 92.8569 41.5036 92.0623 42.4559C91.2677 43.4082 89.9959 43.8854 88.2427 43.8854C86.4895 43.8854 85.2239 43.4082 84.4418 42.4559C83.6596 41.5036 83.2695 39.9579 83.2695 37.8189V36.9018C83.2695 34.9495 83.6658 33.4972 84.4604 32.5449C85.2551 31.5925 86.5124 31.1174 88.2344 31.1174C89.9564 31.1174 91.2241 31.6008 92.0353 32.5635C92.8466 33.5283 93.2511 34.9785 93.2511 36.9184H93.2532ZM90.8009 37.8189V37.1653C90.8009 36.0367 90.6598 35.1362 90.3776 34.4681C90.0477 33.6922 89.3423 33.3042 88.2614 33.3042C87.1804 33.3042 86.4563 33.6922 86.1285 34.4681C85.8567 35.103 85.724 36.0014 85.724 37.1653V37.8189C85.724 39.3355 85.9356 40.3583 86.3588 40.8874C86.5227 41.1115 86.7675 41.3024 87.0912 41.46C87.4149 41.6177 87.8028 41.6986 88.2551 41.6986C88.7074 41.6986 89.0933 41.6219 89.4108 41.4683C89.7282 41.3169 89.9751 41.1281 90.1515 40.904C90.3278 40.682 90.4627 40.3874 90.556 40.0222C90.7199 39.4475 90.8029 38.711 90.8029 37.8189H90.8009Z" fill="white" style="fill:white;fill-opacity:1;"/>
<path d="M104.681 36.2836L102.424 41.0451C102.094 41.68 101.685 41.9974 101.198 41.9974C100.71 41.9974 100.301 41.6613 99.9715 40.9912L97.6789 36.2815V43.7775H95.2266V31.2212H97.6436L101.187 38.4703L104.714 31.2212H107.131V43.7775H104.679V36.2815L104.681 36.2836Z" fill="white" style="fill:white;fill-opacity:1;"/>
<path d="M117.977 43.7797H113.533C112.122 43.7797 111.13 43.537 110.562 43.0474C109.991 42.5598 109.707 41.6988 109.707 40.4643V31.2234H117.979V33.4102H112.159V36.3563H116.234L116.058 38.5431H112.159V40.29C112.159 40.7838 112.271 41.1241 112.495 41.3129C112.717 41.5017 113.124 41.595 113.711 41.595H117.979V43.7818L117.977 43.7797Z" fill="white" style="fill:white;fill-opacity:1;"/>
<path d="M126.724 38.9124H128.998C128.998 40.512 128.598 41.7402 127.799 42.5971C126.998 43.4561 125.87 43.8855 124.413 43.8855C121.204 43.8855 119.598 41.9975 119.598 38.2236V37.1654C119.598 34.1903 120.421 32.3271 122.067 31.574C122.714 31.269 123.494 31.1155 124.413 31.1155C125.753 31.1155 126.845 31.4827 127.685 32.2172C128.525 32.9516 128.946 34.0139 128.946 35.4019H126.654C126.523 34.7089 126.295 34.184 125.965 33.8313C125.635 33.4786 125.119 33.3023 124.413 33.3023C123.589 33.3023 122.977 33.5616 122.579 34.0782C122.297 34.4434 122.133 35.0658 122.085 35.9476C122.062 36.2297 122.05 36.6115 122.05 37.0928V38.1862C122.05 39.5389 122.237 40.4601 122.614 40.9539C123.002 41.4477 123.604 41.6946 124.421 41.6946C125.239 41.6946 125.803 41.4685 126.114 41.0162C126.426 40.5639 126.627 39.8605 126.722 38.9082L126.724 38.9124Z" fill="white" style="fill:white;fill-opacity:1;"/>
<path d="M139.35 43.7797H134.906C133.495 43.7797 132.503 43.537 131.933 43.0474C131.362 42.5598 131.078 41.6988 131.078 40.4643V31.2234H139.35V33.4102H133.53V36.3563H137.603L137.427 38.5431H133.528V40.29C133.528 40.7838 133.638 41.1241 133.862 41.3129C134.084 41.5017 134.491 41.595 135.078 41.595H139.346V43.7818L139.35 43.7797Z" fill="white" style="fill:white;fill-opacity:1;"/>
<path d="M74.7418 24.1963C74.7418 23.8519 75.1049 23.5261 75.775 23.5261C76.2522 23.5261 76.5593 23.6983 76.5593 24.0988C76.5593 24.1942 76.5593 24.2129 76.5406 24.3291H78.1278C78.1651 24.0988 78.2046 23.9286 78.2046 23.7564C78.2046 22.9162 77.2294 22.4763 75.9867 22.4763C74.248 22.4763 73.1194 23.356 73.1194 24.522C73.1194 26.4329 76.1589 25.8602 76.1589 26.8167C76.1589 27.1984 75.6609 27.4848 75.0115 27.4848C74.4389 27.4848 74.0364 27.2545 74.0364 26.8354C74.0364 26.7773 74.0364 26.7005 74.0551 26.5677H72.4866C72.4679 26.7773 72.4492 26.9308 72.4492 27.0843C72.4492 28.213 73.6339 28.5366 74.8207 28.5366C76.6568 28.5366 77.8602 27.7337 77.8602 26.5096C77.8602 24.5407 74.7439 25.2295 74.7439 24.1963M86.2712 28.5366C87.9538 28.5366 89.0244 27.6756 89.0244 26.6258C89.0244 26.0324 88.7567 25.5552 87.821 25.383C88.7007 25.2689 89.4455 24.6569 89.4455 23.8145C89.4455 22.9722 88.8521 22.4763 87.8023 22.4763H84.6861L83.4059 28.5366H86.2732H86.2712ZM94.6054 26.8934C94.6054 26.1279 94.4332 25.7274 93.4975 25.5552C94.6054 25.4785 95.4083 24.8104 95.4083 23.8913C95.4083 23.107 94.7382 22.4763 93.5535 22.4763H90.514L89.1945 28.5366H90.9331L91.4497 26.186H92.2527C92.483 26.186 92.9207 26.186 92.9207 26.8167C92.9207 27.103 92.8253 27.9059 92.8066 28.5366H94.5847C94.566 27.8872 94.6033 27.352 94.6033 26.8934M79.9971 27.3706L80.2835 26.0698H83.018L83.2669 24.9038H80.5324L80.8001 23.661H83.7255L83.9744 22.495H79.3477L78.0469 28.5366H82.7296L82.9785 27.3706H79.9971V27.3706ZM107.22 22.495H102.593L101.292 28.5366H105.975L106.224 27.3706H103.222L103.489 26.0698H106.28L106.529 24.9038H103.738L104.006 23.661H106.969L107.218 22.495H107.22ZM94.5847 28.5366H96.2673L96.8793 27.3893H99.0972L99.1927 28.5366H100.931L100.091 22.5157H98.008L94.5867 28.5366H94.5847ZM87.0139 23.5469C87.4351 23.5469 87.7027 23.7378 87.7027 24.1589C87.7027 24.5801 87.4164 24.9038 86.823 24.9038H85.8292L86.1156 23.5469H87.0139V23.5469ZM91.6966 25.0946L92.0016 23.6029H92.7464C93.0141 23.6029 93.6635 23.6029 93.6635 24.2336C93.6635 24.7502 93.2423 25.0946 92.5556 25.0946H91.6945H91.6966ZM98.8088 23.7378H98.8275L99.0184 26.242H97.4893L98.8088 23.7378ZM86.4786 25.993C86.7463 25.993 87.2816 26.0511 87.2816 26.6611C87.2816 27.1196 86.9372 27.4267 86.2483 27.4267H85.2919L85.5969 25.993H86.4766H86.4786Z" fill="white" style="fill:white;fill-opacity:1;"/>
</g>
<defs>
<clipPath id="clip0_26495_8962">
<rect width="232" height="171" rx="8" fill="white" style="fill:white;fill-opacity:1;"/>
</clipPath>
</defs>
</svg>
