<svg width="233" height="171" viewBox="0 0 233 171" fill="none" xmlns="http://www.w3.org/2000/svg">
<g clip-path="url(#clip0_26291_9899)">
<rect x="0.597656" width="232" height="171" rx="8" fill="#EF5DA8"/>
<mask id="mask0_26291_9899" style="mask-type:alpha" maskUnits="userSpaceOnUse" x="0" y="0" width="233" height="171">
<rect x="0.597656" width="232" height="171" rx="2.1626" fill="#F93549"/>
</mask>
<g mask="url(#mask0_26291_9899)">
<path d="M18.2852 171.435L57.371 -11.168H149.305L109.669 171.435H18.2852Z" fill="#FFB71B"/>
<g opacity="0.8">
<path d="M62.4836 132.464C62.4836 132.464 62.4722 132.509 62.4665 132.532C62.6492 132.561 62.8376 132.567 63.0203 132.606C63.3972 131.55 63.814 130.511 64.2765 129.5C63.323 129.255 62.3408 129.089 61.3245 129.055C58.6522 128.969 55.8772 128.946 53.0508 128.964C55.1006 128.975 57.1619 128.992 59.2632 129.055C61.0904 129.112 62.5293 130.637 62.4722 132.464H62.4836Z" fill="#FFC23D"/>
<path d="M51.6599 135.571L51.5742 135.605C52.0767 135.605 52.5849 135.582 53.0816 135.582C52.6077 135.582 52.1281 135.565 51.6599 135.565V135.571Z" fill="#FFC23D"/>
<path d="M62.4662 132.533C62.3748 134.269 60.9873 135.593 59.2344 135.651C59.8568 135.668 60.502 135.662 61.1129 135.679C61.4327 135.691 61.7353 135.753 62.0437 135.805C62.3177 134.72 62.6489 133.658 63.0201 132.607C62.8373 132.567 62.6489 132.562 62.4662 132.533Z" fill="#FFC23D"/>
<path d="M53.0799 135.588C53.5596 135.588 54.0506 135.605 54.5303 135.61L54.4446 135.576C53.9935 135.576 53.531 135.588 53.0742 135.588H53.0799Z" fill="#FFC23D"/>
<path d="M43.6441 132.533C43.6441 132.533 43.627 132.487 43.627 132.464C43.5699 130.637 45.0088 129.107 46.836 129.055C48.9373 128.992 51.0043 128.975 53.0484 128.964C50.2277 128.952 47.447 128.97 44.7747 129.055C37.4603 129.295 31.5048 135.313 31.225 142.753C31.1565 144.581 32.5783 146.122 34.4112 146.191C34.4511 146.191 34.4968 146.191 34.5368 146.191C36.3069 146.191 37.7743 144.792 37.8428 143.005C37.8657 142.434 37.9628 141.885 38.0998 141.354L34.5311 142.879C34.7309 137.654 38.5794 133.315 43.6327 132.533H43.6441Z" fill="#FFC23D"/>
<path d="M59.2284 135.651C57.6525 135.616 56.0766 135.576 54.4492 135.576L54.5349 135.611C56.0423 135.628 57.5326 135.634 59.0686 135.679C59.1257 135.679 59.1713 135.651 59.2284 135.651Z" fill="#FFC23D"/>
<path d="M54.4484 135.577L53.0495 134.983L51.6562 135.577C52.1245 135.577 52.6041 135.588 53.078 135.594C53.5348 135.594 53.9973 135.582 54.4484 135.582V135.577Z" fill="#FFC23D"/>
<path d="M43.6289 132.465C43.6289 132.465 43.6403 132.51 43.646 132.533C44.0572 132.47 44.4626 132.385 44.8908 132.368C47.6087 132.276 50.3324 132.259 53.056 132.271C55.7797 132.259 58.5033 132.276 61.2212 132.368C61.6495 132.379 62.0549 132.47 62.466 132.533C62.466 132.51 62.4831 132.488 62.4831 132.465C62.5402 130.638 61.1013 129.107 59.2741 129.056C57.1729 128.993 55.1116 128.976 53.0617 128.965C51.0118 128.976 48.9506 128.993 46.8493 129.056C45.0221 129.113 43.5832 130.638 43.6403 132.465H43.6289Z" fill="#FFC23D"/>
<path d="M62.4607 132.533C62.0496 132.47 61.6442 132.384 61.216 132.367C58.4981 132.276 55.7744 132.259 53.0508 132.27C55.0892 132.282 57.1277 132.304 59.1661 132.367L53.0508 134.977L54.4497 135.571C56.077 135.571 57.653 135.611 59.2289 135.645C60.9819 135.588 62.3751 134.269 62.4607 132.527V132.533Z" fill="#FFC23D"/>
<path d="M44.9979 135.679C45.6031 135.662 46.2483 135.662 46.8593 135.651C45.1006 135.633 43.7303 134.269 43.6446 132.533C38.5913 133.315 34.7428 137.66 34.543 142.879L38.1117 141.355C38.9339 138.169 41.6975 135.782 45.0036 135.673L44.9979 135.679Z" fill="#FFC23D"/>
<path d="M53.0545 132.27C50.3309 132.259 47.6072 132.276 44.8893 132.367C44.461 132.378 44.0556 132.47 43.6445 132.533C43.7302 134.263 45.1006 135.627 46.8592 135.65C48.4409 135.61 50.0225 135.576 51.6613 135.576L53.0545 134.982L46.9392 132.373C48.9776 132.31 51.0161 132.287 53.0545 132.276V132.27Z" fill="#FFC23D"/>
<path d="M53.0568 132.271C51.0183 132.282 48.9799 132.305 46.9414 132.368L53.0568 134.977L59.1721 132.368C57.1337 132.305 55.0952 132.282 53.0568 132.271Z" fill="#FFC23D"/>
<path d="M54.0848 123.968H54.1134C60.3087 123.956 65.3334 118.891 65.322 112.679C65.3163 109.664 64.1343 106.826 61.9931 104.702C59.8633 102.584 57.1054 101.402 54.0506 101.442C47.861 101.465 42.8363 106.535 42.8477 112.736C42.8534 115.745 44.0296 118.572 46.1537 120.69C48.2721 122.803 51.0928 123.968 54.0905 123.968H54.0848ZM54.062 104.754C58.4358 104.737 61.9988 108.294 62.0102 112.69C62.0216 117.087 58.4872 120.65 54.1077 120.662C49.7224 120.673 46.1709 117.133 46.1594 112.736C46.148 108.339 49.6768 104.776 54.062 104.759V104.754Z" fill="#FFC23D"/>
<path d="M54.1045 120.656C58.4897 120.645 62.0185 117.087 62.0071 112.685C61.9956 108.294 58.4326 104.731 54.0588 104.748C49.6736 104.765 46.1449 108.328 46.1563 112.725C46.1677 117.122 49.7136 120.662 54.1045 120.65V120.656ZM54.076 108.066C55.2979 108.14 56.4513 108.534 57.3249 109.402C58.21 110.281 58.6953 111.452 58.701 112.696C58.7067 115.254 56.6454 117.339 54.1045 117.344H54.0931C52.8597 117.344 51.7063 116.87 50.8384 116.002C49.9648 115.129 49.4852 113.97 49.4795 112.725C49.4738 110.167 51.5408 108.077 54.0817 108.071L54.076 108.066Z" fill="#FFC23D"/>
<path d="M139.472 138.894C137.2 124.408 125.757 112.148 113.96 111.572C108.507 111.309 105.726 111.246 100.456 111.286C95.1516 111.246 92.3595 111.303 86.9008 111.572C77.782 112.017 68.8916 119.457 64.2666 129.501C65.3457 129.781 66.3564 130.209 67.3214 130.728C71.5582 121.587 79.5578 115.249 87.0606 114.883C92.3937 114.621 95.0888 114.564 100.428 114.604C105.766 114.564 108.461 114.626 113.795 114.883C123.496 115.357 134.059 125.807 136.195 139.408C136.697 142.617 134.19 145.523 130.941 145.523H73.4424C72.9342 145.888 72.3518 146.162 71.6781 146.185C71.6381 146.185 71.5924 146.185 71.5524 146.185C70.8102 146.185 70.1535 145.9 69.5996 145.483C66.6819 145.312 64.4721 142.811 64.6377 139.916L61.4516 138.557C61.4344 138.665 61.4059 138.774 61.3887 138.888C61.0005 141.372 61.7142 143.89 63.353 145.808C64.9974 147.733 67.3899 148.835 69.9137 148.835H130.941C133.465 148.835 135.858 147.733 137.502 145.808C139.141 143.896 139.855 141.372 139.466 138.888L139.472 138.894Z" fill="#FFC23D"/>
<path d="M64.6699 139.408C64.7955 138.625 64.9497 137.855 65.1267 137.09C64.2245 136.427 63.1739 135.993 62.0376 135.799C61.8092 136.707 61.6151 137.632 61.4609 138.563L64.6471 139.922C64.6585 139.75 64.6471 139.579 64.6699 139.402V139.408Z" fill="#FFC23D"/>
<path d="M69.6151 145.495C70.169 145.912 70.8256 146.197 71.5679 146.197C71.6078 146.197 71.6535 146.197 71.6935 146.197C72.3673 146.174 72.9497 145.9 73.4579 145.535H69.9234C69.8149 145.535 69.7179 145.506 69.6094 145.501L69.6151 145.495Z" fill="#FFC23D"/>
<path d="M66.0897 133.807C66.4551 132.75 66.8719 131.722 67.3344 130.729C66.3695 130.209 65.3588 129.781 64.2796 129.501C63.8171 130.512 63.3946 131.545 63.0234 132.607C64.1255 132.836 65.1475 133.258 66.0954 133.807H66.0897Z" fill="#FFC23D"/>
<path d="M63.0155 132.607C62.6443 133.652 62.3131 134.72 62.0391 135.804C63.1753 135.993 64.226 136.433 65.1281 137.095C65.3908 135.97 65.7163 134.879 66.0874 133.812C65.1396 133.264 64.1175 132.841 63.0155 132.613V132.607Z" fill="#FFC23D"/>
<path d="M68.2541 143.005C68.2313 142.434 68.1342 141.886 67.9972 141.355L64.6454 139.922C64.4799 142.811 66.6896 145.312 69.6074 145.489C68.8365 144.912 68.2884 144.044 68.2484 143.005H68.2541Z" fill="#FFC23D"/>
<path d="M87.233 118.189C91.5896 117.978 94.1191 117.898 97.7335 117.898C98.5729 117.898 99.4693 117.898 100.463 117.91C105.687 117.87 108.274 117.921 113.641 118.184C121.373 118.561 130.965 127.382 132.93 139.916C133.05 140.692 132.695 141.246 132.473 141.503C132.244 141.766 131.748 142.211 130.948 142.211H74.7967C74.8081 142.394 74.8595 142.565 74.8709 142.754C74.9166 143.907 74.3228 144.9 73.4492 145.523H130.948C134.197 145.523 136.704 142.616 136.201 139.408C134.066 125.806 123.502 115.357 113.801 114.883C108.468 114.621 105.779 114.564 100.434 114.604C95.0955 114.564 92.4004 114.626 87.0674 114.883C79.5645 115.249 71.5706 121.593 67.3281 130.728C68.3217 131.259 69.241 131.905 70.0746 132.653C73.8203 124.105 81.1005 118.492 87.2272 118.189H87.233Z" fill="#FFC23D"/>
<path d="M65.132 137.09C64.955 137.849 64.7951 138.62 64.6752 139.408C64.6466 139.585 64.6638 139.75 64.6523 139.927L68.0041 141.361C67.553 139.613 66.5252 138.117 65.132 137.095V137.09Z" fill="#FFC23D"/>
<path d="M68.8306 136.067C69.1846 134.885 69.6014 133.743 70.0811 132.653C69.2474 131.905 68.3281 131.26 67.3346 130.729C66.8721 131.722 66.4553 132.75 66.0898 133.806C67.1291 134.406 68.0484 135.165 68.8363 136.067H68.8306Z" fill="#FFC23D"/>
<path d="M74.8727 142.754C74.8669 142.571 74.8156 142.394 74.7984 142.211H71.4752C71.4981 142.434 71.5552 142.651 71.5609 142.879L69.9964 142.211H69.9164C69.1456 142.211 68.6602 141.806 68.4261 141.537L67.9922 141.355C68.1292 141.886 68.2263 142.434 68.2491 143.005C68.2891 144.044 68.8315 144.912 69.6081 145.489C69.7109 145.494 69.8136 145.523 69.9221 145.523H73.4566C74.3302 144.895 74.9183 143.907 74.8784 142.754H74.8727Z" fill="#FFC23D"/>
<path d="M71.5666 142.879C71.5552 142.651 71.4981 142.439 71.481 142.211H70.0078L71.5723 142.879H71.5666Z" fill="#FFC23D"/>
<path d="M67.9971 141.36L68.4311 141.543C68.4311 141.543 68.4082 141.52 68.3968 141.509C68.1741 141.246 67.8201 140.698 67.94 139.921C68.1513 138.591 68.4596 137.306 68.8308 136.067C68.0485 135.165 67.1235 134.405 66.0843 133.806C65.7131 134.874 65.3877 135.964 65.125 137.089C66.5125 138.111 67.546 139.613 67.9971 141.354V141.36Z" fill="#FFC23D"/>
<path d="M100.442 105.976H100.482C109.806 105.953 117.378 98.3247 117.355 88.9776C117.343 84.4382 115.562 80.1729 112.342 76.9696C109.15 73.8006 104.936 72.0591 100.453 72.0591H100.385C91.0663 72.0991 83.5006 79.7275 83.5235 89.069C83.5349 93.6026 85.2993 97.8565 88.4969 101.048C91.6887 104.229 95.9255 105.982 100.436 105.982L100.442 105.976ZM100.402 75.3651C107.905 75.3366 114.026 81.4462 114.043 88.9833C114.06 96.5318 107.996 102.647 100.476 102.664C92.9449 102.681 86.8581 96.6061 86.8353 89.0575C86.8181 81.509 92.8707 75.3937 100.402 75.3651Z" fill="#FFC23D"/>
<path d="M100.477 102.665C108.003 102.647 114.061 96.5378 114.044 88.9835C114.027 81.4464 107.906 75.3368 100.403 75.3653C92.8771 75.3939 86.8188 81.5092 86.836 89.0577C86.8531 96.6063 92.9456 102.682 100.477 102.665ZM100.414 78.6771H100.454C103.172 78.6771 105.736 79.7391 107.672 81.6634C109.636 83.6162 110.721 86.2199 110.732 88.9892C110.743 94.6877 106.141 99.3356 100.471 99.347C97.7534 99.427 95.1268 98.2907 93.1797 96.3493C91.2326 94.408 90.1591 91.8099 90.1477 89.0463C90.1363 83.3478 94.7385 78.6942 100.414 78.6771Z" fill="#FFC23D"/>
</g>
<path d="M98.793 171.435L137.879 -11.168H229.813L190.177 171.435H98.793Z" fill="#00A7E1"/>
<path d="M-59.418 172.564L-20.3321 -10.0388H71.6021L31.9658 172.564H-59.418Z" fill="#F93549"/>
<mask id="mask1_26291_9899" style="mask-type:alpha" maskUnits="userSpaceOnUse" x="-60" y="-11" width="132" height="184">
<path d="M-59.418 172.564L-20.3321 -10.0388H71.6021L31.9658 172.564H-59.418Z" fill="#F93549"/>
</mask>
<g mask="url(#mask1_26291_9899)">
<path d="M9.63513 86.3714C8.18103 86.3714 6.72007 85.9987 5.37915 85.2465C2.60127 83.6907 0.941406 80.8664 0.941406 77.6899V74.5578C0.941406 73.4636 1.83308 72.5746 2.93051 72.5746C4.02794 72.5746 4.9196 73.4636 4.9196 74.5578V77.6899C4.9196 79.4132 5.81813 80.945 7.3271 81.7862C8.83264 82.6307 10.6125 82.5931 12.0872 81.6973L45.1782 61.5372C46.5911 60.6755 47.4314 59.1779 47.4314 57.5298C47.4314 55.8817 46.5877 54.3806 45.1782 53.5224L12.0872 33.3623C10.6125 32.4665 8.83264 32.4288 7.3271 33.2734C5.82156 34.1145 4.9196 35.6464 4.9196 37.3697V40.6898C4.9196 41.784 4.02794 42.673 2.93051 42.673C1.83308 42.673 0.941406 41.784 0.941406 40.6898V37.3697C0.941406 34.1932 2.60127 31.3689 5.37915 29.8131C8.16045 28.2607 11.4425 28.3189 14.162 29.9772L47.2531 50.1373C49.856 51.7238 51.413 54.4866 51.413 57.5298C51.413 60.5729 49.8595 63.3357 47.2531 64.9223L14.162 85.0789C12.756 85.9372 11.1955 86.368 9.63513 86.368V86.3714Z" fill="#F75465"/>
</g>
<g opacity="0.5">
<path d="M164.554 81.7449C144.722 81.7449 128.59 65.3422 128.59 45.1771C128.59 25.0121 144.726 8.60938 164.554 8.60938C165.992 8.60938 167.161 9.79797 167.161 11.2609C167.161 12.7238 165.992 13.9124 164.554 13.9124C147.599 13.9124 133.805 27.9378 133.805 45.1771C133.805 62.4164 147.599 76.4419 164.554 76.4419C181.508 76.4419 195.302 62.4164 195.302 45.1771C195.302 43.7142 196.471 42.5256 197.91 42.5256C199.348 42.5256 200.517 43.7142 200.517 45.1771C200.517 65.3422 184.386 81.7449 164.554 81.7449Z" fill="#3AB5E0"/>
<path d="M162.247 58.7497H162.22C161.523 58.7406 160.858 58.4526 160.377 57.9451L146.641 43.5448C145.639 42.4933 145.665 40.8156 146.7 39.7961C147.734 38.7767 149.384 38.8041 150.386 39.8556L162.287 52.3359L196.471 17.9945C197.496 16.9659 199.146 16.975 200.157 18.0173C201.169 19.0596 201.16 20.7374 200.135 21.766L164.077 57.9909C163.587 58.48 162.93 58.7543 162.242 58.7543L162.247 58.7497Z" fill="#3AB5E0"/>
</g>
<path d="M172.957 171.435L212.043 -11.168H303.977L264.341 171.435H172.957Z" fill="#6ABF4B"/>
<mask id="mask2_26291_9899" style="mask-type:alpha" maskUnits="userSpaceOnUse" x="172" y="-12" width="132" height="184">
<path d="M172.953 171.435L212.039 -11.1675H303.973L264.337 171.435H172.953Z" fill="#6ABF4B"/>
</mask>
<g mask="url(#mask2_26291_9899)">
<path d="M236.146 124.813H216.467C215.293 124.813 214.34 123.859 214.34 122.686C214.34 121.512 215.293 120.559 216.467 120.559H232.3L228.725 114.864C228.296 114.182 228.288 113.313 228.71 112.628L232.832 105.855H216.467C215.293 105.855 214.34 104.902 214.34 103.728C214.34 102.555 215.293 101.602 216.467 101.602H236.616C237.386 101.602 238.094 102.016 238.471 102.687C238.849 103.358 238.834 104.179 238.435 104.836L233.026 113.717L237.951 121.553C238.361 122.209 238.387 123.038 238.009 123.712C237.635 124.391 236.924 124.813 236.146 124.813Z" fill="#80C966"/>
<path d="M215.142 145.247C213.969 145.247 213.016 144.294 213.016 143.121V98.9061C213.016 97.7327 213.969 96.7793 215.142 96.7793C216.316 96.7793 217.269 97.7327 217.269 98.9061V143.121C217.269 144.294 216.316 145.247 215.142 145.247Z" fill="#80C966"/>
<path d="M201.843 144.907H198.03C194.979 144.907 192.5 142.424 192.5 139.377V115.55C192.5 112.499 194.982 110.021 198.03 110.021H201.843C204.894 110.021 207.373 112.503 207.373 115.55V139.377C207.373 142.428 204.89 144.907 201.843 144.907ZM198.03 114.274C197.326 114.274 196.754 114.846 196.754 115.55V139.377C196.754 140.081 197.326 140.653 198.03 140.653H201.843C202.547 140.653 203.119 140.081 203.119 139.377V115.55C203.119 114.846 202.547 114.274 201.843 114.274H198.03Z" fill="#80C966"/>
<path d="M181.476 144.906H177.662C174.612 144.906 172.133 142.424 172.133 139.377V132.773C172.133 129.722 174.615 127.243 177.662 127.243H181.476C184.527 127.243 187.005 129.726 187.005 132.773V139.377C187.005 142.427 184.523 144.906 181.476 144.906ZM177.662 131.497C176.958 131.497 176.386 132.069 176.386 132.773V139.377C176.386 140.081 176.958 140.653 177.662 140.653H181.476C182.18 140.653 182.752 140.081 182.752 139.377V132.773C182.752 132.069 182.18 131.497 181.476 131.497H177.662Z" fill="#80C966"/>
</g>
<g filter="url(#filter0_d_26291_9899)">
<path d="M60.9687 65.1H76.6287V68.772H71.0667V84H66.5307V68.772H60.9687V65.1ZM82.7317 84.432C78.6817 84.432 75.6037 81.678 75.6037 77.358C75.6037 73.038 78.6817 70.284 82.7317 70.284C86.7817 70.284 89.8597 73.038 89.8597 77.358C89.8597 81.678 86.7817 84.432 82.7317 84.432ZM82.7317 80.922C84.4867 80.922 85.3777 79.248 85.3777 77.358C85.3777 75.468 84.4867 73.794 82.7317 73.794C80.9767 73.794 80.0857 75.468 80.0857 77.358C80.0857 79.248 80.9767 80.922 82.7317 80.922ZM101.356 70.392V64.452H105.676V84H101.356L101.761 80.706C100.789 82.893 99.2773 84.432 96.9553 84.432C93.8503 84.432 91.9063 81.867 91.9063 78.168C91.9063 74.172 94.2283 70.284 99.7363 70.284C100.303 70.284 100.843 70.311 101.356 70.392ZM98.3053 80.976C100.357 80.976 101.086 77.331 101.302 73.929C100.843 73.74 100.33 73.578 99.6823 73.578C96.8743 73.578 96.3883 76.467 96.3883 78.033C96.3883 80.409 97.3333 80.976 98.3053 80.976ZM115.322 84.432C111.272 84.432 108.194 81.678 108.194 77.358C108.194 73.038 111.272 70.284 115.322 70.284C119.372 70.284 122.45 73.038 122.45 77.358C122.45 81.678 119.372 84.432 115.322 84.432ZM115.322 80.922C117.077 80.922 117.968 79.248 117.968 77.358C117.968 75.468 117.077 73.794 115.322 73.794C113.567 73.794 112.676 75.468 112.676 77.358C112.676 79.248 113.567 80.922 115.322 80.922ZM129.788 84.432C126.926 84.432 124.766 83.433 123.929 82.974L125.495 79.842C126.305 80.274 127.763 80.949 129.572 80.949C130.733 80.949 131.327 80.679 131.327 80.139C131.327 78.303 124.604 79.626 124.604 74.631C124.604 71.445 127.547 70.284 130.328 70.284C132.569 70.284 134.594 71.013 135.539 71.58L134.081 74.577C133.244 74.118 131.975 73.794 130.76 73.794C129.95 73.794 128.924 73.929 128.924 74.658C128.924 76.44 135.647 75.144 135.647 79.842C135.647 83.001 133.163 84.432 129.788 84.432ZM151.814 84.432C147.764 84.432 144.686 81.678 144.686 77.358C144.686 73.038 147.764 70.284 151.814 70.284C155.864 70.284 158.942 73.038 158.942 77.358C158.942 81.678 155.864 84.432 151.814 84.432ZM151.814 80.922C153.569 80.922 154.46 79.248 154.46 77.358C154.46 75.468 153.569 73.794 151.814 73.794C150.059 73.794 149.168 75.468 149.168 77.358C149.168 79.248 150.059 80.922 151.814 80.922ZM166.28 84.432C163.418 84.432 161.258 83.433 160.421 82.974L161.987 79.842C162.797 80.274 164.255 80.949 166.064 80.949C167.225 80.949 167.819 80.679 167.819 80.139C167.819 78.303 161.096 79.626 161.096 74.631C161.096 71.445 164.039 70.284 166.82 70.284C169.061 70.284 171.086 71.013 172.031 71.58L170.573 74.577C169.736 74.118 168.467 73.794 167.252 73.794C166.442 73.794 165.416 73.929 165.416 74.658C165.416 76.44 172.139 75.144 172.139 79.842C172.139 83.001 169.655 84.432 166.28 84.432ZM53.7337 108H49.5757L50.6287 89.1H54.0577L59.8087 99.576L65.5867 89.1H68.9887L70.0417 108H65.8837L65.3437 98.199L61.2127 105.246H58.3777L54.2737 98.199L53.7337 108ZM79.8577 108.432C75.8077 108.432 72.7297 105.678 72.7297 101.358C72.7297 97.038 75.8077 94.284 79.8577 94.284C83.9077 94.284 86.9857 97.038 86.9857 101.358C86.9857 105.678 83.9077 108.432 79.8577 108.432ZM79.8577 104.922C81.6127 104.922 82.5037 103.248 82.5037 101.358C82.5037 99.468 81.6127 97.794 79.8577 97.794C78.1027 97.794 77.2117 99.468 77.2117 101.358C77.2117 103.248 78.1027 104.922 79.8577 104.922ZM106.744 94.284C109.552 94.284 111.118 96.282 111.118 99.522V108H106.798V100.737C106.798 99.711 106.798 98.01 105.34 98.01C102.64 98.01 102.532 103.815 102.532 108H98.2122V100.737C98.2122 99.711 98.2122 98.01 96.7542 98.01C94.0542 98.01 93.9462 103.815 93.9462 108H89.6262V94.716H93.9462L93.5952 97.47C94.5132 95.553 95.9442 94.284 98.1582 94.284C100.264 94.284 101.668 95.418 102.235 97.362C103.153 95.499 104.584 94.284 106.744 94.284ZM121.268 105.03C122.51 105.03 123.617 104.571 124.292 104.166L125.885 106.947C124.832 107.649 123.293 108.432 120.917 108.432C116.381 108.432 113.546 105.597 113.546 101.277C113.546 96.849 116.462 94.284 120.323 94.284C123.671 94.284 126.236 96.282 126.236 99.765C126.236 100.737 126.02 101.547 125.858 102.006L117.947 102.924C118.433 104.139 119.513 105.03 121.268 105.03ZM120.62 97.605C119 97.605 117.974 98.766 117.731 100.332L122.321 99.765C122.402 99.522 122.402 99.225 122.402 99.09C122.402 98.064 121.592 97.605 120.62 97.605ZM137.901 94.284C140.844 94.284 142.491 96.282 142.491 99.522V108H138.171V100.737C138.171 99.873 138.171 98.01 136.524 98.01C133.527 98.01 133.365 103.761 133.365 108H129.045V94.716H133.365L132.987 97.686C133.959 95.634 135.471 94.284 137.901 94.284ZM152.456 108.432C148.865 108.432 147.137 106.245 147.137 103.005V98.118H144.761V94.716H145.004C147.623 94.716 147.839 94.122 148.298 91.8L148.568 90.45H151.457V94.716H155.129V98.118H151.457V102.249C151.457 103.815 152.024 104.706 153.482 104.706C153.995 104.706 154.427 104.598 154.778 104.463L155.642 107.865C154.967 108.108 153.806 108.432 152.456 108.432ZM164.233 108.432C160.183 108.432 157.105 105.678 157.105 101.358C157.105 97.038 160.183 94.284 164.233 94.284C168.283 94.284 171.361 97.038 171.361 101.358C171.361 105.678 168.283 108.432 164.233 108.432ZM164.233 104.922C165.988 104.922 166.879 103.248 166.879 101.358C166.879 99.468 165.988 97.794 164.233 97.794C162.478 97.794 161.587 99.468 161.587 101.358C161.587 103.248 162.478 104.922 164.233 104.922ZM178.699 108.432C175.837 108.432 173.677 107.433 172.84 106.974L174.406 103.842C175.216 104.274 176.674 104.949 178.483 104.949C179.644 104.949 180.238 104.679 180.238 104.139C180.238 102.303 173.515 103.626 173.515 98.631C173.515 95.445 176.458 94.284 179.239 94.284C181.48 94.284 183.505 95.013 184.45 95.58L182.992 98.577C182.155 98.118 180.886 97.794 179.671 97.794C178.861 97.794 177.835 97.929 177.835 98.658C177.835 100.44 184.558 99.144 184.558 103.842C184.558 107.001 182.074 108.432 178.699 108.432Z" fill="white"/>
</g>
</g>
</g>
<defs>
<filter id="filter0_d_26291_9899" x="46.2781" y="61.9798" width="141.577" height="50.5722" filterUnits="userSpaceOnUse" color-interpolation-filters="sRGB">
<feFlood flood-opacity="0" result="BackgroundImageFix"/>
<feColorMatrix in="SourceAlpha" type="matrix" values="0 0 0 0 0 0 0 0 0 0 0 0 0 0 0 0 0 0 127 0" result="hardAlpha"/>
<feOffset dy="0.824025"/>
<feGaussianBlur stdDeviation="1.64805"/>
<feColorMatrix type="matrix" values="0 0 0 0 0.0784314 0 0 0 0 0.180392 0 0 0 0 0.321569 0 0 0 0.35 0"/>
<feBlend mode="normal" in2="BackgroundImageFix" result="effect1_dropShadow_26291_9899"/>
<feBlend mode="normal" in="SourceGraphic" in2="effect1_dropShadow_26291_9899" result="shape"/>
</filter>
<clipPath id="clip0_26291_9899">
<rect x="0.597656" width="232" height="171" rx="8" fill="white"/>
</clipPath>
</defs>
</svg>
