<svg width="576" height="132" viewBox="0 0 576 132" fill="none" xmlns="http://www.w3.org/2000/svg">
<path d="M575.845 67.842C575.802 67.2483 575.732 66.6404 575.689 66.0891C575.604 65.4953 575.534 64.9298 575.449 64.3785C575.293 63.2617 575.096 62.1449 574.855 61.1129C572.947 62.5549 570.544 63.389 567.957 63.389H566.642C561.779 63.389 557.594 60.4061 555.884 56.1792C555.361 54.8221 555.05 53.3943 555.05 51.8393C555.05 48.6444 556.364 45.7463 558.443 43.6258C559.206 42.9049 560.04 42.2687 560.959 41.7457C554.696 38.1973 546.681 36.4444 536.926 36.4444C524.175 36.4444 514.011 39.512 506.434 45.6191C499.224 51.4434 495.266 59.0914 494.601 68.7044C494.559 69.2557 494.516 69.7787 494.474 70.3442H517.8V69.4677C517.8 68.9447 517.842 68.4358 517.884 67.9127C518.167 64.2796 519.835 61.2543 522.79 58.8652C526.098 56.151 530.72 54.8362 536.587 54.8362C542.454 54.8362 546.794 55.8258 549.579 57.9039C552.406 59.9396 553.806 62.4135 553.806 65.354V66.7959C553.41 68.5913 551.968 69.906 549.494 70.8249C546.978 71.7014 542.355 72.7758 535.626 74.0481C533.081 74.5711 530.522 75.08 527.978 75.6031C519.92 77.356 513.474 79.2362 508.639 81.1447C503.776 83.0531 499.902 85.8522 496.962 89.556C495.124 91.8745 493.852 94.7442 493.173 98.1229C492.891 99.5224 492.735 100.95 492.65 102.505C492.608 103.269 492.565 104.06 492.565 104.852C492.565 105.728 492.608 106.562 492.679 107.397C493.315 113.899 496.114 119.243 501.047 123.498C506.745 128.361 514.364 130.75 523.935 130.75C530.706 130.75 536.615 129.521 541.634 127.047C546.653 124.53 550.639 120.954 553.594 116.246V128.489H576V71.7579C576 70.4008 575.958 69.1285 575.887 67.8562L575.845 67.842ZM553.763 91.6482C553.367 99.2962 550.851 104.965 546.186 108.669C541.521 112.373 535.894 114.21 529.25 114.21C525.306 114.21 522.154 113.221 519.807 111.256C517.658 109.461 516.499 107.227 516.301 104.513C516.259 104.23 516.259 103.961 516.259 103.679C516.259 103.198 516.301 102.76 516.343 102.321C516.541 99.1266 517.898 96.6951 520.372 94.9845C523.129 93.0761 527.186 91.3514 532.53 89.7963C534.043 89.4429 535.64 89.0329 537.308 88.6371C541.252 87.7606 544.49 86.9266 546.949 86.1632C549.466 85.3998 551.728 84.4951 553.763 83.4914V91.62V91.6482Z" fill="black"/>
<path d="M65.2409 93.7547C63.6859 99.6215 61.4099 103.961 58.3422 106.831C55.2746 109.701 50.7225 111.143 44.7427 111.143C38.0843 111.143 32.9385 108.669 29.2347 103.693C25.5309 98.7167 23.6931 92.1714 23.6931 84.0004V83.237C23.6931 75.066 25.644 68.4924 29.5174 63.5021C33.4192 58.526 38.6922 56.0521 45.3082 56.0521C50.6942 56.0521 54.8363 57.4092 57.7485 60.1517C60.703 62.9084 62.8518 66.9656 64.2514 72.3093L86.4601 65.4106C83.3925 56.4762 78.4446 49.4644 71.6307 44.361C64.8168 39.2577 56.1227 36.7131 45.5202 36.7131C36.713 36.7131 28.853 38.7487 21.8836 42.7353C14.9425 46.7642 9.57055 52.3059 5.7395 59.4025C1.90845 66.4991 0 74.4722 0 83.4066C0 92.341 1.79536 100.95 5.45677 108.005C9.08991 115.101 14.3063 120.6 21.1202 124.544C27.9341 128.531 35.9496 130.482 45.1526 130.482C55.9531 130.482 64.9299 127.852 72.0266 122.551C79.0808 117.25 84.2265 109.828 87.4214 100.272L65.2551 93.7688L65.2409 93.7547Z" fill="black"/>
<path d="M164.141 45.3223C157.37 39.5828 147.757 36.7131 135.246 36.7131C122.735 36.7131 112.33 39.7807 104.753 45.916C97.1332 52.009 93.1466 60.2648 92.7932 70.5988H116.119V69.4396C116.119 65.2127 117.787 61.7916 121.095 59.1198C124.403 56.4479 128.983 55.0908 134.892 55.0908C140.802 55.0908 145.099 56.1228 147.884 58.1584C150.669 60.1941 152.111 62.6681 152.111 65.6085V66.7677C151.715 68.5631 150.273 69.8778 147.799 70.7967C145.283 71.6731 140.66 72.7475 133.931 74.0198C131.386 74.5429 128.828 75.0518 126.283 75.5749C118.225 77.3278 111.765 79.208 106.944 81.1165C102.081 83.025 98.2076 85.824 95.2672 89.5278C92.3126 93.2316 90.8848 98.335 90.8848 104.838C90.8848 112.613 93.7121 118.946 99.3809 123.767C105.078 128.63 112.698 131.061 122.268 131.061C129.012 131.061 134.906 129.789 139.967 127.315C144.986 124.841 148.973 121.222 151.927 116.515V128.757H174.291V71.7439C174.291 59.869 170.941 51.0477 164.169 45.3082L164.141 45.3223ZM152.111 91.6483C151.715 99.2963 149.199 104.965 144.534 108.669C139.868 112.373 134.242 114.211 127.598 114.211C123.654 114.211 120.501 113.221 118.155 111.256C115.765 109.263 114.606 106.746 114.606 103.679C114.606 99.9749 115.963 97.1758 118.706 95.2673C121.462 93.3589 125.52 91.6342 130.863 90.0792C132.376 89.7258 133.973 89.3158 135.642 88.9624C139.586 88.0435 142.823 87.2094 145.283 86.446C147.799 85.6826 150.033 84.8061 152.097 83.7742V91.6342L152.111 91.6483Z" fill="black"/>
<path d="M235.15 57.3951V38.4236H217.168V8.41138L194.366 21.2051V38.4236H181.374V57.3951H194.366V104.838C194.366 110.182 195.002 114.606 196.203 118.027C197.405 121.491 199.596 124.12 202.706 125.958C205.859 127.838 210.199 128.743 215.825 128.743H234.401V109.051H223.671C221.353 109.051 219.727 108.528 218.695 107.496C217.663 106.506 217.182 104.824 217.182 102.52V57.3951H235.164H235.15Z" fill="black"/>
<path d="M314.358 45.3223C307.587 39.5828 297.974 36.7131 285.463 36.7131C272.952 36.7131 262.547 39.7807 254.97 45.916C247.35 52.009 243.363 60.2648 243.01 70.5988H266.336V69.4396C266.336 65.2127 268.004 61.7916 271.312 59.1198C274.62 56.4479 279.2 55.0908 285.109 55.0908C291.018 55.0908 295.316 56.1228 298.101 58.1584C300.886 60.1941 302.328 62.6681 302.328 65.6085V66.7677C301.932 68.5631 300.49 69.8778 298.016 70.7967C295.5 71.6731 290.877 72.7475 284.148 74.0198C281.603 74.5429 279.044 75.0518 276.5 75.5749C268.442 77.3278 261.996 79.208 257.161 81.1165C252.298 83.025 248.424 85.824 245.484 89.5278C242.529 93.2316 241.102 98.335 241.102 104.838C241.102 112.613 243.929 118.946 249.598 123.767C255.295 128.63 262.914 131.061 272.485 131.061C279.228 131.061 285.123 129.789 290.184 127.315C295.203 124.841 299.189 121.222 302.144 116.515V128.757H324.508V71.7439C324.508 59.869 321.158 51.0477 314.386 45.3082L314.358 45.3223ZM302.314 91.6483C301.918 99.2963 299.401 104.965 294.736 108.669C290.071 112.373 284.445 114.211 277.8 114.211C273.856 114.211 270.704 113.221 268.357 111.256C265.968 109.263 264.809 106.746 264.809 103.679C264.809 99.9749 266.166 97.1758 268.908 95.2673C271.665 93.3589 275.68 91.6342 281.066 90.0792C282.579 89.7258 284.176 89.3158 285.844 88.9624C289.788 88.0435 293.026 87.2094 295.486 86.446C298.002 85.6826 300.235 84.8061 302.299 83.7742V91.6342L302.314 91.6483Z" fill="black"/>
<path d="M337.881 0V128.771H361.645V0H337.881Z" fill="black"/>
<path d="M400.069 38.4377H376.348V128.757H400.069V38.4377Z" fill="black"/>
<path d="M482.542 87.3367C479.347 83.7035 475.333 80.8338 470.498 78.8122C465.635 76.7765 459.895 75.1791 453.279 74.034C449.816 73.2706 446.31 72.5638 442.748 71.9277C438.803 70.9381 436.047 69.8495 434.619 68.7752C433.149 67.7008 432.428 66.0609 432.428 63.9121C432.428 61.0848 433.658 58.8512 436.132 57.2113C438.648 55.5432 441.956 54.695 446.183 54.695C450.65 54.695 454.75 55.6563 458.538 57.5648C462.284 59.4732 465.395 62.3147 467.826 66.0185L486.557 56.25C481.977 49.9874 476.195 45.1244 469.254 41.6185C462.284 38.1126 454.467 36.3597 445.815 36.3597C439.157 36.3597 433.092 37.632 427.635 40.2614C422.136 42.8908 417.824 46.3967 414.714 50.7791C411.562 55.1615 410.007 60.1094 410.007 65.6085C410.007 71.1077 411.449 75.9001 414.319 79.5615C417.188 83.2653 420.892 86.0926 425.402 88.0859C429.94 90.0792 435.283 91.6342 441.39 92.7934L446.366 93.9102C452.982 95.1825 457.69 96.4266 460.447 97.5716C463.203 98.6884 464.546 100.597 464.546 103.311C464.546 106.336 463.345 108.74 460.913 110.365C458.482 112.034 455.174 112.882 450.947 112.882C446.366 112.882 442.055 111.892 438.026 109.899C433.997 107.948 430.731 105.234 428.173 101.77L409.441 112.288C413.866 118.155 419.648 122.806 426.66 126.283C433.629 129.719 441.574 131.429 450.381 131.429C457.393 131.429 463.698 130.114 469.31 127.527C474.937 124.898 479.319 121.35 482.5 116.798C485.695 112.26 487.278 107.185 487.278 101.572C487.278 95.9601 485.681 90.9698 482.5 87.3367H482.542Z" fill="black"/>
</svg>
