<svg width="141" height="32" viewBox="0 0 141 32" fill="none" xmlns="http://www.w3.org/2000/svg">
<path d="M140.097 16.5054C140.087 16.361 140.07 16.2131 140.059 16.079C140.039 15.9345 140.021 15.7969 140.001 15.6628C139.963 15.3911 139.915 15.1194 139.856 14.8683C139.392 15.2191 138.807 15.4221 138.178 15.4221H137.858C136.675 15.4221 135.657 14.6964 135.241 13.668C135.113 13.3378 135.038 12.9904 135.038 12.6121C135.038 11.8348 135.358 11.1298 135.863 10.6139C136.049 10.4385 136.252 10.2837 136.475 10.1564C134.952 9.29318 133.002 8.8667 130.629 8.8667C127.526 8.8667 125.053 9.61303 123.21 11.0988C121.456 12.5158 120.493 14.3765 120.331 16.7152C120.321 16.8494 120.311 16.9766 120.3 17.1142H125.975V16.901C125.975 16.7737 125.985 16.6499 125.996 16.5226C126.065 15.6387 126.47 14.9027 127.189 14.3215C127.994 13.6611 129.119 13.3413 130.546 13.3413C131.973 13.3413 133.029 13.582 133.707 14.0876C134.395 14.5829 134.735 15.1847 134.735 15.9001V16.2509C134.639 16.6877 134.288 17.0076 133.686 17.2311C133.074 17.4444 131.949 17.7058 130.312 18.0153C129.693 18.1426 129.071 18.2664 128.451 18.3936C126.491 18.8201 124.923 19.2775 123.746 19.7419C122.563 20.2062 121.621 20.8872 120.906 21.7883C120.458 22.3523 120.149 23.0505 119.984 23.8725C119.915 24.213 119.877 24.5603 119.857 24.9387C119.846 25.1244 119.836 25.317 119.836 25.5096C119.836 25.7228 119.846 25.9258 119.863 26.1287C120.018 27.7108 120.699 29.0108 121.9 30.0461C123.286 31.2292 125.139 31.8105 127.468 31.8105C129.115 31.8105 130.553 31.5112 131.774 30.9094C132.995 30.2972 133.965 29.427 134.684 28.2817V31.2602H140.135V17.4581C140.135 17.128 140.125 16.8184 140.107 16.5089L140.097 16.5054ZM134.725 22.2973C134.629 24.1579 134.016 25.5371 132.881 26.4382C131.746 27.3393 130.377 27.7864 128.761 27.7864C127.801 27.7864 127.034 27.5457 126.464 27.0676C125.941 26.6308 125.659 26.0874 125.611 25.4271C125.6 25.3583 125.6 25.2929 125.6 25.2241C125.6 25.1072 125.611 25.0006 125.621 24.894C125.669 24.1167 125.999 23.5251 126.601 23.109C127.272 22.6446 128.259 22.225 129.559 21.8467C129.927 21.7607 130.316 21.661 130.721 21.5647C131.681 21.3515 132.469 21.1485 133.067 20.9628C133.679 20.7771 134.23 20.557 134.725 20.3128V22.2904V22.2973Z" fill="white"/>
<path d="M15.8725 22.8096C15.4942 24.2369 14.9404 25.2928 14.1941 25.991C13.4478 26.6891 12.3403 27.0399 10.8855 27.0399C9.26555 27.0399 8.01363 26.4381 7.11253 25.2274C6.21142 24.0168 5.76431 22.4244 5.76431 20.4364V20.2507C5.76431 18.2628 6.23894 16.6635 7.18131 15.4494C8.13057 14.2388 9.41344 13.6369 11.023 13.6369C12.3334 13.6369 13.3412 13.9671 14.0497 14.6343C14.7685 15.305 15.2913 16.292 15.6317 17.5921L21.0349 15.9137C20.2886 13.7401 19.0848 12.0342 17.4271 10.7926C15.7693 9.55097 13.6541 8.93188 11.0746 8.93188C8.93193 8.93188 7.01967 9.42714 5.32408 10.397C3.63537 11.3772 2.32842 12.7255 1.39637 14.452C0.464308 16.1785 0 18.1183 0 20.292C0 22.4656 0.436795 24.5602 1.32758 26.2764C2.21149 28.003 3.4806 29.3409 5.13835 30.3004C6.79611 31.2703 8.74621 31.7449 10.9852 31.7449C13.6129 31.7449 15.7968 31.1052 17.5234 29.8155C19.2396 28.5257 20.4915 26.7201 21.2688 24.3951L15.8759 22.813L15.8725 22.8096Z" fill="white"/>
<path d="M39.9339 11.0264C38.2865 9.63007 35.9477 8.93188 32.9039 8.93188C29.8601 8.93188 27.3288 9.67821 25.4853 11.1709C23.6315 12.6532 22.6616 14.6618 22.5756 17.176H28.2505V16.8939C28.2505 15.8656 28.6564 15.0333 29.4612 14.3832C30.266 13.7332 31.3803 13.403 32.818 13.403C34.2556 13.403 35.3012 13.6541 35.9787 14.1493C36.6562 14.6446 37.0071 15.2465 37.0071 15.9619V16.2439C36.9108 16.6807 36.5599 17.0005 35.9581 17.2241C35.3459 17.4373 34.2212 17.6987 32.5841 18.0083C31.965 18.1355 31.3425 18.2593 30.7234 18.3866C28.763 18.8131 27.1912 19.2705 26.0184 19.7348C24.8353 20.1991 23.8929 20.8801 23.1775 21.7812C22.4587 22.6823 22.1113 23.9239 22.1113 25.506C22.1113 27.3976 22.7992 28.9385 24.1784 30.1113C25.5644 31.2944 27.4182 31.886 29.7466 31.886C31.3872 31.886 32.8214 31.5764 34.0527 30.9745C35.2736 30.3727 36.2435 29.4922 36.9623 28.3469V31.3253H42.4034V17.4545C42.4034 14.5655 41.5882 12.4194 39.9408 11.023L39.9339 11.0264ZM37.0071 22.2971C36.9108 24.1578 36.2986 25.537 35.1636 26.4381C34.0286 27.3392 32.6597 27.7863 31.0433 27.7863C30.0837 27.7863 29.3167 27.5455 28.7458 27.0675C28.1645 26.5825 27.8825 25.9703 27.8825 25.224C27.8825 24.3229 28.2127 23.6419 28.8799 23.1776C29.5506 22.7133 30.5377 22.2937 31.8377 21.9153C32.2058 21.8294 32.5944 21.7296 33.0002 21.6436C33.9598 21.4201 34.7474 21.2172 35.3459 21.0314C35.9581 20.8457 36.5015 20.6325 37.0036 20.3814V22.2937L37.0071 22.2971Z" fill="white"/>
<path d="M57.2102 13.9637V9.34809H52.8353V2.04639L47.2877 5.15899V9.34809H44.127V13.9637H47.2877V25.5061C47.2877 26.8061 47.4425 27.8826 47.7348 28.7149C48.0271 29.5576 48.5602 30.1973 49.3169 30.6444C50.0839 31.1018 51.1397 31.322 52.5086 31.322H57.0279V26.531H54.4174C53.8534 26.531 53.4578 26.4037 53.2068 26.1526C52.9557 25.9119 52.8388 25.5026 52.8388 24.942V13.9637H57.2136H57.2102Z" fill="white"/>
<path d="M76.4798 11.0264C74.8324 9.63007 72.4936 8.93188 69.4498 8.93188C66.406 8.93188 63.8747 9.67821 62.0312 11.1709C60.1774 12.6532 59.2075 14.6618 59.1215 17.176H64.7964V16.8939C64.7964 15.8656 65.2023 15.0333 66.0071 14.3832C66.8119 13.7332 67.9262 13.403 69.3639 13.403C70.8015 13.403 71.847 13.6541 72.5246 14.1493C73.2021 14.6446 73.553 15.2465 73.553 15.9619V16.2439C73.4567 16.6807 73.1058 17.0005 72.504 17.2241C71.8918 17.4373 70.7671 17.6987 69.13 18.0083C68.5109 18.1355 67.8884 18.2593 67.2693 18.3866C65.3089 18.8131 63.7405 19.2705 62.5643 19.7348C61.3812 20.1991 60.4388 20.8801 59.7234 21.7812C59.0046 22.6823 58.6572 23.9239 58.6572 25.506C58.6572 27.3976 59.3451 28.9385 60.7243 30.1113C62.1103 31.2944 63.9641 31.886 66.2925 31.886C67.9331 31.886 69.3673 31.5764 70.5986 30.9745C71.8195 30.3727 72.7894 29.4922 73.5082 28.3469V31.3253H78.9493V17.4545C78.9493 14.5655 78.1341 12.4194 76.4867 11.023L76.4798 11.0264ZM73.5495 22.2971C73.4532 24.1578 72.841 25.537 71.706 26.4381C70.5711 27.3392 69.2022 27.7863 67.5857 27.7863C66.6261 27.7863 65.8592 27.5455 65.2883 27.0675C64.707 26.5825 64.425 25.9703 64.425 25.224C64.425 24.3229 64.7551 23.6419 65.4224 23.1776C66.093 22.7133 67.0698 22.2937 68.3802 21.9153C68.7482 21.8294 69.1369 21.7296 69.5427 21.6436C70.5023 21.4201 71.2899 21.2172 71.8883 21.0314C72.5005 20.8457 73.0439 20.6325 73.5461 20.3814V22.2937L73.5495 22.2971Z" fill="white"/>
<path d="M82.2031 0V31.3288H87.9846V0H82.2031Z" fill="white"/>
<path d="M97.3327 9.35156H91.5615V31.3254H97.3327V9.35156Z" fill="white"/>
<path d="M117.398 21.2482C116.621 20.3643 115.644 19.6661 114.468 19.1742C113.285 18.679 111.888 18.2903 110.279 18.0118C109.436 17.826 108.583 17.6541 107.716 17.4993C106.757 17.2585 106.086 16.9937 105.739 16.7323C105.381 16.4709 105.206 16.072 105.206 15.5492C105.206 14.8613 105.505 14.3179 106.107 13.919C106.719 13.5131 107.524 13.3068 108.552 13.3068C109.639 13.3068 110.636 13.5406 111.558 14.0049C112.469 14.4692 113.226 15.1605 113.818 16.0617L118.375 13.6851C117.26 12.1615 115.854 10.9783 114.165 10.1254C112.469 9.27242 110.568 8.84595 108.463 8.84595C106.843 8.84595 105.367 9.15548 104.04 9.79519C102.702 10.4349 101.653 11.2879 100.896 12.3541C100.129 13.4202 99.7509 14.624 99.7509 15.9619C99.7509 17.2998 100.102 18.4657 100.8 19.3565C101.498 20.2576 102.399 20.9455 103.496 21.4304C104.6 21.9154 105.9 22.2937 107.386 22.5757L108.597 22.8475C110.206 23.157 111.352 23.4596 112.022 23.7382C112.693 24.0099 113.02 24.4743 113.02 25.1346C113.02 25.8706 112.727 26.4553 112.136 26.8508C111.544 27.2567 110.74 27.463 109.711 27.463C108.597 27.463 107.548 27.2223 106.568 26.7373C105.587 26.2627 104.793 25.6024 104.17 24.7597L99.6133 27.3186C100.69 28.7459 102.096 29.8774 103.802 30.7235C105.498 31.5593 107.431 31.9754 109.574 31.9754C111.279 31.9754 112.813 31.6556 114.179 31.0262C115.548 30.3865 116.614 29.5232 117.388 28.4157C118.165 27.3117 118.55 26.077 118.55 24.7116C118.55 23.3462 118.162 22.1321 117.388 21.2482H117.398Z" fill="white"/>
<ellipse cx="94.397" cy="2.91949" rx="2.91949" ry="2.91949" fill="#0000FF"/>
</svg>
