<svg width="45" height="45" viewBox="0 0 45 45" fill="none" xmlns="http://www.w3.org/2000/svg">
<path d="M7.25 31.0833L18.0833 24.5833M26.75 20.25L37.5833 13.75M22.4167 7.25V18.0833M22.4167 26.75V37.5833M7.25 13.75L18.0833 20.25M26.75 24.5833L37.5833 31.0833M40.8333 15.9167V27.8333M25.6667 40.8333L37.5833 34.3333M6.16667 34.3333L19.1667 40.8333M4 28.9167V15.9167M6.16667 10.5L19.1667 4M38.6667 10.5L25.6667 4" stroke="black" stroke-width="1.5" stroke-linejoin="round"/>
<path d="M22.417 7.25C24.2119 7.25 25.667 5.79493 25.667 4C25.667 2.20507 24.2119 0.75 22.417 0.75C20.6221 0.75 19.167 2.20507 19.167 4C19.167 5.79493 20.6221 7.25 22.417 7.25Z" stroke="black" stroke-width="1.5" stroke-linejoin="round"/>
<path d="M22.417 44.0833C24.2119 44.0833 25.667 42.6283 25.667 40.8333C25.667 39.0384 24.2119 37.5833 22.417 37.5833C20.6221 37.5833 19.167 39.0384 19.167 40.8333C19.167 42.6283 20.6221 44.0833 22.417 44.0833Z" stroke="black" stroke-width="1.5" stroke-linejoin="round"/>
<path d="M4 15.9167C5.79493 15.9167 7.25 14.4616 7.25 12.6667C7.25 10.8717 5.79493 9.41666 4 9.41666C2.20507 9.41666 0.75 10.8717 0.75 12.6667C0.75 14.4616 2.20507 15.9167 4 15.9167Z" stroke="black" stroke-width="1.5" stroke-linejoin="round"/>
<path d="M40.833 15.9167C42.6279 15.9167 44.083 14.4616 44.083 12.6667C44.083 10.8717 42.6279 9.41666 40.833 9.41666C39.0381 9.41666 37.583 10.8717 37.583 12.6667C37.583 14.4616 39.0381 15.9167 40.833 15.9167Z" stroke="black" stroke-width="1.5" stroke-linejoin="round"/>
<path d="M40.833 35.4167C42.6279 35.4167 44.083 33.9616 44.083 32.1667C44.083 30.3717 42.6279 28.9167 40.833 28.9167C39.0381 28.9167 37.583 30.3717 37.583 32.1667C37.583 33.9616 39.0381 35.4167 40.833 35.4167Z" stroke="black" stroke-width="1.5" stroke-linejoin="round"/>
<path d="M4 35.4167C5.79493 35.4167 7.25 33.9616 7.25 32.1667C7.25 30.3717 5.79493 28.9167 4 28.9167C2.20507 28.9167 0.75 30.3717 0.75 32.1667C0.75 33.9616 2.20507 35.4167 4 35.4167Z" stroke="black" stroke-width="1.5" stroke-linejoin="round"/>
<path d="M22.4163 17.5417L26.7497 19.9792V24.8542L22.4163 27.2917L18.083 24.8542V19.9792L22.4163 17.5417Z" stroke="black" stroke-width="1.5" stroke-linejoin="round"/>
</svg>
