<svg width="430" height="66" viewBox="0 0 430 66" fill="none" xmlns="http://www.w3.org/2000/svg">
<circle cx="417.5" cy="12" r="12" fill="#0000FF"/>
<path d="M3.36084 9.84H12.7208L31.8308 39.285V9.84H39.6308V53.065H31.7658L11.1608 21.41V53H3.36084V9.84ZM59.7367 53.585C56.7033 53.585 53.995 52.9133 51.6117 51.57C49.2283 50.2267 47.365 48.3633 46.0217 45.98C44.7217 43.5967 44.0717 40.845 44.0717 37.725C44.0717 34.605 44.7433 31.8533 46.0867 29.47C47.43 27.0433 49.2933 25.1583 51.6767 23.815C54.06 22.4283 56.79 21.735 59.8667 21.735C62.9 21.735 65.6083 22.4283 67.9917 23.815C70.4183 25.1583 72.2817 27.0433 73.5817 29.47C74.925 31.8533 75.5967 34.605 75.5967 37.725C75.5967 40.7583 74.925 43.4883 73.5817 45.915C72.2383 48.2983 70.3533 50.1833 67.9267 51.57C65.5 52.9133 62.77 53.585 59.7367 53.585ZM59.7367 47.02C62.12 47.02 64.005 46.24 65.3917 44.68C66.7783 43.0767 67.4717 40.8233 67.4717 37.92V37.66C67.4717 34.7133 66.7783 32.4167 65.3917 30.77C64.0483 29.08 62.2067 28.235 59.8667 28.235C57.4833 28.235 55.5983 29.08 54.2117 30.77C52.8683 32.4167 52.1967 34.7133 52.1967 37.66V37.92C52.1967 40.8233 52.8467 43.0767 54.1467 44.68C55.49 46.24 57.3533 47.02 59.7367 47.02ZM91.8721 53.91C88.8821 53.91 86.1954 53.325 83.8121 52.155C81.4287 50.985 79.4787 49.4033 77.9621 47.41L84.3321 43.835C85.1987 45.005 86.3037 45.9367 87.6471 46.63C89.0337 47.28 90.5071 47.605 92.0671 47.605C93.4971 47.605 94.6237 47.3233 95.4471 46.76C96.2704 46.1967 96.6821 45.395 96.6821 44.355C96.6821 43.445 96.2054 42.795 95.2521 42.405C94.3421 42.015 92.7604 41.6033 90.5071 41.17L88.8171 40.78C86.7371 40.39 84.9171 39.87 83.3571 39.22C81.8404 38.5267 80.5837 37.5517 79.5871 36.295C78.6337 35.0383 78.1571 33.4567 78.1571 31.55C78.1571 29.6867 78.6771 28.0183 79.7171 26.545C80.8004 25.0283 82.2737 23.8367 84.1371 22.97C86.0004 22.06 88.0587 21.605 90.3121 21.605C93.2587 21.605 95.9021 22.2117 98.2421 23.425C100.625 24.595 102.597 26.2417 104.157 28.365L97.7871 31.68C96.9637 30.4233 95.9021 29.47 94.6021 28.82C93.3454 28.17 91.9587 27.845 90.4421 27.845C89.0121 27.845 87.8637 28.1267 86.9971 28.69C86.1737 29.2533 85.7621 30.0117 85.7621 30.965C85.7621 31.7017 86.0004 32.265 86.4771 32.655C86.9971 33.0017 87.9287 33.3483 89.2721 33.695C90.4854 33.9117 91.6771 34.15 92.8471 34.41C93.1937 34.4533 93.5404 34.5183 93.8871 34.605C95.9237 35.0383 97.7004 35.6017 99.2171 36.295C100.777 36.9883 102.034 37.9417 102.987 39.155C103.94 40.3683 104.417 41.9067 104.417 43.77C104.417 45.6767 103.875 47.41 102.792 48.97C101.709 50.4867 100.214 51.7 98.3071 52.61C96.4004 53.4767 94.2554 53.91 91.8721 53.91ZM120.119 53.91C117.129 53.91 114.442 53.325 112.059 52.155C109.676 50.985 107.726 49.4033 106.209 47.41L112.579 43.835C113.446 45.005 114.551 45.9367 115.894 46.63C117.281 47.28 118.754 47.605 120.314 47.605C121.744 47.605 122.871 47.3233 123.694 46.76C124.517 46.1967 124.929 45.395 124.929 44.355C124.929 43.445 124.452 42.795 123.499 42.405C122.589 42.015 121.007 41.6033 118.754 41.17L117.064 40.78C114.984 40.39 113.164 39.87 111.604 39.22C110.087 38.5267 108.831 37.5517 107.834 36.295C106.881 35.0383 106.404 33.4567 106.404 31.55C106.404 29.6867 106.924 28.0183 107.964 26.545C109.047 25.0283 110.521 23.8367 112.384 22.97C114.247 22.06 116.306 21.605 118.559 21.605C121.506 21.605 124.149 22.2117 126.489 23.425C128.872 24.595 130.844 26.2417 132.404 28.365L126.034 31.68C125.211 30.4233 124.149 29.47 122.849 28.82C121.592 28.17 120.206 27.845 118.689 27.845C117.259 27.845 116.111 28.1267 115.244 28.69C114.421 29.2533 114.009 30.0117 114.009 30.965C114.009 31.7017 114.247 32.265 114.724 32.655C115.244 33.0017 116.176 33.3483 117.519 33.695C118.732 33.9117 119.924 34.15 121.094 34.41C121.441 34.4533 121.787 34.5183 122.134 34.605C124.171 35.0383 125.947 35.6017 127.464 36.295C129.024 36.9883 130.281 37.9417 131.234 39.155C132.187 40.3683 132.664 41.9067 132.664 43.77C132.664 45.6767 132.122 47.41 131.039 48.97C129.956 50.4867 128.461 51.7 126.554 52.61C124.647 53.4767 122.502 53.91 120.119 53.91ZM150.826 53.585C147.792 53.585 145.084 52.9133 142.701 51.57C140.317 50.2267 138.454 48.3633 137.111 45.98C135.811 43.5967 135.161 40.845 135.161 37.725C135.161 34.605 135.832 31.8533 137.176 29.47C138.519 27.0433 140.382 25.1583 142.766 23.815C145.149 22.4283 147.879 21.735 150.956 21.735C153.989 21.735 156.697 22.4283 159.081 23.815C161.507 25.1583 163.371 27.0433 164.671 29.47C166.014 31.8533 166.686 34.605 166.686 37.725C166.686 40.7583 166.014 43.4883 164.671 45.915C163.327 48.2983 161.442 50.1833 159.016 51.57C156.589 52.9133 153.859 53.585 150.826 53.585ZM150.826 47.02C153.209 47.02 155.094 46.24 156.481 44.68C157.867 43.0767 158.561 40.8233 158.561 37.92V37.66C158.561 34.7133 157.867 32.4167 156.481 30.77C155.137 29.08 153.296 28.235 150.956 28.235C148.572 28.235 146.687 29.08 145.301 30.77C143.957 32.4167 143.286 34.7133 143.286 37.66V37.92C143.286 40.8233 143.936 43.0767 145.236 44.68C146.579 46.24 148.442 47.02 150.826 47.02ZM182.961 53.91C179.971 53.91 177.284 53.325 174.901 52.155C172.518 50.985 170.568 49.4033 169.051 47.41L175.421 43.835C176.288 45.005 177.393 45.9367 178.736 46.63C180.123 47.28 181.596 47.605 183.156 47.605C184.586 47.605 185.713 47.3233 186.536 46.76C187.359 46.1967 187.771 45.395 187.771 44.355C187.771 43.445 187.294 42.795 186.341 42.405C185.431 42.015 183.849 41.6033 181.596 41.17L179.906 40.78C177.826 40.39 176.006 39.87 174.446 39.22C172.929 38.5267 171.673 37.5517 170.676 36.295C169.723 35.0383 169.246 33.4567 169.246 31.55C169.246 29.6867 169.766 28.0183 170.806 26.545C171.889 25.0283 173.363 23.8367 175.226 22.97C177.089 22.06 179.148 21.605 181.401 21.605C184.348 21.605 186.991 22.2117 189.331 23.425C191.714 24.595 193.686 26.2417 195.246 28.365L188.876 31.68C188.053 30.4233 186.991 29.47 185.691 28.82C184.434 28.17 183.048 27.845 181.531 27.845C180.101 27.845 178.953 28.1267 178.086 28.69C177.263 29.2533 176.851 30.0117 176.851 30.965C176.851 31.7017 177.089 32.265 177.566 32.655C178.086 33.0017 179.018 33.3483 180.361 33.695C181.574 33.9117 182.766 34.15 183.936 34.41C184.283 34.4533 184.629 34.5183 184.976 34.605C187.013 35.0383 188.789 35.6017 190.306 36.295C191.866 36.9883 193.123 37.9417 194.076 39.155C195.029 40.3683 195.506 41.9067 195.506 43.77C195.506 45.6767 194.964 47.41 193.881 48.97C192.798 50.4867 191.303 51.7 189.396 52.61C187.489 53.4767 185.344 53.91 182.961 53.91ZM212.575 22.32H220.44V26.285C221.48 24.8117 222.802 23.685 224.405 22.905C226.052 22.0817 227.872 21.67 229.865 21.67C232.465 21.67 234.805 22.32 236.885 23.62C238.965 24.8767 240.59 26.6967 241.76 29.08C242.93 31.42 243.515 34.1933 243.515 37.4V37.465C243.515 40.715 242.93 43.575 241.76 46.045C240.59 48.4717 238.943 50.3567 236.82 51.7C234.74 53 232.4 53.65 229.8 53.65C227.893 53.65 226.117 53.26 224.47 52.48C222.867 51.6567 221.523 50.53 220.44 49.1V65.09H212.575V22.32ZM227.655 47.085C229.865 47.085 231.663 46.2617 233.05 44.615C234.437 42.9683 235.13 40.6717 235.13 37.725V37.27C235.13 34.3233 234.458 32.0917 233.115 30.575C231.772 29.015 229.952 28.235 227.655 28.235C225.315 28.235 223.473 29.08 222.13 30.77C220.787 32.46 220.115 34.6917 220.115 37.465V38.115C220.115 40.845 220.765 43.0333 222.065 44.68C223.408 46.2833 225.272 47.085 227.655 47.085ZM247.868 22.32H255.928V53H247.868V22.32ZM247.803 9.97H256.123V17.835H247.803V9.97ZM262.15 9.255H270.21V53H262.15V9.255ZM285.599 53.78C282.349 53.78 279.749 52.9567 277.799 51.31C275.892 49.6633 274.939 47.5183 274.939 44.875C274.939 42.665 275.437 40.9317 276.434 39.675C277.431 38.4183 278.752 37.465 280.399 36.815C282.046 36.165 284.234 35.5367 286.964 34.93C287.831 34.7567 288.697 34.5833 289.564 34.41C291.861 33.9767 293.421 33.6083 294.244 33.305C295.111 33.0017 295.609 32.5467 295.739 31.94V31.55C295.739 30.5533 295.262 29.7083 294.309 29.015C293.356 28.3217 291.882 27.975 289.889 27.975C287.896 27.975 286.336 28.43 285.209 29.34C284.082 30.25 283.519 31.42 283.519 32.85V33.24H275.589C275.719 29.73 277.062 26.935 279.619 24.855C282.219 22.775 285.686 21.735 290.019 21.735C294.266 21.735 297.537 22.71 299.834 24.66C302.131 26.61 303.279 29.6 303.279 33.63V47.605V53H295.674V48.84C294.677 50.4433 293.312 51.6783 291.579 52.545C289.889 53.3683 287.896 53.78 285.599 53.78ZM287.419 48.06C289.672 48.06 291.579 47.4317 293.139 46.175C294.742 44.9183 295.609 42.99 295.739 40.39V37.725C295.046 38.0717 294.266 38.375 293.399 38.635C292.576 38.895 291.492 39.1767 290.149 39.48C289.586 39.61 289.044 39.74 288.524 39.87C286.704 40.39 285.317 40.975 284.364 41.625C283.454 42.275 282.999 43.2283 282.999 44.485C282.999 45.525 283.389 46.3917 284.169 47.085C284.992 47.735 286.076 48.06 287.419 48.06ZM308.996 22.32H316.991V27.845C317.424 25.9817 318.334 24.53 319.721 23.49C321.108 22.45 323.123 21.93 325.766 21.93H326.416V29.665H323.296C320.869 29.665 319.201 30.25 318.291 31.42C317.381 32.5467 316.926 34.4967 316.926 37.27V53H308.996V22.32ZM342.968 53.52C339.761 53.52 336.988 52.8917 334.648 51.635C332.351 50.3783 330.553 48.5583 329.253 46.175C327.996 43.7917 327.368 41.0183 327.368 37.855C327.368 34.6917 328.018 31.8967 329.318 29.47C330.661 27.0433 332.481 25.1583 334.778 23.815C337.118 22.4283 339.761 21.735 342.708 21.735C347.344 21.735 350.963 23.165 353.563 26.025C356.206 28.8417 357.528 32.6983 357.528 37.595V40.26H335.233C335.493 42.5133 336.294 44.2467 337.638 45.46C339.024 46.6733 340.823 47.28 343.033 47.28C345.156 47.28 346.803 46.8467 347.973 45.98C349.143 45.1133 350.009 43.9433 350.573 42.47L357.528 44.94C356.358 47.5833 354.581 49.685 352.198 51.245C349.814 52.7617 346.738 53.52 342.968 53.52ZM349.403 34.735C349.273 32.4817 348.623 30.7917 347.453 29.665C346.283 28.5383 344.636 27.975 342.513 27.975C340.563 27.975 338.916 28.5817 337.573 29.795C336.273 30.965 335.449 32.6117 335.103 34.735H349.403ZM374.025 53.91C371.035 53.91 368.349 53.325 365.965 52.155C363.582 50.985 361.632 49.4033 360.115 47.41L366.485 43.835C367.352 45.005 368.457 45.9367 369.8 46.63C371.187 47.28 372.66 47.605 374.22 47.605C375.65 47.605 376.777 47.3233 377.6 46.76C378.424 46.1967 378.835 45.395 378.835 44.355C378.835 43.445 378.359 42.795 377.405 42.405C376.495 42.015 374.914 41.6033 372.66 41.17L370.97 40.78C368.89 40.39 367.07 39.87 365.51 39.22C363.994 38.5267 362.737 37.5517 361.74 36.295C360.787 35.0383 360.31 33.4567 360.31 31.55C360.31 29.6867 360.83 28.0183 361.87 26.545C362.954 25.0283 364.427 23.8367 366.29 22.97C368.154 22.06 370.212 21.605 372.465 21.605C375.412 21.605 378.055 22.2117 380.395 23.425C382.779 24.595 384.75 26.2417 386.31 28.365L379.94 31.68C379.117 30.4233 378.055 29.47 376.755 28.82C375.499 28.17 374.112 27.845 372.595 27.845C371.165 27.845 370.017 28.1267 369.15 28.69C368.327 29.2533 367.915 30.0117 367.915 30.965C367.915 31.7017 368.154 32.265 368.63 32.655C369.15 33.0017 370.082 33.3483 371.425 33.695C372.639 33.9117 373.83 34.15 375 34.41C375.347 34.4533 375.694 34.5183 376.04 34.605C378.077 35.0383 379.854 35.6017 381.37 36.295C382.93 36.9883 384.187 37.9417 385.14 39.155C386.094 40.3683 386.57 41.9067 386.57 43.77C386.57 45.6767 386.029 47.41 384.945 48.97C383.862 50.4867 382.367 51.7 380.46 52.61C378.554 53.4767 376.409 53.91 374.025 53.91Z" fill="black"/>
</svg>
