<svg width="33" height="36" viewBox="0 0 33 36" fill="none" xmlns="http://www.w3.org/2000/svg">
<path d="M23.5676 18.4322C28.6575 18.4322 32.7837 14.306 32.7837 9.21608C32.7837 4.12618 28.6575 0 23.5676 0C18.4777 0 14.3516 4.12618 14.3516 9.21608C14.3516 14.306 18.4777 18.4322 23.5676 18.4322Z" fill="white"/>
<path d="M25.6441 19.5032V30.0064C25.6441 33.3164 22.9603 36.0001 19.6503 36.0001H0V12.2538C0 8.94373 2.68371 6.26001 5.99373 6.26001H12.8079C11.1827 7.91659 10.1931 10.1807 10.1931 12.6796C10.1931 17.7903 14.3173 21.9145 19.3998 21.9145C21.8111 21.9145 24.0188 21.0126 25.6441 19.5032Z" fill="white"/>
</svg>
