<svg width="105" height="115" viewBox="0 0 105 115" fill="none" xmlns="http://www.w3.org/2000/svg">
<path d="M75.2601 58.86C91.5138 58.86 104.69 45.6837 104.69 29.43C104.69 13.1763 91.5138 0 75.2601 0C59.0063 0 45.8301 13.1763 45.8301 29.43C45.8301 45.6837 59.0063 58.86 75.2601 58.86Z" fill="#0000FF"/>
<path d="M81.89 62.28V95.82C81.89 106.39 73.32 114.96 62.75 114.96H0V39.13C0 28.56 8.56998 19.99 19.14 19.99H40.9C35.71 25.28 32.55 32.51 32.55 40.49C32.55 56.81 45.72 69.98 61.95 69.98C69.65 69.98 76.7 67.1 81.89 62.28Z" fill="black"/>
</svg>
