<svg width="129" height="141" viewBox="0 0 129 141" fill="none" xmlns="http://www.w3.org/2000/svg">
<path d="M92.3062 72.1924C112.242 72.1924 128.402 56.0316 128.402 36.0962C128.402 16.1608 112.242 0 92.3062 0C72.3708 0 56.21 16.1608 56.21 36.0962C56.21 56.0316 72.3708 72.1924 92.3062 72.1924Z" fill="white"/>
<path d="M100.439 76.3872V117.524C100.439 130.489 89.9278 141 76.9635 141H0V47.9935C0 35.0293 10.5112 24.5181 23.4754 24.5181H50.1643C43.7987 31.0063 39.9229 39.874 39.9229 49.6615C39.9229 69.6782 56.076 85.8314 75.9823 85.8314C85.4264 85.8314 94.0733 82.299 100.439 76.3872Z" fill="white"/>
</svg>
