<svg width="42" height="42" viewBox="0 0 42 42" fill="none" xmlns="http://www.w3.org/2000/svg">
<path d="M1.55995 39.603L15.3486 25.8143M32.7123 19.6826L28.5848 32.0673C28.5186 32.2654 28.4057 32.4446 28.2556 32.5898C28.1055 32.735 27.9226 32.8419 27.7224 32.9015L2.42011 40.4241C2.19216 40.4918 1.95 40.4957 1.72 40.4354C1.48999 40.375 1.28095 40.2527 1.11562 40.0818C0.95029 39.9109 0.835007 39.6979 0.782316 39.466C0.729625 39.2341 0.741545 38.9922 0.81678 38.7666L9.03278 14.123C9.09166 13.946 9.18793 13.7838 9.31503 13.6474C9.44214 13.5109 9.59712 13.4034 9.76945 13.3321L21.4413 8.52647C21.6786 8.42847 21.9396 8.40292 22.1914 8.45305C22.4431 8.50317 22.6745 8.62673 22.8561 8.80813L32.3981 18.3523C32.5688 18.523 32.6887 18.7379 32.7442 18.9728C32.7997 19.2078 32.7886 19.4536 32.7123 19.6826Z" stroke="black" stroke-width="1.5" stroke-linecap="round" stroke-linejoin="round"/>
<path d="M34.2922 1.85963L39.4142 6.98163C39.7991 7.34988 40.1066 7.7913 40.3185 8.27999C40.5305 8.76868 40.6428 9.29479 40.6486 9.82745C40.6545 10.3601 40.554 10.8886 40.3528 11.3818C40.1517 11.8751 39.8541 12.3232 39.4774 12.6999C39.1007 13.0765 38.6526 13.3742 38.1594 13.5753C37.6661 13.7764 37.1377 13.877 36.605 13.8711C36.0723 13.8652 35.5462 13.753 35.0575 13.541C34.5689 13.329 34.1274 13.0215 33.7592 12.6366L28.635 7.51463C27.9123 6.75921 27.5141 5.75084 27.5256 4.70545C27.5372 3.66005 27.9576 2.66073 28.6969 1.92148C29.4361 1.18222 30.4354 0.761804 31.4808 0.750245C32.5262 0.738686 33.5368 1.13691 34.2922 1.85963Z" fill="black" stroke="black" stroke-width="1.5" stroke-linecap="round" stroke-linejoin="round"/>
<path d="M19.9441 21.2166C19.6443 20.9062 19.2857 20.6586 18.8892 20.4883C18.4927 20.318 18.0662 20.2283 17.6347 20.2246C17.2032 20.2208 16.7752 20.303 16.3758 20.4665C15.9764 20.6299 15.6135 20.8712 15.3083 21.1763C15.0032 21.4815 14.7619 21.8444 14.5985 22.2438C14.435 22.6432 14.3528 23.0711 14.3566 23.5027C14.3603 23.9342 14.45 24.3607 14.6203 24.7572C14.7906 25.1537 15.0382 25.5123 15.3486 25.8121C15.9616 26.4041 16.7825 26.7317 17.6347 26.7243C18.4868 26.7169 19.302 26.3751 19.9045 25.7725C20.5071 25.17 20.8489 24.3548 20.8563 23.5027C20.8637 22.6505 20.5361 21.8296 19.9441 21.2166Z" stroke="black" stroke-width="1.5" stroke-linecap="round" stroke-linejoin="round"/>
</svg>
