<svg width="41" height="41" viewBox="0 0 41 41" fill="none" xmlns="http://www.w3.org/2000/svg">
<g clip-path="url(#clip0_154_230)">
<path d="M18 36.5C13.2261 36.5 8.64773 34.6036 5.27208 31.2279C1.89642 27.8523 0 23.2739 0 18.5C0 13.7261 1.89642 9.14773 5.27208 5.77208C8.64773 2.39642 13.2261 0.5 18 0.5C22.7739 0.5 27.3523 2.39642 30.7279 5.77208C34.1036 9.14773 36 13.7261 36 18.5C36 23.2739 34.1036 27.8523 30.7279 31.2279C27.3523 34.6036 22.7739 36.5 18 36.5ZM19.9058 18.1737C21.1528 17.7251 22.2016 16.8509 22.8674 15.705C23.5333 14.5591 23.7735 13.215 23.5458 11.9094C23.3181 10.6038 22.637 9.42038 21.6226 8.56755C20.6081 7.71472 19.3253 7.24714 18 7.24714C16.6747 7.24714 15.3919 7.71472 14.3774 8.56755C13.363 9.42038 12.6819 10.6038 12.4542 11.9094C12.2265 13.215 12.4667 14.5591 13.1326 15.705C13.7984 16.8509 14.8472 17.7251 16.0942 18.1737C12.3097 19.0872 9 22.4937 9 25.25C9 26.1388 9.32625 27.4888 11.25 27.4888H24.75C26.6737 27.4888 27 26.1388 27 25.25C27 22.496 23.6925 19.085 19.9058 18.1737Z" fill="white"/>
</g>
<defs>
<clipPath id="clip0_154_230">
<rect width="41" height="41" fill="white"/>
</clipPath>
</defs>
</svg>
