<svg width="52" height="52" viewBox="0 0 52 52" fill="none" xmlns="http://www.w3.org/2000/svg">
<path d="M19.5003 10.8333C21.7989 10.8333 24.0033 11.7464 25.6286 13.3717C27.2539 14.9971 28.167 17.2015 28.167 19.5C28.167 21.7985 27.2539 24.0029 25.6286 25.6283C24.0033 27.2536 21.7989 28.1667 19.5003 28.1667C17.2018 28.1667 14.9974 27.2536 13.3721 25.6283C11.7468 24.0029 10.8337 21.7985 10.8337 19.5C10.8337 17.2015 11.7468 14.9971 13.3721 13.3717C14.9974 11.7464 17.2018 10.8333 19.5003 10.8333ZM19.5003 32.5C25.2853 32.5 36.8337 35.4033 36.8337 41.1667V45.5H2.16699V41.1667C2.16699 35.4033 13.7153 32.5 19.5003 32.5ZM36.3137 11.6133C40.6903 16.38 40.6903 22.9883 36.3137 27.365L32.6737 23.7033C34.4937 21.1467 34.4937 17.8317 32.6737 15.275L36.3137 11.6133ZM43.4853 4.33333C52.0003 13.1083 51.9353 26.2383 43.4853 34.6667L39.9537 31.135C45.9553 24.245 45.9553 14.4083 39.9537 7.865L43.4853 4.33333Z" fill="black"/>
</svg>
