<svg width="21" height="28" viewBox="0 0 21 28" fill="none" xmlns="http://www.w3.org/2000/svg">
<path d="M0.397437 16.7955C0.662629 16.5303 0.979535 16.3977 1.34789 16.3977C1.71597 16.3977 2.01803 16.5156 2.25378 16.7513L8.75104 23.2485L8.75104 1.32596C8.75104 0.942916 8.87626 0.626171 9.12674 0.375697C9.37718 0.12525 9.69396 -4.57236e-07 10.077 -4.40493e-07C10.46 -4.23749e-07 10.7768 0.12525 11.0273 0.375697C11.2777 0.626171 11.403 0.942916 11.403 1.32596L11.403 23.2485L17.9444 16.7071C18.2096 16.4419 18.5189 16.3167 18.8725 16.3314C19.2261 16.3461 19.5355 16.4861 19.8007 16.7513C20.0364 17.0165 20.1543 17.3333 20.1543 17.7016C20.1543 18.0699 20.0364 18.3719 19.8007 18.6076L11.0052 27.4033C10.8578 27.5505 10.7105 27.6536 10.5632 27.7125C10.4159 27.7714 10.2538 27.8011 10.077 27.8011C9.9002 27.8011 9.73814 27.7714 9.59082 27.7125C9.44348 27.6536 9.29614 27.5505 9.14883 27.4033L0.397437 18.652C0.132245 18.3867 -0.000349835 18.0773 -0.00034982 17.7237C-0.000349804 17.3701 0.132245 17.0607 0.397437 16.7955Z" fill="black"/>
</svg>
