<svg width="64" height="64" viewBox="0 0 64 64" fill="none" xmlns="http://www.w3.org/2000/svg">
<path d="M32.3253 37.1596C31.9517 37.1269 31.6465 36.9694 31.4097 36.6872C31.1731 36.4052 31.0692 36.0981 31.0982 35.766L31.899 26.6124L15.1054 40.704C14.812 40.9502 14.4888 41.0579 14.136 41.027C13.7831 40.9962 13.4835 40.834 13.2373 40.5406C12.9911 40.2471 12.8834 39.924 12.9143 39.5711C12.9452 39.2183 13.1073 38.9187 13.4008 38.6725L30.1944 24.581L20.9787 23.7747C20.605 23.742 20.3103 23.5855 20.0943 23.3052C19.8783 23.0248 19.7866 22.6979 19.8193 22.3242C19.8709 21.9732 20.0378 21.6793 20.3199 21.4426C20.6021 21.2058 20.9092 21.102 21.2413 21.131L33.6328 22.215C33.8403 22.2333 34.014 22.2798 34.1538 22.3549C34.2936 22.4299 34.4205 22.5349 34.5342 22.6704C34.6478 22.8058 34.7293 22.949 34.7788 23.0997C34.8285 23.2505 34.8441 23.4296 34.8261 23.6371L33.7475 35.9663C33.7147 36.34 33.5629 36.6404 33.2921 36.8677C33.0212 37.095 32.699 37.1923 32.3253 37.1596Z" fill="black"/>
</svg>
