<svg width="28" height="28" viewBox="0 0 28 28" fill="none" xmlns="http://www.w3.org/2000/svg">
<path fill-rule="evenodd" clip-rule="evenodd" d="M0.666626 14.0001C0.666626 6.63635 6.63616 0.666809 14 0.666809C17.5362 0.666809 20.9276 2.07157 23.428 4.57205C25.9285 7.07254 27.3333 10.4639 27.3333 14.0001C27.3333 21.3639 21.3638 27.3335 14 27.3335C6.63616 27.3335 0.666626 21.3639 0.666626 14.0001ZM12.8933 18.5866C12.9425 18.5168 12.9959 18.45 13.0533 18.3866C13.3036 18.1342 13.6444 17.9922 13.9999 17.9922C14.3555 17.9922 14.6963 18.1342 14.9466 18.3866C15.1962 18.6382 15.3353 18.9789 15.3333 19.3333C15.3397 19.5057 15.3125 19.6778 15.2533 19.8399C15.132 20.1749 14.8683 20.4387 14.5333 20.5599C14.2106 20.7026 13.8427 20.7026 13.5199 20.5599C13.185 20.4387 12.9212 20.1749 12.7999 19.8399C12.7253 19.6817 12.6888 19.5082 12.6933 19.3333C12.6867 19.2445 12.6867 19.1554 12.6933 19.0666C12.7079 18.9831 12.7348 18.9022 12.7733 18.8266C12.8025 18.7416 12.8428 18.6609 12.8933 18.5866ZM14 24.667C8.10893 24.667 3.3333 19.8913 3.3333 14.0003C3.3333 8.10927 8.10893 3.33364 14 3.33364C19.891 3.33364 24.6666 8.10927 24.6666 14.0003C24.6666 16.8293 23.5428 19.5424 21.5424 21.5428C19.5421 23.5432 16.8289 24.667 14 24.667ZM10.5333 9.33364C11.2483 8.09524 12.57 7.33272 14 7.33364C15.936 7.34866 17.5833 8.74806 17.9112 10.6562C18.239 12.5643 17.1533 14.4333 15.3333 15.0936V15.3336C15.3333 16.07 14.7363 16.667 14 16.667C13.2636 16.667 12.6666 16.07 12.6666 15.3336V14.0003C12.6666 13.2639 13.2636 12.667 14 12.667C14.7363 12.667 15.3333 12.07 15.3333 11.3336C15.3333 10.5973 14.7363 10.0003 14 10.0003C13.5217 9.99841 13.0791 10.2528 12.84 10.667C12.613 11.1009 12.1663 11.3755 11.6766 11.3822C11.1868 11.3888 10.7329 11.1264 10.4942 10.6987C10.2556 10.2711 10.2706 9.74696 10.5333 9.33364Z" fill="#B6BFC8"/>
</svg>
