<?xml version="1.0" standalone="no"?>
<!DOCTYPE svg PUBLIC "-//W3C//DTD SVG 20010904//EN"
 "http://www.w3.org/TR/2001/REC-SVG-20010904/DTD/svg10.dtd">
<svg version="1.0" xmlns="http://www.w3.org/2000/svg"
 width="1632.000000pt" height="1632.000000pt" viewBox="0 0 1632.000000 1632.000000"
 preserveAspectRatio="xMidYMid meet">
<metadata>
Created by potrace 1.11, written by Peter Selinger 2001-2013
</metadata>
<g transform="translate(0.000000,1632.000000) scale(0.100000,-0.100000)"
fill="#000000" stroke="none">
<path d="M1488 12483 c-10 -3 -18 -5 -18 -6 0 -1 -7 -40 -16 -87 -8 -47 -17
-96 -19 -110 -1 -14 -6 -41 -9 -60 -4 -19 -9 -48 -12 -65 -3 -16 -11 -66 -19
-110 -8 -44 -17 -93 -20 -110 -3 -16 -7 -43 -10 -60 -3 -16 -10 -57 -16 -90
-6 -33 -13 -73 -16 -90 -6 -39 -9 -57 -22 -130 -6 -33 -13 -73 -15 -90 -3 -16
-10 -53 -15 -82 -6 -29 -13 -71 -16 -95 -7 -51 -13 -83 -15 -83 -1 0 -3 -9 -4
-20 -9 -59 -17 -112 -21 -125 -5 -16 -10 -50 -20 -115 -3 -23 -8 -52 -10 -65
-6 -30 -52 -292 -60 -337 -3 -18 -8 -48 -11 -65 -3 -18 -8 -42 -9 -54 -2 -11
-8 -45 -14 -75 -5 -30 -13 -72 -16 -94 -4 -22 -9 -53 -12 -70 -3 -16 -6 -40
-7 -52 0 -13 -4 -23 -9 -23 -4 0 -6 -4 -3 -8 2 -4 -2 -40 -9 -80 -8 -40 -16
-90 -19 -110 -5 -35 -7 -49 -21 -112 -3 -14 -8 -41 -10 -60 -3 -19 -7 -46 -10
-60 -6 -28 -15 -82 -20 -120 -1 -14 -5 -36 -9 -50 -7 -30 -15 -73 -21 -115 -6
-41 -14 -86 -19 -111 -2 -12 -7 -37 -10 -55 -3 -19 -9 -54 -14 -79 -5 -25 -7
-50 -5 -55 2 -7 2585 -9 7460 -9 6262 2 7457 4 7459 15 1 8 5 32 9 54 3 22 11
66 16 99 6 32 8 60 5 63 -3 3 -1 13 4 22 5 9 12 44 15 76 4 33 9 69 12 80 5
25 12 69 18 120 3 22 7 51 10 65 3 14 8 45 11 70 3 25 8 56 10 70 3 14 7 39 9
55 8 59 14 100 18 120 3 11 8 45 12 75 4 30 9 62 10 70 8 47 18 108 21 130 7
54 13 96 17 115 5 22 17 102 23 150 4 32 13 93 18 135 2 14 5 25 6 25 1 0 3
11 5 25 3 32 14 109 19 135 2 11 7 45 12 75 4 30 8 57 9 60 1 3 5 32 9 65 4
32 10 68 12 79 2 11 6 38 9 61 3 22 8 47 10 55 2 8 7 38 10 65 7 48 9 61 19
130 3 17 7 48 10 70 6 52 16 114 22 145 7 38 12 68 24 155 6 44 13 91 16 105
3 14 7 39 9 55 3 17 10 64 16 105 7 41 14 89 16 105 4 32 10 75 16 115 3 14 7
45 11 70 4 25 9 58 12 74 5 24 3 28 -10 23 -8 -3 -18 -2 -21 3 -3 6 -15 6 -30
0 -14 -5 -25 -6 -25 -2 0 4 -38 7 -85 7 -47 0 -85 -3 -85 -7 0 -4 -11 -3 -25
2 -15 6 -26 6 -30 0 -4 -6 -13 -7 -24 -1 -10 6 -23 6 -31 1 -8 -5 -21 -5 -30
0 -9 5 -23 4 -32 -1 -10 -6 -19 -6 -23 0 -3 7 -15 7 -30 1 -15 -6 -27 -6 -30
0 -3 6 -15 6 -30 0 -14 -5 -25 -6 -25 -2 0 4 -38 7 -85 7 -47 0 -85 -3 -85 -7
0 -4 -7 -5 -15 -1 -23 8 -145 9 -145 1 0 -4 -10 -4 -22 1 -13 5 -32 5 -44 1
-11 -5 -27 -4 -34 0 -8 5 -22 4 -31 -1 -11 -6 -20 -5 -24 1 -4 6 -15 6 -30 0
-14 -5 -25 -6 -25 -2 0 4 -25 7 -55 7 -30 0 -55 -3 -55 -7 0 -4 -11 -3 -25 2
-15 6 -26 6 -30 0 -4 -6 -13 -7 -24 -1 -10 6 -23 6 -31 1 -8 -5 -21 -5 -30 0
-9 5 -23 4 -32 -1 -10 -6 -19 -6 -23 0 -3 7 -15 7 -30 1 -15 -6 -27 -6 -30 0
-3 6 -15 6 -30 0 -14 -5 -25 -6 -25 -2 0 4 -38 7 -85 7 -47 0 -85 -3 -85 -7 0
-4 -11 -3 -25 2 -15 6 -26 6 -30 0 -4 -6 -13 -7 -24 -1 -10 6 -23 6 -31 1 -8
-5 -21 -5 -30 0 -9 5 -23 4 -32 -1 -10 -6 -19 -6 -23 0 -3 7 -15 7 -30 1 -15
-6 -27 -6 -30 0 -3 6 -15 6 -30 0 -14 -5 -25 -6 -25 -2 0 4 -38 7 -85 7 -47 0
-85 -3 -85 -7 0 -4 -11 -3 -25 2 -15 6 -26 6 -30 0 -4 -6 -13 -7 -23 -1 -11 6
-24 6 -34 0 -10 -6 -19 -6 -23 0 -4 7 -15 7 -30 1 -15 -6 -25 -6 -25 0 0 5
-12 5 -30 0 -17 -5 -32 -5 -35 0 -3 5 -16 5 -30 0 -14 -5 -25 -6 -25 -2 0 4
-25 7 -55 7 -30 0 -55 -3 -55 -7 0 -4 -14 -3 -30 2 -18 5 -30 5 -30 0 0 -6
-10 -6 -25 0 -15 6 -27 6 -30 0 -3 -6 -15 -6 -30 0 -15 6 -27 6 -30 0 -4 -6
-13 -7 -23 -1 -11 6 -24 6 -34 0 -10 -6 -19 -6 -23 0 -3 7 -15 7 -30 1 -15 -6
-27 -6 -30 0 -3 6 -15 6 -30 0 -14 -5 -25 -6 -25 -2 0 4 -25 7 -55 7 -30 0
-55 -3 -55 -7 0 -4 -13 -3 -30 2 -18 5 -30 5 -30 0 0 -6 -10 -6 -25 0 -15 6
-27 6 -30 0 -3 -6 -15 -6 -30 0 -15 6 -27 6 -30 0 -4 -6 -13 -7 -23 -1 -11 6
-24 6 -34 0 -10 -6 -19 -6 -23 0 -3 7 -15 7 -29 1 -13 -5 -27 -6 -30 -3 -9 9
-137 10 -163 1 -13 -4 -23 -4 -23 0 0 4 -13 7 -30 7 -16 0 -30 -3 -30 -7 0 -4
-13 -3 -29 2 -15 4 -34 4 -42 0 -7 -5 -18 -6 -23 -3 -13 9 -142 7 -155 -2 -6
-3 -11 -3 -11 2 0 4 -13 8 -30 8 -16 0 -30 -3 -30 -7 0 -4 -13 -3 -29 2 -15 4
-34 4 -42 0 -7 -5 -18 -6 -23 -3 -13 9 -142 7 -155 -2 -6 -3 -11 -3 -11 2 0 4
-13 8 -30 8 -16 0 -30 -3 -30 -7 0 -4 -13 -3 -29 2 -15 4 -34 4 -42 0 -7 -5
-18 -6 -23 -3 -13 9 -142 7 -155 -2 -6 -3 -11 -3 -11 2 0 4 -13 8 -30 8 -16 0
-30 -3 -30 -7 0 -4 -13 -3 -29 2 -15 4 -34 4 -42 0 -7 -5 -18 -6 -24 -2 -11 7
-112 5 -124 -2 -4 -3 -13 -1 -21 4 -8 5 -21 5 -30 0 -9 -5 -22 -5 -30 0 -8 5
-21 5 -30 0 -9 -5 -22 -5 -30 0 -8 5 -21 5 -31 -1 -11 -6 -20 -5 -24 1 -4 6
-15 6 -30 0 -15 -6 -25 -6 -25 0 0 5 -12 5 -28 1 -15 -5 -37 -5 -49 0 -13 5
-25 4 -28 -1 -4 -6 -13 -7 -23 -1 -11 6 -24 6 -34 0 -10 -6 -19 -6 -23 0 -4 7
-15 7 -30 1 -15 -6 -25 -6 -25 0 0 5 -12 5 -30 0 -16 -5 -30 -6 -30 -2 0 4
-38 7 -85 7 -47 0 -85 -3 -85 -7 0 -4 -11 -3 -25 2 -15 6 -27 6 -30 0 -3 -6
-15 -6 -30 0 -15 6 -27 6 -30 0 -4 -6 -13 -7 -23 -1 -11 6 -24 6 -34 0 -10 -6
-19 -6 -23 0 -4 7 -15 7 -30 1 -15 -6 -25 -6 -25 0 0 5 -12 5 -30 0 -16 -5
-30 -6 -30 -2 0 4 -38 7 -85 7 -47 0 -85 -3 -85 -7 0 -4 -11 -3 -25 2 -15 6
-27 6 -30 0 -3 -6 -15 -6 -30 0 -15 6 -27 6 -30 0 -4 -6 -13 -7 -23 -1 -11 6
-24 6 -34 0 -10 -6 -19 -6 -23 0 -4 7 -15 7 -30 1 -15 -6 -25 -6 -25 0 0 5
-12 5 -30 0 -16 -5 -30 -6 -30 -2 0 4 -38 7 -85 7 -47 0 -85 -3 -85 -7 0 -4
-11 -3 -25 2 -15 6 -27 6 -30 0 -3 -6 -15 -6 -30 0 -15 6 -27 6 -30 0 -4 -6
-13 -7 -23 -1 -11 6 -24 6 -34 0 -10 -6 -19 -6 -23 0 -4 7 -15 7 -30 1 -15 -6
-25 -6 -25 0 0 5 -12 5 -30 0 -16 -5 -30 -6 -30 -2 0 4 -38 7 -85 7 -47 0 -85
-3 -85 -7 0 -4 -11 -3 -25 2 -15 6 -27 6 -30 0 -3 -6 -15 -6 -30 0 -15 6 -27
6 -30 0 -4 -6 -13 -7 -23 -1 -11 6 -24 6 -34 0 -10 -6 -19 -6 -23 0 -4 7 -15
7 -30 1 -14 -5 -25 -6 -25 -2 0 4 -16 7 -35 7 -19 0 -35 -3 -35 -7 0 -4 -10
-4 -22 0 -25 9 -57 8 -82 -1 -9 -4 -16 -3 -16 1 0 4 -13 7 -30 7 -16 0 -30 -3
-30 -7 0 -4 -13 -3 -29 2 -15 4 -34 4 -42 0 -7 -5 -18 -6 -23 -3 -13 9 -142 7
-155 -2 -6 -3 -11 -3 -11 2 0 4 -13 8 -30 8 -16 0 -30 -3 -30 -7 0 -4 -13 -3
-29 2 -15 4 -34 4 -42 0 -7 -5 -18 -6 -23 -3 -13 9 -142 7 -155 -2 -6 -3 -11
-3 -11 2 0 4 -13 8 -30 8 -16 0 -30 -3 -30 -7 0 -4 -13 -3 -29 2 -15 4 -34 4
-42 0 -7 -5 -18 -6 -23 -3 -13 9 -142 7 -155 -2 -6 -3 -11 -3 -11 2 0 4 -13 8
-30 8 -16 0 -30 -3 -30 -7 0 -4 -13 -3 -29 2 -15 4 -34 4 -42 0 -7 -5 -18 -6
-24 -2 -11 7 -112 5 -124 -2 -4 -3 -13 -1 -21 4 -8 5 -21 5 -31 -1 -11 -6 -20
-5 -24 1 -4 6 -15 6 -30 0 -14 -5 -25 -6 -25 -2 0 4 -25 7 -55 7 -30 0 -55 -3
-55 -7 0 -4 -11 -3 -25 2 -15 6 -26 6 -30 0 -4 -6 -13 -7 -24 -1 -10 6 -23 6
-31 1 -8 -5 -21 -5 -30 0 -9 5 -23 4 -32 -1 -10 -6 -19 -6 -23 0 -3 7 -15 7
-30 1 -15 -6 -27 -6 -30 0 -3 6 -15 6 -30 0 -14 -5 -25 -6 -25 -2 0 4 -38 7
-85 7 -47 0 -85 -3 -85 -7 0 -4 -11 -3 -25 2 -15 6 -26 6 -30 0 -4 -6 -13 -7
-24 -1 -10 6 -23 6 -31 1 -8 -5 -21 -5 -30 0 -9 5 -23 4 -32 -1 -10 -6 -19 -6
-23 0 -3 7 -15 7 -30 1 -15 -6 -27 -6 -30 0 -3 6 -15 6 -30 0 -14 -5 -25 -6
-25 -2 0 4 -38 7 -85 7 -47 0 -85 -3 -85 -7 0 -4 -11 -3 -25 2 -15 6 -26 6
-30 0 -4 -6 -13 -7 -23 -1 -11 6 -24 6 -34 0 -10 -6 -19 -6 -23 0 -4 7 -15 7
-30 1 -15 -6 -25 -6 -25 0 0 5 -12 5 -30 0 -17 -5 -32 -5 -35 0 -3 5 -16 5
-30 0 -14 -5 -25 -6 -25 -2 0 4 -25 7 -55 7 -30 0 -55 -3 -55 -7 0 -4 -13 -3
-30 2 -18 5 -30 5 -30 0 0 -6 -10 -6 -25 0 -15 6 -27 6 -30 0 -3 -6 -15 -6
-30 0 -15 6 -27 6 -30 0 -4 -6 -13 -7 -23 -1 -11 6 -24 6 -34 0 -10 -6 -19 -6
-23 0 -3 7 -15 7 -30 1 -15 -6 -27 -6 -30 0 -3 6 -15 6 -30 0 -14 -5 -25 -6
-25 -2 0 4 -25 7 -55 7 -30 0 -55 -3 -55 -7 0 -4 -14 -3 -30 2 -18 5 -30 5
-30 0 0 -6 -10 -6 -25 0 -15 6 -27 6 -30 0 -3 -6 -15 -6 -30 0 -15 6 -27 6
-30 0 -4 -6 -13 -7 -23 -1 -11 6 -24 6 -34 0 -10 -6 -19 -6 -23 0 -3 7 -15 7
-29 1 -13 -5 -27 -6 -30 -2 -8 7 -152 5 -165 -3 -5 -3 -12 -1 -16 4 -3 7 -15
7 -30 1 -15 -6 -27 -6 -30 0 -3 6 -15 6 -30 0 -14 -5 -25 -6 -25 -2 0 4 -25 7
-55 7 -30 0 -55 -2 -55 -5 0 -7 -69 -4 -76 3 -3 3 -17 2 -30 -3 -13 -5 -24 -6
-24 -2 0 4 -25 7 -55 7 -30 0 -55 -3 -55 -7 0 -4 -13 -3 -30 2 -18 5 -30 5
-30 0 0 -6 -10 -6 -25 0 -15 6 -27 6 -30 0 -3 -6 -15 -6 -30 0 -15 6 -27 6
-30 0 -4 -6 -13 -7 -23 -1 -11 6 -24 6 -34 0 -10 -6 -19 -6 -23 0 -3 7 -15 7
-30 1 -15 -6 -27 -6 -30 0 -3 6 -15 6 -30 0 -14 -5 -25 -6 -25 -2 0 4 -25 7
-55 7 -30 0 -55 -3 -55 -7 0 -4 -13 -3 -30 2 -18 5 -30 5 -30 0 0 -6 -10 -6
-25 0 -15 6 -27 6 -30 0 -3 -5 -15 -6 -29 0 -12 4 -29 4 -36 0 -8 -5 -18 -6
-23 -3 -14 9 -177 9 -177 1 0 -4 -11 -3 -25 2 -15 6 -26 6 -30 0 -4 -6 -13 -7
-24 -1 -10 6 -23 6 -31 1 -8 -5 -21 -5 -30 0 -9 5 -23 4 -32 -1 -10 -6 -19 -6
-23 0 -3 7 -15 7 -30 1 -15 -6 -27 -6 -30 0 -3 6 -15 6 -30 0 -14 -5 -25 -6
-25 -2 0 4 -38 7 -85 7 -47 0 -85 -3 -85 -7 0 -4 -11 -3 -25 2 -15 6 -26 6
-30 0 -4 -6 -13 -7 -24 -1 -10 6 -23 6 -31 1 -8 -5 -21 -5 -30 0 -9 5 -23 4
-32 -1 -10 -6 -19 -6 -23 0 -3 7 -15 7 -30 1 -15 -6 -27 -6 -30 0 -3 6 -15 6
-30 0 -14 -5 -25 -6 -25 -2 0 4 -38 7 -85 7 -47 0 -85 -3 -85 -7 0 -4 -7 -5
-15 -1 -23 8 -145 9 -145 1 0 -4 -10 -4 -22 1 -12 4 -37 5 -55 1 -18 -5 -35
-4 -38 1 -3 4 -17 4 -30 -1 -15 -6 -27 -6 -30 0 -3 6 -15 6 -30 0 -14 -5 -25
-6 -25 -2 0 4 -25 7 -55 7 -30 0 -55 -2 -55 -5 0 -7 -69 -4 -76 3 -3 3 -17 2
-30 -3 -13 -5 -24 -6 -24 -2 0 4 -25 7 -55 7 -30 0 -55 -3 -55 -7 0 -4 -13 -3
-30 2 -18 5 -30 5 -30 0 0 -6 -10 -6 -25 0 -15 6 -27 6 -30 0 -3 -6 -15 -6
-30 0 -15 6 -27 6 -30 0 -4 -6 -13 -7 -23 -1 -11 6 -24 6 -34 0 -10 -6 -19 -6
-23 0 -3 7 -15 7 -30 1 -15 -6 -27 -6 -30 0 -3 6 -15 6 -30 0 -14 -5 -25 -6
-25 -2 0 4 -13 7 -30 7 -16 0 -30 -3 -30 -7 0 -4 -11 -4 -23 1 -13 5 -30 5
-37 1 -8 -5 -21 -5 -29 -1 -9 4 -24 6 -33 4z"/>
<path d="M512 7177 c0 -7 -3 -23 -5 -37 -3 -14 -8 -52 -12 -85 -4 -33 -9 -62
-10 -65 -2 -3 -6 -29 -10 -59 -4 -30 -9 -63 -11 -75 -2 -11 -6 -38 -9 -61 -3
-22 -8 -51 -10 -65 -2 -14 -7 -45 -10 -70 -3 -25 -10 -67 -15 -95 -5 -27 -11
-68 -14 -90 -3 -22 -8 -51 -10 -65 -3 -14 -10 -61 -16 -105 -15 -102 -19 -134
-25 -165 -6 -38 -27 -176 -40 -267 -3 -20 -7 -48 -9 -62 -3 -14 -8 -46 -11
-71 -4 -25 -9 -54 -11 -65 -2 -10 -6 -37 -9 -60 -3 -22 -8 -51 -11 -65 -2 -14
-7 -45 -9 -70 -3 -25 -7 -56 -10 -70 -12 -60 -15 -77 -20 -115 -3 -22 -8 -60
-11 -85 -2 -25 -6 -52 -9 -60 -2 -8 -7 -37 -11 -65 -3 -27 -7 -57 -9 -65 -1
-8 -6 -35 -10 -60 -3 -25 -9 -58 -12 -75 -3 -16 -6 -43 -8 -60 -1 -16 -8 -61
-15 -100 -6 -38 -13 -86 -16 -105 -2 -19 -7 -48 -10 -65 -4 -16 -8 -41 -9 -55
-2 -14 -6 -41 -9 -60 -3 -19 -8 -53 -11 -75 -7 -47 -12 -79 -19 -120 -3 -16
-8 -50 -11 -75 -3 -25 -9 -58 -11 -75 -3 -16 -7 -43 -10 -60 -2 -16 -6 -48 -9
-70 -4 -22 -9 -53 -11 -70 -2 -16 -7 -42 -10 -57 -3 -16 -2 -28 3 -29 46 -5
14836 -2 14840 3 2 5 6 18 9 30 8 42 33 193 39 233 3 22 8 46 10 53 3 7 7 31
10 55 7 50 13 81 15 85 2 1 4 11 5 22 1 11 3 21 4 23 1 1 4 16 6 32 2 17 6 44
9 60 3 17 12 71 20 120 22 126 24 140 26 140 1 0 3 11 5 25 4 33 21 136 30
180 2 13 7 42 10 65 3 22 8 47 10 55 2 8 7 35 10 60 4 24 8 47 10 50 1 3 6 28
9 55 4 28 9 57 11 65 2 8 7 33 10 55 4 22 8 45 9 50 4 13 16 93 21 130 2 17 4
30 5 30 1 0 4 11 6 25 3 14 14 75 25 135 11 61 22 126 24 145 2 19 6 44 8 55
3 11 8 40 12 65 9 57 13 79 20 112 6 24 8 40 20 118 2 14 6 36 9 50 7 34 28
159 32 190 2 14 5 36 9 50 7 35 16 80 21 115 2 17 6 41 9 55 3 14 9 50 15 80
5 30 12 71 16 90 3 19 8 46 9 60 2 14 4 25 5 25 1 0 3 9 4 20 3 24 18 116 22
130 2 12 15 91 19 120 2 11 4 25 5 30 1 6 2 15 1 22 -2 17 -14917 16 -14919 0z"/>
</g>
</svg>
