<svg width="101" height="54" viewBox="0 0 101 54" fill="none" xmlns="http://www.w3.org/2000/svg">
<path fill-rule="evenodd" clip-rule="evenodd" d="M55.6393 21.7338L54.7406 25.9638H56.5596C57.5966 25.9638 58.275 25.9163 58.5947 25.8213C59.5151 25.549 60.0811 24.8966 60.2928 23.8596C60.3404 23.6349 60.3663 23.4362 60.3663 23.2633C60.3663 22.5936 60.0422 22.1486 59.3941 21.9239C59.0052 21.7986 58.3571 21.7338 57.454 21.7338H55.6393ZM71.5745 29.2001H76.3274L75.6231 21.993H75.5497L71.5745 29.2001ZM37.4356 28.5175L36.5628 32.6352H39.2547C40.9226 32.6352 41.8991 31.9611 42.1886 30.6131C42.2361 30.4057 42.262 30.2112 42.262 30.0341C42.262 29.023 41.5015 28.5175 39.9806 28.5175H37.4356ZM38.9134 21.5825L38.0881 25.4367H40.3695C41.225 25.4367 41.8083 25.3632 42.1151 25.2207C42.7935 24.8836 43.2126 24.3219 43.3768 23.5355C43.5237 22.8615 43.407 22.3473 43.0354 21.993C42.7459 21.7208 42.2534 21.5825 41.5577 21.5825H38.9134ZM31.1532 35.811L34.8475 18.5018H44.3231C44.6255 18.5277 44.8848 18.5579 45.1008 18.5925C46.2156 18.7999 47.0668 19.219 47.6458 19.8456C48.1772 20.4245 48.4451 21.1202 48.4451 21.9412C48.4451 22.2306 48.4106 22.5288 48.3501 22.8312C47.9137 24.8361 46.3841 26.154 43.7657 26.7805L43.7397 26.828C46.0211 27.2471 47.1618 28.323 47.1618 30.0557C47.1618 31.1488 46.855 32.1383 46.2415 33.0284C45.6279 33.9185 44.807 34.6055 43.7786 35.0894C42.7503 35.569 41.1213 35.811 38.8918 35.811H31.1532ZM0.168512 30.1896H4.96895C4.90414 30.4964 4.87389 30.747 4.87389 30.9458C4.87389 32.1513 5.68621 32.7519 7.31084 32.7519C9.01325 32.7519 10.0114 32.1253 10.2965 30.8766C10.3268 30.7254 10.3441 30.5785 10.3441 30.4445C10.3441 29.8785 9.94654 29.4896 9.14719 29.2779L5.15907 28.228C2.89495 27.6317 1.76722 26.4823 1.76722 24.7756C1.76722 24.4386 1.80611 24.08 1.8882 23.6997C2.22091 22.235 3.05915 21.0381 4.3986 20.1091C5.91089 19.0592 7.88119 18.532 10.3009 18.532C14.3495 18.532 16.3716 19.7807 16.3716 22.2825C16.3716 22.693 16.3068 23.1985 16.1815 23.7905H11.3249C11.4027 23.4837 11.4459 23.2288 11.4459 23.0127C11.4459 22.006 10.8237 21.5047 9.5836 21.5047C8.89658 21.5047 8.30895 21.6689 7.81638 21.9973C7.3238 22.3257 7.02999 22.7405 6.93061 23.2417C6.90036 23.38 6.88308 23.5096 6.88308 23.6306C6.88308 24.2571 7.35405 24.6892 8.29167 24.9355L11.3249 25.7348C12.6471 26.0848 13.5717 26.4348 14.0945 26.7848C14.989 27.3638 15.434 28.202 15.434 29.2995C15.434 29.6668 15.3865 30.06 15.2914 30.4877C14.9069 32.255 13.8828 33.6031 12.2107 34.5364C10.6811 35.3919 8.77992 35.8153 6.49852 35.8153C3.55172 35.8153 1.60735 35.1586 0.669728 33.8493C0.224683 33.2358 0 32.4883 0 31.6068C0 31.2396 0.0561708 30.7686 0.168512 30.1896ZM15.9352 35.811L19.6468 18.5579H32.7951L32.0908 21.8634H23.7473L22.9695 25.4583H30.8291L30.1032 28.7637H22.2436L21.4659 32.4537H30.0038L29.2779 35.8067H15.9352V35.811ZM83.7765 35.811L87.4881 18.5579H100.636L99.9321 21.8634H91.5886L90.8108 25.4583H98.6704L97.9445 28.7637H90.0849L89.3072 32.4537H97.8451L97.1192 35.8067H83.7765V35.811ZM37.5048 5.88064H69.2974L70.4813 0H38.6844L37.5048 5.88064ZM35.5604 15.0106H67.3531L68.537 9.1299H36.7443L35.5604 15.0106ZM29.2002 45.265H60.9928L62.1767 39.3843H30.3841L29.2002 45.265ZM27.2558 54.3949H59.0484L60.2323 48.5142H28.4397L27.2558 54.3949ZM62.9631 35.811L73.5837 18.64H79.5032L82.705 35.8153H77.2218L76.7595 32.3673H69.7511L67.8111 35.8153L62.9631 35.811H57.7003C57.6658 35.1715 57.7565 33.8753 57.9682 31.9136C58.033 31.2266 58.0676 30.76 58.0676 30.505C58.0676 29.9779 57.9337 29.6063 57.6658 29.3946C57.3979 29.1785 56.8794 29.0705 56.1016 29.0705H54.0622L52.6061 35.811H47.7322L51.4438 18.5536H59.5453C60.9366 18.5536 61.857 18.5839 62.3107 18.6487C63.4081 18.8086 64.1945 19.1888 64.6655 19.798C65.1019 20.3381 65.3223 21.0165 65.3223 21.8288C65.3223 22.2436 65.2747 22.68 65.1754 23.1423C64.8513 24.6244 64.0822 25.6916 62.8724 26.3441C62.0816 26.7718 61.1267 27.07 60.012 27.2298L59.986 27.3249C61.2477 27.3552 62.1033 27.6058 62.5569 28.0638C62.9458 28.4483 63.1403 29.0921 63.1403 29.9995C63.1403 30.302 63.1143 30.8204 63.0668 31.555C62.9156 33.6895 62.8853 35.1067 62.9631 35.811Z" fill="white"/>
</svg>
