<svg width="17" height="16" viewBox="0 0 17 16" fill="none" xmlns="http://www.w3.org/2000/svg">
<path d="M9.04004 7.84078L11.9387 5.03771C12.203 4.7815 12.203 4.36609 11.9387 4.10988C11.6744 3.85367 11.2458 3.85367 10.9815 4.10988L8.08955 6.91949L5.19764 4.10988C4.93331 3.85367 4.50475 3.85367 4.24041 4.10988C3.97608 4.36609 3.97608 4.7815 4.24041 5.03771L7.13907 7.84078L4.24041 10.6439C4.1128 10.7665 4.04102 10.9335 4.04102 11.1078C4.04102 11.282 4.1128 11.449 4.24041 11.5717C4.36699 11.6954 4.53929 11.765 4.71903 11.765C4.89877 11.765 5.07107 11.6954 5.19764 11.5717L8.08955 8.76207L10.9815 11.5717C11.108 11.6954 11.2803 11.765 11.4601 11.765C11.6398 11.765 11.8121 11.6954 11.9387 11.5717C12.0663 11.449 12.1381 11.282 12.1381 11.1078C12.1381 10.9335 12.0663 10.7665 11.9387 10.6439L9.04004 7.84078Z" fill="#5C8FD6"/>
</svg>
