<svg width="21" height="21" viewBox="0 0 21 21" fill="none" xmlns="http://www.w3.org/2000/svg">
<path fill-rule="evenodd" clip-rule="evenodd" d="M21 10.2323C21 15.8802 16.3863 20.4572 10.6944 20.4572C8.88998 20.4572 7.18826 19.9951 5.71394 19.1809L0 21L1.86308 15.5134C0.924205 13.9731 0.381418 12.1614 0.381418 10.2323C0.381418 4.57702 4.99511 0 10.687 0C16.3863 0 21 4.57702 21 10.2323ZM10.687 1.62836C5.90465 1.62836 2.01712 5.48655 2.01712 10.2249C2.01712 12.1027 2.63325 13.8484 3.66748 15.2641L2.58191 18.4548L5.91198 17.3985C7.28362 18.2934 8.91932 18.8215 10.6797 18.8215C15.4548 18.8215 19.3423 14.9633 19.3423 10.2249C19.357 5.48655 15.4694 1.62836 10.687 1.62836ZM15.8949 12.5868C15.8289 12.4841 15.6601 12.4181 15.4108 12.2934C15.1614 12.1687 13.9144 11.5599 13.687 11.4792C13.4523 11.3985 13.2836 11.3545 13.1223 11.6039C12.9535 11.8533 12.4694 12.4181 12.3227 12.5868C12.176 12.7555 12.0293 12.7775 11.7726 12.6528C11.5159 12.5281 10.7017 12.2641 9.74083 11.4059C8.99267 10.7384 8.48655 9.91687 8.33252 9.66748C8.18582 9.41809 8.31785 9.27873 8.44254 9.15404C8.5599 9.04401 8.69927 8.86064 8.82396 8.71394C8.94866 8.56724 8.99267 8.46455 9.07335 8.29584C9.15403 8.12714 9.11736 7.98044 9.05135 7.85575C8.98533 7.73105 8.48655 6.49878 8.27384 5.99267C8.06113 5.49389 7.85575 5.50856 7.70905 5.50856C7.56235 5.50856 7.29095 5.55257 7.29095 5.55257C7.29095 5.55257 6.78484 5.61858 6.55012 5.86797C6.3154 6.11736 5.66259 6.72616 5.66259 7.95844C5.66259 9.19071 6.56479 10.3863 6.69682 10.5477C6.82152 10.7164 8.44254 13.3276 11.0098 14.3325C13.577 15.3374 13.577 15 14.0391 14.956C14.5012 14.912 15.5355 14.3472 15.7482 13.7677C15.9609 13.1883 15.9609 12.6895 15.8949 12.5868Z" fill="white"/>
</svg>
