<svg width="1920" height="360" viewBox="0 0 1920 360" fill="none" xmlns="http://www.w3.org/2000/svg">
<g clip-path="url(#clip0_25442_21001)">
<path d="M985.177 -2.88576L981.629 13.2801L921.043 13.2801L924.367 -2.88575L985.177 -2.88576Z" fill="#F93549"/>
<path d="M906.144 -12.8596L926.536 -12.8596L924.367 -2.88575L904.118 -2.88575L906.144 -12.8596Z" fill="#F93549"/>
<path d="M943.965 47.711L940.418 63.8769L900 63.8769L903.345 47.711L943.965 47.711Z" fill="#F93549"/>
<path d="M930.721 -43L951.113 -43L948.944 -33.0262L928.694 -33.0262L930.721 -43Z" fill="#F93549"/>
<path d="M940.418 63.8769L960.81 63.8768L958.641 73.8506L938.391 73.8507L940.418 63.8769Z" fill="#F93549"/>
<path d="M381.232 36.1695C381.7 36.1695 382.109 36.1125 382.457 35.9985C382.806 35.8782 383.094 35.7103 383.322 35.495C383.556 35.2733 383.73 35.0073 383.844 34.697C383.958 34.3803 384.015 34.0288 384.015 33.6425C384.015 33.2752 383.958 32.9427 383.844 32.645C383.73 32.3473 383.559 32.094 383.331 31.885C383.103 31.676 382.815 31.5177 382.467 31.41C382.118 31.296 381.707 31.239 381.232 31.239H379.322V36.1695H381.232ZM381.232 29.263C382.15 29.263 382.945 29.3707 383.616 29.586C384.288 29.8013 384.842 30.1022 385.279 30.4885C385.716 30.8748 386.039 31.3372 386.248 31.8755C386.463 32.4138 386.571 33.0028 386.571 33.6425C386.571 34.3075 386.46 34.9187 386.238 35.476C386.017 36.027 385.684 36.502 385.241 36.901C384.797 37.3 384.24 37.6103 383.569 37.832C382.904 38.0537 382.125 38.1645 381.232 38.1645H379.322V43H376.767V29.263H381.232ZM393.012 38.839C392.334 38.8707 391.764 38.9308 391.302 39.0195C390.84 39.1018 390.469 39.2095 390.191 39.3425C389.912 39.4755 389.712 39.6307 389.592 39.808C389.472 39.9853 389.412 40.1785 389.412 40.3875C389.412 40.7992 389.532 41.0937 389.773 41.271C390.02 41.4483 390.339 41.537 390.732 41.537C391.213 41.537 391.628 41.4515 391.977 41.2805C392.331 41.1032 392.676 40.8372 393.012 40.4825V38.839ZM387.635 34.6115C388.756 33.5855 390.105 33.0725 391.682 33.0725C392.252 33.0725 392.762 33.1675 393.212 33.3575C393.661 33.5412 394.041 33.8008 394.352 34.1365C394.662 34.4658 394.896 34.8617 395.055 35.324C395.219 35.7863 395.302 36.293 395.302 36.844V43H394.238C394.016 43 393.845 42.9683 393.725 42.905C393.604 42.8353 393.509 42.6992 393.44 42.4965L393.231 41.7935C392.984 42.0152 392.743 42.2115 392.509 42.3825C392.274 42.5472 392.03 42.6865 391.777 42.8005C391.524 42.9145 391.251 43 390.96 43.057C390.675 43.1203 390.358 43.152 390.01 43.152C389.598 43.152 389.218 43.0982 388.87 42.9905C388.522 42.8765 388.221 42.7087 387.968 42.487C387.714 42.2653 387.518 41.9898 387.379 41.6605C387.239 41.3312 387.17 40.948 387.17 40.511C387.17 40.264 387.211 40.0202 387.293 39.7795C387.375 39.5325 387.508 39.2982 387.692 39.0765C387.882 38.8548 388.126 38.6458 388.424 38.4495C388.721 38.2532 389.085 38.0822 389.516 37.9365C389.953 37.7908 390.46 37.6737 391.036 37.585C391.612 37.49 392.271 37.433 393.012 37.414V36.844C393.012 36.1917 392.873 35.7103 392.594 35.4C392.315 35.0833 391.913 34.925 391.388 34.925C391.008 34.925 390.691 34.9693 390.438 35.058C390.191 35.1467 389.972 35.248 389.782 35.362C389.592 35.4697 389.418 35.5678 389.26 35.6565C389.108 35.7452 388.937 35.7895 388.747 35.7895C388.582 35.7895 388.443 35.7483 388.329 35.666C388.215 35.5773 388.123 35.476 388.053 35.362L387.635 34.6115ZM394.751 29.111L392.404 31.5905C392.284 31.7172 392.167 31.8058 392.053 31.8565C391.945 31.9008 391.802 31.923 391.625 31.923H390.219L391.568 29.6145C391.663 29.4498 391.774 29.3263 391.901 29.244C392.027 29.1553 392.217 29.111 392.471 29.111H394.751ZM401.074 37.889C401.365 37.889 401.619 37.851 401.834 37.775C402.049 37.6927 402.227 37.5818 402.366 37.4425C402.512 37.3032 402.619 37.1353 402.689 36.939C402.765 36.7427 402.803 36.5273 402.803 36.293C402.803 35.8117 402.657 35.4317 402.366 35.153C402.081 34.868 401.65 34.7255 401.074 34.7255C400.498 34.7255 400.064 34.868 399.773 35.153C399.488 35.4317 399.345 35.8117 399.345 36.293C399.345 36.521 399.38 36.7332 399.45 36.9295C399.526 37.1258 399.633 37.2968 399.773 37.4425C399.918 37.5818 400.099 37.6927 400.314 37.775C400.536 37.851 400.789 37.889 401.074 37.889ZM403.725 43.437C403.725 43.247 403.668 43.0918 403.554 42.9715C403.44 42.8512 403.284 42.7593 403.088 42.696C402.892 42.6263 402.661 42.5757 402.395 42.544C402.135 42.5123 401.856 42.4902 401.559 42.4775C401.267 42.4585 400.963 42.4427 400.647 42.43C400.336 42.4173 400.032 42.392 399.735 42.354C399.475 42.4997 399.263 42.6707 399.098 42.867C398.94 43.0633 398.861 43.2913 398.861 43.551C398.861 43.722 398.902 43.8803 398.984 44.026C399.073 44.178 399.209 44.3078 399.393 44.4155C399.583 44.5232 399.826 44.6055 400.124 44.6625C400.422 44.7258 400.786 44.7575 401.217 44.7575C401.654 44.7575 402.03 44.7227 402.347 44.653C402.664 44.5897 402.923 44.4978 403.126 44.3775C403.335 44.2635 403.487 44.1242 403.582 43.9595C403.677 43.8012 403.725 43.627 403.725 43.437ZM406.062 33.5855V34.4595C406.062 34.7382 405.894 34.9092 405.558 34.9725L404.684 35.134C404.817 35.4697 404.884 35.837 404.884 36.236C404.884 36.7173 404.785 37.1543 404.589 37.547C404.399 37.9333 404.133 38.2627 403.791 38.535C403.449 38.8073 403.044 39.0195 402.575 39.1715C402.113 39.3172 401.612 39.39 401.074 39.39C400.884 39.39 400.7 39.3805 400.523 39.3615C400.346 39.3425 400.172 39.3172 400.001 39.2855C399.697 39.4692 399.545 39.675 399.545 39.903C399.545 40.0993 399.633 40.245 399.811 40.34C399.994 40.4287 400.235 40.492 400.533 40.53C400.83 40.568 401.169 40.5933 401.549 40.606C401.929 40.6123 402.319 40.6313 402.718 40.663C403.117 40.6947 403.506 40.7517 403.886 40.834C404.266 40.91 404.605 41.0335 404.903 41.2045C405.2 41.3755 405.438 41.6098 405.615 41.9075C405.799 42.1988 405.891 42.5757 405.891 43.038C405.891 43.4687 405.783 43.8867 405.568 44.292C405.359 44.6973 405.051 45.0583 404.646 45.375C404.247 45.6917 403.753 45.945 403.164 46.135C402.581 46.3313 401.916 46.4295 401.169 46.4295C400.434 46.4295 399.795 46.3567 399.25 46.211C398.705 46.0717 398.253 45.8817 397.892 45.641C397.531 45.4067 397.261 45.1343 397.084 44.824C396.907 44.5137 396.818 44.1907 396.818 43.855C396.818 43.399 396.954 43.019 397.227 42.715C397.505 42.4047 397.885 42.1577 398.367 41.974C398.107 41.841 397.901 41.6637 397.749 41.442C397.597 41.2203 397.521 40.929 397.521 40.568C397.521 40.4223 397.546 40.2735 397.597 40.1215C397.654 39.9632 397.733 39.808 397.835 39.656C397.942 39.504 398.075 39.3615 398.234 39.2285C398.392 39.0892 398.579 38.9657 398.794 38.858C398.3 38.592 397.911 38.2373 397.626 37.794C397.347 37.3507 397.208 36.8313 397.208 36.236C397.208 35.7547 397.303 35.3208 397.493 34.9345C397.689 34.5418 397.958 34.2093 398.3 33.937C398.648 33.6583 399.057 33.4462 399.526 33.3005C400.001 33.1548 400.517 33.082 401.074 33.082C401.492 33.082 401.885 33.1263 402.252 33.215C402.619 33.2973 402.955 33.4208 403.259 33.5855H406.062ZM409.982 33.253V43H407.626V33.253H409.982ZM410.305 30.4125C410.305 30.6152 410.263 30.8052 410.181 30.9825C410.099 31.1598 409.988 31.315 409.849 31.448C409.716 31.581 409.557 31.6887 409.374 31.771C409.19 31.847 408.994 31.885 408.785 31.885C408.582 31.885 408.389 31.847 408.205 31.771C408.028 31.6887 407.873 31.581 407.74 31.448C407.607 31.315 407.499 31.1598 407.417 30.9825C407.341 30.8052 407.303 30.6152 407.303 30.4125C407.303 30.2035 407.341 30.0072 407.417 29.8235C407.499 29.6398 407.607 29.4815 407.74 29.3485C407.873 29.2155 408.028 29.111 408.205 29.035C408.389 28.9527 408.582 28.9115 408.785 28.9115C408.994 28.9115 409.19 28.9527 409.374 29.035C409.557 29.111 409.716 29.2155 409.849 29.3485C409.988 29.4815 410.099 29.6398 410.181 29.8235C410.263 30.0072 410.305 30.2035 410.305 30.4125ZM414.568 34.45C414.765 34.2537 414.971 34.0732 415.186 33.9085C415.408 33.7375 415.639 33.595 415.879 33.481C416.126 33.3607 416.389 33.2688 416.668 33.2055C416.947 33.1358 417.251 33.101 417.58 33.101C418.112 33.101 418.584 33.1928 418.995 33.3765C419.407 33.5538 419.749 33.8072 420.021 34.1365C420.3 34.4595 420.509 34.849 420.648 35.305C420.794 35.7547 420.867 36.2518 420.867 36.7965V43H418.52V36.7965C418.52 36.2012 418.384 35.742 418.112 35.419C417.84 35.0897 417.425 34.925 416.867 34.925C416.462 34.925 416.082 35.0168 415.727 35.2005C415.373 35.3842 415.037 35.6343 414.72 35.951V43H412.374V33.253H413.808C414.112 33.253 414.312 33.3955 414.407 33.6805L414.568 34.45ZM428.247 38.839C427.57 38.8707 427 38.9308 426.537 39.0195C426.075 39.1018 425.705 39.2095 425.426 39.3425C425.147 39.4755 424.948 39.6307 424.827 39.808C424.707 39.9853 424.647 40.1785 424.647 40.3875C424.647 40.7992 424.767 41.0937 425.008 41.271C425.255 41.4483 425.575 41.537 425.967 41.537C426.449 41.537 426.864 41.4515 427.212 41.2805C427.567 41.1032 427.912 40.8372 428.247 40.4825V38.839ZM422.87 34.6115C423.991 33.5855 425.34 33.0725 426.917 33.0725C427.487 33.0725 427.997 33.1675 428.447 33.3575C428.897 33.5412 429.277 33.8008 429.587 34.1365C429.897 34.4658 430.132 34.8617 430.29 35.324C430.455 35.7863 430.537 36.293 430.537 36.844V43H429.473C429.251 43 429.08 42.9683 428.96 42.905C428.84 42.8353 428.745 42.6992 428.675 42.4965L428.466 41.7935C428.219 42.0152 427.978 42.2115 427.744 42.3825C427.51 42.5472 427.266 42.6865 427.012 42.8005C426.759 42.9145 426.487 43 426.195 43.057C425.91 43.1203 425.594 43.152 425.245 43.152C424.834 43.152 424.454 43.0982 424.105 42.9905C423.757 42.8765 423.456 42.7087 423.203 42.487C422.95 42.2653 422.753 41.9898 422.614 41.6605C422.475 41.3312 422.405 40.948 422.405 40.511C422.405 40.264 422.446 40.0202 422.528 39.7795C422.611 39.5325 422.744 39.2982 422.927 39.0765C423.117 38.8548 423.361 38.6458 423.659 38.4495C423.957 38.2532 424.321 38.0822 424.751 37.9365C425.188 37.7908 425.695 37.6737 426.271 37.585C426.848 37.49 427.506 37.433 428.247 37.414V36.844C428.247 36.1917 428.108 35.7103 427.829 35.4C427.551 35.0833 427.149 34.925 426.623 34.925C426.243 34.925 425.926 34.9693 425.673 35.058C425.426 35.1467 425.207 35.248 425.017 35.362C424.827 35.4697 424.653 35.5678 424.495 35.6565C424.343 35.7452 424.172 35.7895 423.982 35.7895C423.817 35.7895 423.678 35.7483 423.564 35.666C423.45 35.5773 423.358 35.476 423.288 35.362L422.87 34.6115ZM439.799 33.253V43H437.443V33.253H439.799ZM440.122 30.4125C440.122 30.6152 440.081 30.8052 439.999 30.9825C439.916 31.1598 439.805 31.315 439.666 31.448C439.533 31.581 439.375 31.6887 439.191 31.771C439.007 31.847 438.811 31.885 438.602 31.885C438.399 31.885 438.206 31.847 438.023 31.771C437.845 31.6887 437.69 31.581 437.557 31.448C437.424 31.315 437.316 31.1598 437.234 30.9825C437.158 30.8052 437.12 30.6152 437.12 30.4125C437.12 30.2035 437.158 30.0072 437.234 29.8235C437.316 29.6398 437.424 29.4815 437.557 29.3485C437.69 29.2155 437.845 29.111 438.023 29.035C438.206 28.9527 438.399 28.9115 438.602 28.9115C438.811 28.9115 439.007 28.9527 439.191 29.035C439.375 29.111 439.533 29.2155 439.666 29.3485C439.805 29.4815 439.916 29.6398 439.999 29.8235C440.081 30.0072 440.122 30.2035 440.122 30.4125ZM444.386 34.45C444.582 34.2537 444.788 34.0732 445.003 33.9085C445.225 33.7375 445.456 33.595 445.697 33.481C445.944 33.3607 446.207 33.2688 446.485 33.2055C446.764 33.1358 447.068 33.101 447.397 33.101C447.929 33.101 448.401 33.1928 448.813 33.3765C449.224 33.5538 449.566 33.8072 449.839 34.1365C450.117 34.4595 450.326 34.849 450.466 35.305C450.611 35.7547 450.684 36.2518 450.684 36.7965V43H448.338V36.7965C448.338 36.2012 448.202 35.742 447.929 35.419C447.657 35.0897 447.242 34.925 446.685 34.925C446.279 34.925 445.899 35.0168 445.545 35.2005C445.19 35.3842 444.854 35.6343 444.538 35.951V43H442.191V33.253H443.626C443.93 33.253 444.129 33.3955 444.224 33.6805L444.386 34.45ZM455.348 33.253V43H452.992V33.253H455.348ZM455.671 30.4125C455.671 30.6152 455.63 30.8052 455.547 30.9825C455.465 31.1598 455.354 31.315 455.215 31.448C455.082 31.581 454.924 31.6887 454.74 31.771C454.556 31.847 454.36 31.885 454.151 31.885C453.948 31.885 453.755 31.847 453.571 31.771C453.394 31.6887 453.239 31.581 453.106 31.448C452.973 31.315 452.865 31.1598 452.783 30.9825C452.707 30.8052 452.669 30.6152 452.669 30.4125C452.669 30.2035 452.707 30.0072 452.783 29.8235C452.865 29.6398 452.973 29.4815 453.106 29.3485C453.239 29.2155 453.394 29.111 453.571 29.035C453.755 28.9527 453.948 28.9115 454.151 28.9115C454.36 28.9115 454.556 28.9527 454.74 29.035C454.924 29.111 455.082 29.2155 455.215 29.3485C455.354 29.4815 455.465 29.6398 455.547 29.8235C455.63 30.0072 455.671 30.2035 455.671 30.4125ZM464.723 35.3145C464.653 35.4032 464.583 35.4728 464.514 35.5235C464.45 35.5742 464.355 35.5995 464.229 35.5995C464.108 35.5995 463.991 35.5647 463.877 35.495C463.763 35.419 463.627 35.3367 463.469 35.248C463.31 35.153 463.12 35.0707 462.899 35.001C462.683 34.925 462.414 34.887 462.091 34.887C461.679 34.887 461.318 34.963 461.008 35.115C460.698 35.2607 460.438 35.4728 460.229 35.7515C460.026 36.0302 459.874 36.369 459.773 36.768C459.672 37.1607 459.621 37.6072 459.621 38.1075C459.621 38.6268 459.675 39.0892 459.783 39.4945C459.897 39.8998 460.058 40.2418 460.267 40.5205C460.476 40.7928 460.729 41.0018 461.027 41.1475C461.325 41.2868 461.66 41.3565 462.034 41.3565C462.408 41.3565 462.709 41.3122 462.937 41.2235C463.171 41.1285 463.367 41.0272 463.526 40.9195C463.684 40.8055 463.82 40.7042 463.934 40.6155C464.054 40.5205 464.187 40.473 464.333 40.473C464.523 40.473 464.666 40.5458 464.761 40.6915L465.435 41.5465C465.175 41.8505 464.894 42.107 464.59 42.316C464.286 42.5187 463.969 42.6833 463.64 42.81C463.317 42.9303 462.981 43.0158 462.633 43.0665C462.291 43.1172 461.949 43.1425 461.607 43.1425C461.005 43.1425 460.438 43.0317 459.906 42.81C459.374 42.582 458.909 42.2527 458.51 41.822C458.111 41.3913 457.794 40.8657 457.56 40.245C457.332 39.618 457.218 38.9055 457.218 38.1075C457.218 37.3918 457.319 36.73 457.522 36.122C457.731 35.5077 458.035 34.9788 458.434 34.5355C458.833 34.0858 459.327 33.7343 459.916 33.481C460.505 33.2277 461.182 33.101 461.949 33.101C462.677 33.101 463.313 33.2182 463.858 33.4525C464.409 33.6868 464.903 34.0225 465.34 34.4595L464.723 35.3145ZM469.338 33.253V43H466.982V33.253H469.338ZM469.661 30.4125C469.661 30.6152 469.62 30.8052 469.538 30.9825C469.455 31.1598 469.344 31.315 469.205 31.448C469.072 31.581 468.914 31.6887 468.73 31.771C468.546 31.847 468.35 31.885 468.141 31.885C467.938 31.885 467.745 31.847 467.562 31.771C467.384 31.6887 467.229 31.581 467.096 31.448C466.963 31.315 466.855 31.1598 466.773 30.9825C466.697 30.8052 466.659 30.6152 466.659 30.4125C466.659 30.2035 466.697 30.0072 466.773 29.8235C466.855 29.6398 466.963 29.4815 467.096 29.3485C467.229 29.2155 467.384 29.111 467.562 29.035C467.745 28.9527 467.938 28.9115 468.141 28.9115C468.35 28.9115 468.546 28.9527 468.73 29.035C468.914 29.111 469.072 29.2155 469.205 29.3485C469.344 29.4815 469.455 29.6398 469.538 29.8235C469.62 30.0072 469.661 30.2035 469.661 30.4125ZM476.879 38.839C476.202 38.8707 475.632 38.9308 475.169 39.0195C474.707 39.1018 474.336 39.2095 474.058 39.3425C473.779 39.4755 473.58 39.6307 473.459 39.808C473.339 39.9853 473.279 40.1785 473.279 40.3875C473.279 40.7992 473.399 41.0937 473.64 41.271C473.887 41.4483 474.207 41.537 474.599 41.537C475.081 41.537 475.495 41.4515 475.844 41.2805C476.198 41.1032 476.544 40.8372 476.879 40.4825V38.839ZM471.502 34.6115C472.623 33.5855 473.972 33.0725 475.549 33.0725C476.119 33.0725 476.629 33.1675 477.079 33.3575C477.528 33.5412 477.908 33.8008 478.219 34.1365C478.529 34.4658 478.763 34.8617 478.922 35.324C479.086 35.7863 479.169 36.293 479.169 36.844V43H478.105C477.883 43 477.712 42.9683 477.592 42.905C477.471 42.8353 477.376 42.6992 477.307 42.4965L477.098 41.7935C476.851 42.0152 476.61 42.2115 476.376 42.3825C476.141 42.5472 475.898 42.6865 475.644 42.8005C475.391 42.9145 475.119 43 474.827 43.057C474.542 43.1203 474.226 43.152 473.877 43.152C473.466 43.152 473.086 43.0982 472.737 42.9905C472.389 42.8765 472.088 42.7087 471.835 42.487C471.581 42.2653 471.385 41.9898 471.246 41.6605C471.106 41.3312 471.037 40.948 471.037 40.511C471.037 40.264 471.078 40.0202 471.16 39.7795C471.243 39.5325 471.376 39.2982 471.559 39.0765C471.749 38.8548 471.993 38.6458 472.291 38.4495C472.588 38.2532 472.953 38.0822 473.383 37.9365C473.82 37.7908 474.327 37.6737 474.903 37.585C475.48 37.49 476.138 37.433 476.879 37.414V36.844C476.879 36.1917 476.74 35.7103 476.461 35.4C476.183 35.0833 475.78 34.925 475.255 34.925C474.875 34.925 474.558 34.9693 474.305 35.058C474.058 35.1467 473.839 35.248 473.649 35.362C473.459 35.4697 473.285 35.5678 473.127 35.6565C472.975 35.7452 472.804 35.7895 472.614 35.7895C472.449 35.7895 472.31 35.7483 472.196 35.666C472.082 35.5773 471.99 35.476 471.92 35.362L471.502 34.6115ZM483.754 28.883V43H481.407V28.883H483.754ZM499.138 36.122V37.072L491.605 41.005V39.333C491.605 39.2063 491.636 39.0892 491.7 38.9815C491.763 38.8738 491.868 38.7852 492.013 38.7155L495.462 36.939C495.759 36.7933 496.086 36.6793 496.44 36.597C496.086 36.5147 495.759 36.4007 495.462 36.255L492.013 34.488C491.868 34.412 491.763 34.3233 491.7 34.222C491.636 34.1143 491.605 33.9972 491.605 33.8705V32.1985L499.138 36.122ZM516.157 39.7605C516.297 39.7605 516.42 39.8143 516.528 39.922L517.535 41.0145C516.978 41.7048 516.29 42.2337 515.473 42.601C514.663 42.9683 513.687 43.152 512.547 43.152C511.528 43.152 510.609 42.9778 509.792 42.6295C508.982 42.2812 508.288 41.7967 507.712 41.176C507.136 40.5553 506.692 39.8143 506.382 38.953C506.078 38.0917 505.926 37.1512 505.926 36.1315C505.926 35.0992 506.091 34.1555 506.42 33.3005C506.749 32.4392 507.212 31.6982 507.807 31.0775C508.409 30.4568 509.124 29.9755 509.954 29.6335C510.784 29.2852 511.702 29.111 512.709 29.111C513.71 29.111 514.596 29.2757 515.369 29.605C516.148 29.9343 516.81 30.365 517.354 30.897L516.499 32.0845C516.449 32.1605 516.382 32.227 516.3 32.284C516.224 32.341 516.116 32.3695 515.977 32.3695C515.882 32.3695 515.784 32.3442 515.682 32.2935C515.581 32.2365 515.47 32.17 515.35 32.094C515.23 32.0117 515.09 31.923 514.932 31.828C514.774 31.733 514.59 31.6475 514.381 31.5715C514.172 31.4892 513.928 31.4227 513.649 31.372C513.377 31.315 513.06 31.2865 512.699 31.2865C512.085 31.2865 511.521 31.3973 511.008 31.619C510.502 31.8343 510.065 32.151 509.697 32.569C509.33 32.9807 509.045 33.4873 508.842 34.089C508.64 34.6843 508.538 35.3652 508.538 36.1315C508.538 36.9042 508.646 37.5913 508.861 38.193C509.083 38.7947 509.381 39.3013 509.754 39.713C510.128 40.1247 510.568 40.4413 511.075 40.663C511.582 40.8783 512.126 40.986 512.709 40.986C513.057 40.986 513.371 40.967 513.649 40.929C513.934 40.891 514.194 40.8308 514.428 40.7485C514.669 40.6662 514.894 40.5617 515.103 40.435C515.318 40.302 515.53 40.1405 515.739 39.9505C515.803 39.8935 515.869 39.8492 515.939 39.8175C516.009 39.7795 516.081 39.7605 516.157 39.7605ZM527.183 33.253V43H525.748C525.438 43 525.242 42.8575 525.159 42.5725L524.998 41.7935C524.599 42.1988 524.159 42.5282 523.677 42.7815C523.196 43.0285 522.629 43.152 521.977 43.152C521.445 43.152 520.973 43.0633 520.561 42.886C520.156 42.7023 519.814 42.4458 519.535 42.1165C519.257 41.7872 519.045 41.3977 518.899 40.948C518.76 40.492 518.69 39.9917 518.69 39.447V33.253H521.036V39.447C521.036 40.0423 521.173 40.5047 521.445 40.834C521.724 41.157 522.138 41.3185 522.689 41.3185C523.095 41.3185 523.475 41.2298 523.829 41.0525C524.184 40.8688 524.52 40.6187 524.836 40.302V33.253H527.183ZM531.723 34.944C532.027 34.3613 532.388 33.9053 532.806 33.576C533.224 33.2403 533.718 33.0725 534.288 33.0725C534.738 33.0725 535.099 33.1707 535.371 33.367L535.219 35.1245C535.187 35.2385 535.14 35.3208 535.077 35.3715C535.02 35.4158 534.94 35.438 534.839 35.438C534.744 35.438 534.602 35.4222 534.412 35.3905C534.228 35.3588 534.047 35.343 533.87 35.343C533.61 35.343 533.379 35.381 533.177 35.457C532.974 35.533 532.79 35.6438 532.626 35.7895C532.467 35.9288 532.325 36.0998 532.198 36.3025C532.078 36.5052 531.964 36.7363 531.856 36.996V43H529.51V33.253H530.887C531.128 33.253 531.296 33.2973 531.391 33.386C531.486 33.4683 531.549 33.6203 531.581 33.842L531.723 34.944ZM542.507 35.153C542.444 35.2543 542.378 35.3272 542.308 35.3715C542.238 35.4095 542.15 35.4285 542.042 35.4285C541.928 35.4285 541.804 35.3968 541.671 35.3335C541.545 35.2702 541.396 35.2005 541.225 35.1245C541.054 35.0422 540.858 34.9693 540.636 34.906C540.421 34.8427 540.164 34.811 539.866 34.811C539.404 34.811 539.04 34.9092 538.774 35.1055C538.514 35.3018 538.384 35.5583 538.384 35.875C538.384 36.084 538.451 36.2613 538.584 36.407C538.723 36.5463 538.904 36.6698 539.125 36.7775C539.353 36.8852 539.61 36.9833 539.895 37.072C540.18 37.1543 540.468 37.2462 540.759 37.3475C541.057 37.4488 541.348 37.566 541.633 37.699C541.918 37.8257 542.172 37.9903 542.393 38.193C542.621 38.3893 542.802 38.6268 542.935 38.9055C543.074 39.1842 543.144 39.5198 543.144 39.9125C543.144 40.3812 543.058 40.815 542.887 41.214C542.723 41.6067 542.476 41.9487 542.146 42.24C541.817 42.525 541.409 42.7498 540.921 42.9145C540.44 43.0728 539.882 43.152 539.249 43.152C538.913 43.152 538.584 43.1203 538.261 43.057C537.944 43 537.637 42.9177 537.339 42.81C537.048 42.7023 536.776 42.5757 536.522 42.43C536.275 42.2843 536.057 42.126 535.867 41.955L536.408 41.062C536.478 40.9543 536.56 40.872 536.655 40.815C536.75 40.758 536.871 40.7295 537.016 40.7295C537.162 40.7295 537.298 40.7707 537.425 40.853C537.558 40.9353 537.71 41.024 537.881 41.119C538.052 41.214 538.251 41.3027 538.479 41.385C538.714 41.4673 539.008 41.5085 539.363 41.5085C539.642 41.5085 539.879 41.4768 540.075 41.4135C540.278 41.3438 540.443 41.2552 540.569 41.1475C540.702 41.0398 540.797 40.9163 540.854 40.777C540.918 40.6313 540.949 40.4825 540.949 40.3305C540.949 40.1025 540.88 39.9157 540.74 39.77C540.607 39.6243 540.427 39.4977 540.199 39.39C539.977 39.2823 539.721 39.1873 539.429 39.105C539.144 39.0163 538.85 38.9213 538.546 38.82C538.248 38.7187 537.954 38.6015 537.662 38.4685C537.377 38.3292 537.121 38.155 536.893 37.946C536.671 37.737 536.491 37.4805 536.351 37.1765C536.218 36.8725 536.152 36.5052 536.152 36.0745C536.152 35.6755 536.231 35.2955 536.389 34.9345C536.548 34.5735 536.779 34.26 537.083 33.994C537.393 33.7217 537.776 33.5063 538.232 33.348C538.695 33.1833 539.227 33.101 539.828 33.101C540.5 33.101 541.111 33.2118 541.662 33.4335C542.213 33.6552 542.672 33.9465 543.039 34.3075L542.507 35.153ZM549.223 33.101C549.945 33.101 550.6 33.2182 551.189 33.4525C551.785 33.6868 552.291 34.0193 552.709 34.45C553.134 34.8807 553.46 35.4063 553.688 36.027C553.916 36.6477 554.03 37.3412 554.03 38.1075C554.03 38.8802 553.916 39.5768 553.688 40.1975C553.46 40.8182 553.134 41.347 552.709 41.784C552.291 42.221 551.785 42.5567 551.189 42.791C550.6 43.0253 549.945 43.1425 549.223 43.1425C548.495 43.1425 547.833 43.0253 547.237 42.791C546.642 42.5567 546.132 42.221 545.708 41.784C545.29 41.347 544.964 40.8182 544.729 40.1975C544.501 39.5768 544.387 38.8802 544.387 38.1075C544.387 37.3412 544.501 36.6477 544.729 36.027C544.964 35.4063 545.29 34.8807 545.708 34.45C546.132 34.0193 546.642 33.6868 547.237 33.4525C547.833 33.2182 548.495 33.101 549.223 33.101ZM549.223 41.3375C550.034 41.3375 550.632 41.0652 551.018 40.5205C551.411 39.9758 551.607 39.1778 551.607 38.1265C551.607 37.0752 551.411 36.274 551.018 35.723C550.632 35.172 550.034 34.8965 549.223 34.8965C548.4 34.8965 547.788 35.1752 547.389 35.7325C546.997 36.2835 546.8 37.0815 546.8 38.1265C546.8 39.1715 546.997 39.9695 547.389 40.5205C547.788 41.0652 548.4 41.3375 549.223 41.3375ZM561.767 35.153C561.704 35.2543 561.637 35.3272 561.568 35.3715C561.498 35.4095 561.409 35.4285 561.302 35.4285C561.188 35.4285 561.064 35.3968 560.931 35.3335C560.804 35.2702 560.656 35.2005 560.485 35.1245C560.314 35.0422 560.117 34.9693 559.896 34.906C559.68 34.8427 559.424 34.811 559.126 34.811C558.664 34.811 558.3 34.9092 558.034 35.1055C557.774 35.3018 557.644 35.5583 557.644 35.875C557.644 36.084 557.711 36.2613 557.844 36.407C557.983 36.5463 558.163 36.6698 558.385 36.7775C558.613 36.8852 558.87 36.9833 559.155 37.072C559.44 37.1543 559.728 37.2462 560.019 37.3475C560.317 37.4488 560.608 37.566 560.893 37.699C561.178 37.8257 561.431 37.9903 561.653 38.193C561.881 38.3893 562.062 38.6268 562.195 38.9055C562.334 39.1842 562.404 39.5198 562.404 39.9125C562.404 40.3812 562.318 40.815 562.147 41.214C561.982 41.6067 561.735 41.9487 561.406 42.24C561.077 42.525 560.668 42.7498 560.181 42.9145C559.699 43.0728 559.142 43.152 558.509 43.152C558.173 43.152 557.844 43.1203 557.521 43.057C557.204 43 556.897 42.9177 556.599 42.81C556.308 42.7023 556.035 42.5757 555.782 42.43C555.535 42.2843 555.317 42.126 555.127 41.955L555.668 41.062C555.738 40.9543 555.82 40.872 555.915 40.815C556.01 40.758 556.13 40.7295 556.276 40.7295C556.422 40.7295 556.558 40.7707 556.685 40.853C556.818 40.9353 556.97 41.024 557.141 41.119C557.312 41.214 557.511 41.3027 557.739 41.385C557.973 41.4673 558.268 41.5085 558.623 41.5085C558.901 41.5085 559.139 41.4768 559.335 41.4135C559.538 41.3438 559.702 41.2552 559.829 41.1475C559.962 41.0398 560.057 40.9163 560.114 40.777C560.177 40.6313 560.209 40.4825 560.209 40.3305C560.209 40.1025 560.139 39.9157 560 39.77C559.867 39.6243 559.687 39.4977 559.459 39.39C559.237 39.2823 558.98 39.1873 558.689 39.105C558.404 39.0163 558.11 38.9213 557.806 38.82C557.508 38.7187 557.213 38.6015 556.922 38.4685C556.637 38.3292 556.381 38.155 556.153 37.946C555.931 37.737 555.75 37.4805 555.611 37.1765C555.478 36.8725 555.412 36.5052 555.412 36.0745C555.412 35.6755 555.491 35.2955 555.649 34.9345C555.807 34.5735 556.039 34.26 556.343 33.994C556.653 33.7217 557.036 33.5063 557.492 33.348C557.954 33.1833 558.486 33.101 559.088 33.101C559.759 33.101 560.371 33.2118 560.922 33.4335C561.473 33.6552 561.932 33.9465 562.299 34.3075L561.767 35.153ZM575.069 37.0055C575.069 36.7015 575.025 36.4165 574.936 36.1505C574.854 35.8782 574.727 35.6407 574.556 35.438C574.385 35.2353 574.167 35.077 573.901 34.963C573.641 34.8427 573.337 34.7825 572.989 34.7825C572.311 34.7825 571.776 34.9757 571.383 35.362C570.997 35.7483 570.75 36.2962 570.642 37.0055H575.069ZM570.595 38.421C570.633 38.9213 570.722 39.3552 570.861 39.7225C571 40.0835 571.184 40.3843 571.412 40.625C571.64 40.8593 571.909 41.0367 572.219 41.157C572.536 41.271 572.884 41.328 573.264 41.328C573.644 41.328 573.971 41.2837 574.243 41.195C574.522 41.1063 574.762 41.0082 574.965 40.9005C575.174 40.7928 575.354 40.6947 575.506 40.606C575.665 40.5173 575.817 40.473 575.962 40.473C576.159 40.473 576.304 40.5458 576.399 40.6915L577.074 41.5465C576.814 41.8505 576.523 42.107 576.2 42.316C575.877 42.5187 575.538 42.6833 575.183 42.81C574.835 42.9303 574.477 43.0158 574.11 43.0665C573.749 43.1172 573.397 43.1425 573.055 43.1425C572.378 43.1425 571.748 43.0317 571.165 42.81C570.582 42.582 570.076 42.2495 569.645 41.8125C569.214 41.3692 568.875 40.8245 568.628 40.1785C568.381 39.5262 568.258 38.7725 568.258 37.9175C568.258 37.2525 568.366 36.6287 568.581 36.046C568.796 35.457 569.103 34.9472 569.502 34.5165C569.908 34.0795 570.399 33.7343 570.975 33.481C571.558 33.2277 572.213 33.101 572.941 33.101C573.556 33.101 574.123 33.1992 574.642 33.3955C575.161 33.5918 575.608 33.88 575.981 34.26C576.355 34.6337 576.646 35.096 576.855 35.647C577.071 36.1917 577.178 36.8155 577.178 37.5185C577.178 37.8732 577.14 38.1138 577.064 38.2405C576.988 38.3608 576.843 38.421 576.627 38.421H570.595ZM586.495 31.296V35.1055H591.302V37.072H586.495V40.9575H592.594V43H583.93V29.263H592.594V31.296H586.495ZM602.942 33.253L599.075 43H596.947L593.081 33.253H595.019C595.196 33.253 595.342 33.2942 595.456 33.3765C595.576 33.4588 595.655 33.5633 595.693 33.69L597.574 38.896C597.675 39.2 597.764 39.4977 597.84 39.789C597.916 40.0803 597.983 40.3717 598.04 40.663C598.103 40.3717 598.173 40.0803 598.249 39.789C598.325 39.4977 598.416 39.2 598.524 38.896L600.443 33.69C600.487 33.5633 600.567 33.4588 600.681 33.3765C600.795 33.2942 600.931 33.253 601.089 33.253H602.942ZM610.175 37.0055C610.175 36.7015 610.13 36.4165 610.042 36.1505C609.959 35.8782 609.833 35.6407 609.662 35.438C609.491 35.2353 609.272 35.077 609.006 34.963C608.747 34.8427 608.443 34.7825 608.094 34.7825C607.417 34.7825 606.881 34.9757 606.489 35.362C606.102 35.7483 605.855 36.2962 605.748 37.0055H610.175ZM605.7 38.421C605.738 38.9213 605.827 39.3552 605.966 39.7225C606.106 40.0835 606.289 40.3843 606.517 40.625C606.745 40.8593 607.014 41.0367 607.325 41.157C607.641 41.271 607.99 41.328 608.37 41.328C608.75 41.328 609.076 41.2837 609.348 41.195C609.627 41.1063 609.868 41.0082 610.07 40.9005C610.279 40.7928 610.46 40.6947 610.612 40.606C610.77 40.5173 610.922 40.473 611.068 40.473C611.264 40.473 611.41 40.5458 611.505 40.6915L612.179 41.5465C611.92 41.8505 611.628 42.107 611.305 42.316C610.982 42.5187 610.643 42.6833 610.289 42.81C609.94 42.9303 609.583 43.0158 609.215 43.0665C608.854 43.1172 608.503 43.1425 608.161 43.1425C607.483 43.1425 606.853 43.0317 606.27 42.81C605.688 42.582 605.181 42.2495 604.75 41.8125C604.32 41.3692 603.981 40.8245 603.734 40.1785C603.487 39.5262 603.363 38.7725 603.363 37.9175C603.363 37.2525 603.471 36.6287 603.686 36.046C603.902 35.457 604.209 34.9472 604.608 34.5165C605.013 34.0795 605.504 33.7343 606.08 33.481C606.663 33.2277 607.318 33.101 608.047 33.101C608.661 33.101 609.228 33.1992 609.747 33.3955C610.267 33.5918 610.713 33.88 611.087 34.26C611.46 34.6337 611.752 35.096 611.961 35.647C612.176 36.1917 612.284 36.8155 612.284 37.5185C612.284 37.8732 612.246 38.1138 612.17 38.2405C612.094 38.3608 611.948 38.421 611.733 38.421H605.7ZM616.239 34.45C616.436 34.2537 616.641 34.0732 616.857 33.9085C617.078 33.7375 617.31 33.595 617.55 33.481C617.797 33.3607 618.06 33.2688 618.339 33.2055C618.617 33.1358 618.921 33.101 619.251 33.101C619.783 33.101 620.255 33.1928 620.666 33.3765C621.078 33.5538 621.42 33.8072 621.692 34.1365C621.971 34.4595 622.18 34.849 622.319 35.305C622.465 35.7547 622.538 36.2518 622.538 36.7965V43H620.191V36.7965C620.191 36.2012 620.055 35.742 619.783 35.419C619.51 35.0897 619.096 34.925 618.538 34.925C618.133 34.925 617.753 35.0168 617.398 35.2005C617.044 35.3842 616.708 35.6343 616.391 35.951V43H614.045V33.253H615.479C615.783 33.253 615.983 33.3955 616.078 33.6805L616.239 34.45ZM627.888 43.152C627.04 43.152 626.387 42.9145 625.931 42.4395C625.482 41.9582 625.257 41.2963 625.257 40.454V35.0105H624.259C624.133 35.0105 624.025 34.9693 623.936 34.887C623.848 34.8047 623.803 34.6812 623.803 34.5165V33.5855L625.371 33.329L625.865 30.669C625.897 30.5423 625.957 30.4442 626.045 30.3745C626.134 30.3048 626.248 30.27 626.387 30.27H627.603V33.3385H630.206V35.0105H627.603V40.2925C627.603 40.5965 627.676 40.834 627.822 41.005C627.974 41.176 628.18 41.2615 628.439 41.2615C628.585 41.2615 628.705 41.2457 628.8 41.214C628.902 41.176 628.987 41.138 629.057 41.1C629.133 41.062 629.199 41.0272 629.256 40.9955C629.313 40.9575 629.37 40.9385 629.427 40.9385C629.497 40.9385 629.554 40.9575 629.598 40.9955C629.643 41.0272 629.69 41.0778 629.741 41.1475L630.444 42.2875C630.102 42.5725 629.709 42.7878 629.266 42.9335C628.823 43.0792 628.363 43.152 627.888 43.152ZM635.948 33.101C636.67 33.101 637.325 33.2182 637.914 33.4525C638.509 33.6868 639.016 34.0193 639.434 34.45C639.858 34.8807 640.185 35.4063 640.413 36.027C640.641 36.6477 640.755 37.3412 640.755 38.1075C640.755 38.8802 640.641 39.5768 640.413 40.1975C640.185 40.8182 639.858 41.347 639.434 41.784C639.016 42.221 638.509 42.5567 637.914 42.791C637.325 43.0253 636.67 43.1425 635.948 43.1425C635.219 43.1425 634.557 43.0253 633.962 42.791C633.367 42.5567 632.857 42.221 632.433 41.784C632.015 41.347 631.688 40.8182 631.454 40.1975C631.226 39.5768 631.112 38.8802 631.112 38.1075C631.112 37.3412 631.226 36.6477 631.454 36.027C631.688 35.4063 632.015 34.8807 632.433 34.45C632.857 34.0193 633.367 33.6868 633.962 33.4525C634.557 33.2182 635.219 33.101 635.948 33.101ZM635.948 41.3375C636.758 41.3375 637.357 41.0652 637.743 40.5205C638.136 39.9758 638.332 39.1778 638.332 38.1265C638.332 37.0752 638.136 36.274 637.743 35.723C637.357 35.172 636.758 34.8965 635.948 34.8965C635.124 34.8965 634.513 35.1752 634.114 35.7325C633.721 36.2835 633.525 37.0815 633.525 38.1265C633.525 39.1715 633.721 39.9695 634.114 40.5205C634.513 41.0652 635.124 41.3375 635.948 41.3375ZM648.492 35.153C648.428 35.2543 648.362 35.3272 648.292 35.3715C648.223 35.4095 648.134 35.4285 648.026 35.4285C647.912 35.4285 647.789 35.3968 647.656 35.3335C647.529 35.2702 647.38 35.2005 647.209 35.1245C647.038 35.0422 646.842 34.9693 646.62 34.906C646.405 34.8427 646.148 34.811 645.851 34.811C645.388 34.811 645.024 34.9092 644.758 35.1055C644.499 35.3018 644.369 35.5583 644.369 35.875C644.369 36.084 644.435 36.2613 644.568 36.407C644.708 36.5463 644.888 36.6698 645.11 36.7775C645.338 36.8852 645.594 36.9833 645.879 37.072C646.164 37.1543 646.452 37.2462 646.744 37.3475C647.041 37.4488 647.333 37.566 647.618 37.699C647.903 37.8257 648.156 37.9903 648.378 38.193C648.606 38.3893 648.786 38.6268 648.919 38.9055C649.059 39.1842 649.128 39.5198 649.128 39.9125C649.128 40.3812 649.043 40.815 648.872 41.214C648.707 41.6067 648.46 41.9487 648.131 42.24C647.801 42.525 647.393 42.7498 646.905 42.9145C646.424 43.0728 645.867 43.152 645.233 43.152C644.898 43.152 644.568 43.1203 644.245 43.057C643.929 43 643.621 42.9177 643.324 42.81C643.032 42.7023 642.76 42.5757 642.507 42.43C642.26 42.2843 642.041 42.126 641.851 41.955L642.393 41.062C642.462 40.9543 642.545 40.872 642.64 40.815C642.735 40.758 642.855 40.7295 643.001 40.7295C643.146 40.7295 643.283 40.7707 643.409 40.853C643.542 40.9353 643.694 41.024 643.865 41.119C644.036 41.214 644.236 41.3027 644.464 41.385C644.698 41.4673 644.993 41.5085 645.347 41.5085C645.626 41.5085 645.863 41.4768 646.06 41.4135C646.262 41.3438 646.427 41.2552 646.554 41.1475C646.687 41.0398 646.782 40.9163 646.839 40.777C646.902 40.6313 646.934 40.4825 646.934 40.3305C646.934 40.1025 646.864 39.9157 646.725 39.77C646.592 39.6243 646.411 39.4977 646.183 39.39C645.962 39.2823 645.705 39.1873 645.414 39.105C645.129 39.0163 644.834 38.9213 644.53 38.82C644.233 38.7187 643.938 38.6015 643.647 38.4685C643.362 38.3292 643.105 38.155 642.877 37.946C642.656 37.737 642.475 37.4805 642.336 37.1765C642.203 36.8725 642.136 36.5052 642.136 36.0745C642.136 35.6755 642.215 35.2955 642.374 34.9345C642.532 34.5735 642.763 34.26 643.067 33.994C643.378 33.7217 643.761 33.5063 644.217 33.348C644.679 33.1833 645.211 33.101 645.813 33.101C646.484 33.101 647.095 33.2118 647.646 33.4335C648.197 33.6552 648.656 33.9465 649.024 34.3075L648.492 35.153ZM663.941 36.122V37.072L656.407 41.005V39.333C656.407 39.2063 656.439 39.0892 656.502 38.9815C656.566 38.8738 656.67 38.7852 656.816 38.7155L660.264 36.939C660.562 36.7933 660.888 36.6793 661.243 36.597C660.888 36.5147 660.562 36.4007 660.264 36.255L656.816 34.488C656.67 34.412 656.566 34.3233 656.502 34.222C656.439 34.1143 656.407 33.9972 656.407 33.8705V32.1985L663.941 36.122Z" fill="#7D8A98"/>
<path d="M675.992 36.1695C676.46 36.1695 676.869 36.1125 677.217 35.9985C677.565 35.8782 677.854 35.7103 678.082 35.495C678.316 35.2733 678.49 35.0073 678.604 34.697C678.718 34.3803 678.775 34.0288 678.775 33.6425C678.775 33.2752 678.718 32.9427 678.604 32.645C678.49 32.3473 678.319 32.094 678.091 31.885C677.863 31.676 677.575 31.5177 677.227 31.41C676.878 31.296 676.467 31.239 675.992 31.239H674.082V36.1695H675.992ZM675.992 29.263C676.91 29.263 677.705 29.3707 678.376 29.586C679.047 29.8013 679.602 30.1022 680.039 30.4885C680.476 30.8748 680.799 31.3372 681.008 31.8755C681.223 32.4138 681.331 33.0028 681.331 33.6425C681.331 34.3075 681.22 34.9187 680.998 35.476C680.776 36.027 680.444 36.502 680.001 36.901C679.557 37.3 679 37.6103 678.329 37.832C677.664 38.0537 676.885 38.1645 675.992 38.1645H674.082V43H671.527V29.263H675.992ZM687.772 38.839C687.094 38.8707 686.524 38.9308 686.062 39.0195C685.6 39.1018 685.229 39.2095 684.95 39.3425C684.672 39.4755 684.472 39.6307 684.352 39.808C684.232 39.9853 684.171 40.1785 684.171 40.3875C684.171 40.7992 684.292 41.0937 684.532 41.271C684.779 41.4483 685.099 41.537 685.492 41.537C685.973 41.537 686.388 41.4515 686.736 41.2805C687.091 41.1032 687.436 40.8372 687.772 40.4825V38.839ZM682.395 34.6115C683.516 33.5855 684.865 33.0725 686.442 33.0725C687.012 33.0725 687.522 33.1675 687.971 33.3575C688.421 33.5412 688.801 33.8008 689.111 34.1365C689.422 34.4658 689.656 34.8617 689.814 35.324C689.979 35.7863 690.061 36.293 690.061 36.844V43H688.997C688.776 43 688.605 42.9683 688.484 42.905C688.364 42.8353 688.269 42.6992 688.199 42.4965L687.99 41.7935C687.743 42.0152 687.503 42.2115 687.268 42.3825C687.034 42.5472 686.79 42.6865 686.537 42.8005C686.284 42.9145 686.011 43 685.72 43.057C685.435 43.1203 685.118 43.152 684.77 43.152C684.358 43.152 683.978 43.0982 683.63 42.9905C683.282 42.8765 682.981 42.7087 682.727 42.487C682.474 42.2653 682.278 41.9898 682.138 41.6605C681.999 41.3312 681.929 40.948 681.929 40.511C681.929 40.264 681.971 40.0202 682.053 39.7795C682.135 39.5325 682.268 39.2982 682.452 39.0765C682.642 38.8548 682.886 38.6458 683.183 38.4495C683.481 38.2532 683.845 38.0822 684.276 37.9365C684.713 37.7908 685.22 37.6737 685.796 37.585C686.372 37.49 687.031 37.433 687.772 37.414V36.844C687.772 36.1917 687.633 35.7103 687.354 35.4C687.075 35.0833 686.673 34.925 686.147 34.925C685.767 34.925 685.451 34.9693 685.197 35.058C684.95 35.1467 684.732 35.248 684.542 35.362C684.352 35.4697 684.178 35.5678 684.019 35.6565C683.867 35.7452 683.696 35.7895 683.506 35.7895C683.342 35.7895 683.202 35.7483 683.088 35.666C682.974 35.5773 682.883 35.476 682.813 35.362L682.395 34.6115ZM694.646 28.883V43H692.3V28.883H694.646ZM703.264 37.0055C703.264 36.7015 703.219 36.4165 703.131 36.1505C703.048 35.8782 702.922 35.6407 702.751 35.438C702.58 35.2353 702.361 35.077 702.095 34.963C701.836 34.8427 701.532 34.7825 701.183 34.7825C700.506 34.7825 699.97 34.9757 699.578 35.362C699.191 35.7483 698.944 36.2962 698.837 37.0055H703.264ZM698.789 38.421C698.827 38.9213 698.916 39.3552 699.055 39.7225C699.195 40.0835 699.378 40.3843 699.606 40.625C699.834 40.8593 700.103 41.0367 700.414 41.157C700.73 41.271 701.079 41.328 701.459 41.328C701.839 41.328 702.165 41.2837 702.437 41.195C702.716 41.1063 702.957 41.0082 703.159 40.9005C703.368 40.7928 703.549 40.6947 703.701 40.606C703.859 40.5173 704.011 40.473 704.157 40.473C704.353 40.473 704.499 40.5458 704.594 40.6915L705.268 41.5465C705.009 41.8505 704.717 42.107 704.394 42.316C704.071 42.5187 703.732 42.6833 703.378 42.81C703.029 42.9303 702.672 43.0158 702.304 43.0665C701.943 43.1172 701.592 43.1425 701.25 43.1425C700.572 43.1425 699.942 43.0317 699.359 42.81C698.777 42.582 698.27 42.2495 697.839 41.8125C697.409 41.3692 697.07 40.8245 696.823 40.1785C696.576 39.5262 696.452 38.7725 696.452 37.9175C696.452 37.2525 696.56 36.6287 696.775 36.046C696.991 35.457 697.298 34.9472 697.697 34.5165C698.102 34.0795 698.593 33.7343 699.169 33.481C699.752 33.2277 700.407 33.101 701.136 33.101C701.75 33.101 702.317 33.1992 702.836 33.3955C703.356 33.5918 703.802 33.88 704.176 34.26C704.549 34.6337 704.841 35.096 705.05 35.647C705.265 36.1917 705.373 36.8155 705.373 37.5185C705.373 37.8732 705.335 38.1138 705.259 38.2405C705.183 38.3608 705.037 38.421 704.822 38.421H698.789ZM713.081 35.153C713.017 35.2543 712.951 35.3272 712.881 35.3715C712.811 35.4095 712.723 35.4285 712.615 35.4285C712.501 35.4285 712.378 35.3968 712.245 35.3335C712.118 35.2702 711.969 35.2005 711.798 35.1245C711.627 35.0422 711.431 34.9693 711.209 34.906C710.994 34.8427 710.737 34.811 710.44 34.811C709.977 34.811 709.613 34.9092 709.347 35.1055C709.087 35.3018 708.958 35.5583 708.958 35.875C708.958 36.084 709.024 36.2613 709.157 36.407C709.296 36.5463 709.477 36.6698 709.699 36.7775C709.927 36.8852 710.183 36.9833 710.468 37.072C710.753 37.1543 711.041 37.2462 711.333 37.3475C711.63 37.4488 711.922 37.566 712.207 37.699C712.492 37.8257 712.745 37.9903 712.967 38.193C713.195 38.3893 713.375 38.6268 713.508 38.9055C713.647 39.1842 713.717 39.5198 713.717 39.9125C713.717 40.3812 713.632 40.815 713.461 41.214C713.296 41.6067 713.049 41.9487 712.72 42.24C712.39 42.525 711.982 42.7498 711.494 42.9145C711.013 43.0728 710.455 43.152 709.822 43.152C709.486 43.152 709.157 43.1203 708.834 43.057C708.517 43 708.21 42.9177 707.913 42.81C707.621 42.7023 707.349 42.5757 707.096 42.43C706.849 42.2843 706.63 42.126 706.44 41.955L706.982 41.062C707.051 40.9543 707.134 40.872 707.229 40.815C707.324 40.758 707.444 40.7295 707.59 40.7295C707.735 40.7295 707.871 40.7707 707.998 40.853C708.131 40.9353 708.283 41.024 708.454 41.119C708.625 41.214 708.825 41.3027 709.053 41.385C709.287 41.4673 709.581 41.5085 709.936 41.5085C710.215 41.5085 710.452 41.4768 710.649 41.4135C710.851 41.3438 711.016 41.2552 711.143 41.1475C711.276 41.0398 711.371 40.9163 711.428 40.777C711.491 40.6313 711.523 40.4825 711.523 40.3305C711.523 40.1025 711.453 39.9157 711.314 39.77C711.181 39.6243 711 39.4977 710.772 39.39C710.55 39.2823 710.294 39.1873 710.003 39.105C709.718 39.0163 709.423 38.9213 709.119 38.82C708.821 38.7187 708.527 38.6015 708.236 38.4685C707.951 38.3292 707.694 38.155 707.466 37.946C707.244 37.737 707.064 37.4805 706.925 37.1765C706.792 36.8725 706.725 36.5052 706.725 36.0745C706.725 35.6755 706.804 35.2955 706.963 34.9345C707.121 34.5735 707.352 34.26 707.656 33.994C707.966 33.7217 708.35 33.5063 708.806 33.348C709.268 33.1833 709.8 33.101 710.402 33.101C711.073 33.101 711.684 33.2118 712.235 33.4335C712.786 33.6552 713.245 33.9465 713.613 34.3075L713.081 35.153ZM718.732 43.152C717.884 43.152 717.231 42.9145 716.775 42.4395C716.326 41.9582 716.101 41.2963 716.101 40.454V35.0105H715.103C714.977 35.0105 714.869 34.9693 714.78 34.887C714.692 34.8047 714.647 34.6812 714.647 34.5165V33.5855L716.215 33.329L716.709 30.669C716.74 30.5423 716.801 30.4442 716.889 30.3745C716.978 30.3048 717.092 30.27 717.231 30.27H718.447V33.3385H721.05V35.0105H718.447V40.2925C718.447 40.5965 718.52 40.834 718.666 41.005C718.818 41.176 719.024 41.2615 719.283 41.2615C719.429 41.2615 719.549 41.2457 719.644 41.214C719.746 41.176 719.831 41.138 719.901 41.1C719.977 41.062 720.043 41.0272 720.1 40.9955C720.157 40.9575 720.214 40.9385 720.271 40.9385C720.341 40.9385 720.398 40.9575 720.442 40.9955C720.487 41.0272 720.534 41.0778 720.585 41.1475L721.288 42.2875C720.946 42.5725 720.553 42.7878 720.11 42.9335C719.666 43.0792 719.207 43.152 718.732 43.152ZM724.766 34.944C725.07 34.3613 725.431 33.9053 725.849 33.576C726.267 33.2403 726.761 33.0725 727.331 33.0725C727.781 33.0725 728.142 33.1707 728.414 33.367L728.262 35.1245C728.23 35.2385 728.183 35.3208 728.12 35.3715C728.063 35.4158 727.983 35.438 727.882 35.438C727.787 35.438 727.645 35.4222 727.455 35.3905C727.271 35.3588 727.09 35.343 726.913 35.343C726.653 35.343 726.422 35.381 726.22 35.457C726.017 35.533 725.833 35.6438 725.669 35.7895C725.51 35.9288 725.368 36.0998 725.241 36.3025C725.121 36.5052 725.007 36.7363 724.899 36.996V43H722.553V33.253H723.93C724.171 33.253 724.339 33.2973 724.434 33.386C724.529 33.4683 724.592 33.6203 724.624 33.842L724.766 34.944ZM734.66 38.839C733.982 38.8707 733.412 38.9308 732.95 39.0195C732.487 39.1018 732.117 39.2095 731.838 39.3425C731.559 39.4755 731.36 39.6307 731.24 39.808C731.119 39.9853 731.059 40.1785 731.059 40.3875C731.059 40.7992 731.179 41.0937 731.42 41.271C731.667 41.4483 731.987 41.537 732.38 41.537C732.861 41.537 733.276 41.4515 733.624 41.2805C733.979 41.1032 734.324 40.8372 734.66 40.4825V38.839ZM729.283 34.6115C730.404 33.5855 731.753 33.0725 733.33 33.0725C733.9 33.0725 734.409 33.1675 734.859 33.3575C735.309 33.5412 735.689 33.8008 735.999 34.1365C736.309 34.4658 736.544 34.8617 736.702 35.324C736.867 35.7863 736.949 36.293 736.949 36.844V43H735.885C735.663 43 735.492 42.9683 735.372 42.905C735.252 42.8353 735.157 42.6992 735.087 42.4965L734.878 41.7935C734.631 42.0152 734.39 42.2115 734.156 42.3825C733.922 42.5472 733.678 42.6865 733.425 42.8005C733.171 42.9145 732.899 43 732.608 43.057C732.323 43.1203 732.006 43.152 731.658 43.152C731.246 43.152 730.866 43.0982 730.518 42.9905C730.169 42.8765 729.868 42.7087 729.615 42.487C729.362 42.2653 729.165 41.9898 729.026 41.6605C728.887 41.3312 728.817 40.948 728.817 40.511C728.817 40.264 728.858 40.0202 728.941 39.7795C729.023 39.5325 729.156 39.2982 729.34 39.0765C729.53 38.8548 729.773 38.6458 730.071 38.4495C730.369 38.2532 730.733 38.0822 731.164 37.9365C731.601 37.7908 732.107 37.6737 732.684 37.585C733.26 37.49 733.919 37.433 734.66 37.414V36.844C734.66 36.1917 734.52 35.7103 734.242 35.4C733.963 35.0833 733.561 34.925 733.035 34.925C732.655 34.925 732.338 34.9693 732.085 35.058C731.838 35.1467 731.62 35.248 731.43 35.362C731.24 35.4697 731.065 35.5678 730.907 35.6565C730.755 35.7452 730.584 35.7895 730.394 35.7895C730.229 35.7895 730.09 35.7483 729.976 35.666C729.862 35.5773 729.77 35.476 729.701 35.362L729.283 34.6115Z" fill="#384E65"/>
<path d="M705.564 156.682C704.365 156.682 703.161 156.374 702.056 155.752C699.766 154.466 698.398 152.132 698.398 149.506V146.917C698.398 146.012 699.133 145.277 700.038 145.277C700.942 145.277 701.677 146.012 701.677 146.917V149.506C701.677 150.93 702.418 152.197 703.661 152.892C704.902 153.59 706.369 153.559 707.585 152.819L734.858 136.153C736.022 135.441 736.715 134.203 736.715 132.841C736.715 131.478 736.02 130.237 734.858 129.528L707.585 112.863C706.369 112.122 704.902 112.091 703.661 112.789C702.421 113.484 701.677 114.751 701.677 116.175V118.92C701.677 119.824 700.942 120.559 700.038 120.559C699.133 120.559 698.398 119.824 698.398 118.92V116.175C698.398 113.549 699.766 111.215 702.056 109.929C704.348 108.645 707.053 108.693 709.295 110.064L736.568 126.73C738.713 128.041 739.997 130.325 739.997 132.841C739.997 135.356 738.716 137.64 736.568 138.952L709.295 155.614C708.136 156.323 706.85 156.68 705.564 156.68V156.682Z" fill="#F93549"/>
<path d="M632.44 134.765H635.538C635.538 136.944 634.992 138.618 633.904 139.785C632.813 140.955 631.275 141.54 629.291 141.54C624.918 141.54 622.73 138.968 622.73 133.827V132.385C622.73 128.332 623.853 125.794 626.094 124.768C626.976 124.352 628.039 124.143 629.291 124.143C631.117 124.143 632.604 124.643 633.748 125.644C634.893 126.645 635.467 128.092 635.467 129.983H632.344C632.165 129.039 631.855 128.324 631.405 127.843C630.956 127.362 630.252 127.122 629.291 127.122C628.169 127.122 627.335 127.476 626.792 128.179C626.408 128.677 626.184 129.525 626.119 130.726C626.088 131.11 626.071 131.631 626.071 132.286V133.776C626.071 135.619 626.326 136.874 626.84 137.547C627.369 138.219 628.189 138.556 629.302 138.556C630.416 138.556 631.185 138.247 631.609 137.631C632.033 137.015 632.307 136.057 632.437 134.76L632.44 134.765Z" fill="#F93549"/>
<path d="M650.918 132.049V133.346C650.918 136.212 650.378 138.296 649.295 139.593C648.213 140.89 646.48 141.541 644.092 141.541C641.703 141.541 639.979 140.89 638.913 139.593C637.848 138.296 637.316 136.19 637.316 133.276V132.026C637.316 129.367 637.856 127.388 638.939 126.091C640.021 124.793 641.734 124.146 644.08 124.146C646.426 124.146 648.153 124.805 649.259 126.116C650.364 127.43 650.915 129.406 650.915 132.049H650.918ZM647.577 133.276V132.385C647.577 130.848 647.385 129.621 647 128.711C646.551 127.654 645.59 127.125 644.117 127.125C642.644 127.125 641.658 127.654 641.211 128.711C640.841 129.576 640.66 130.8 640.66 132.385V133.276C640.66 135.342 640.949 136.735 641.525 137.456C641.748 137.761 642.082 138.021 642.523 138.236C642.964 138.451 643.492 138.561 644.109 138.561C644.725 138.561 645.25 138.457 645.683 138.248C646.115 138.041 646.452 137.784 646.692 137.479C646.932 137.176 647.116 136.775 647.243 136.277C647.466 135.495 647.58 134.491 647.58 133.276H647.577Z" fill="#F93549"/>
<path d="M666.486 131.184L663.411 137.671C662.961 138.536 662.404 138.968 661.74 138.968C661.076 138.968 660.519 138.51 660.07 137.597L656.946 131.181V141.393H653.605V124.287H656.898L661.726 134.163L666.531 124.287H669.824V141.393H666.483V131.181L666.486 131.184Z" fill="#F93549"/>
<path d="M684.599 141.396H678.544C676.622 141.396 675.271 141.066 674.497 140.398C673.719 139.734 673.332 138.561 673.332 136.879V124.29H684.601V127.269H676.673V131.283H682.224L681.984 134.262H676.673V136.642C676.673 137.315 676.826 137.778 677.131 138.035C677.433 138.293 677.987 138.42 678.787 138.42H684.601V141.399L684.599 141.396Z" fill="#F93549"/>
<path d="M696.518 134.765H699.616C699.616 136.944 699.07 138.618 697.982 139.785C696.891 140.955 695.353 141.54 693.369 141.54C688.996 141.54 686.809 138.968 686.809 133.827V132.385C686.809 128.332 687.931 125.794 690.172 124.768C691.054 124.352 692.117 124.143 693.369 124.143C695.195 124.143 696.682 124.643 697.826 125.644C698.971 126.645 699.545 128.092 699.545 129.983H696.422C696.244 129.039 695.933 128.324 695.483 127.843C695.034 127.362 694.33 127.122 693.369 127.122C692.247 127.122 691.413 127.476 690.87 128.179C690.486 128.677 690.263 129.525 690.198 130.726C690.167 131.11 690.15 131.631 690.15 132.286V133.776C690.15 135.619 690.404 136.874 690.918 137.547C691.447 138.219 692.267 138.556 693.38 138.556C694.494 138.556 695.263 138.247 695.687 137.631C696.111 137.015 696.385 136.057 696.515 134.76L696.518 134.765Z" fill="#F93549"/>
<path d="M713.719 141.396H707.664C705.742 141.396 704.391 141.066 703.614 140.398C702.836 139.734 702.449 138.561 702.449 136.879V124.29H713.719V127.269H705.79V131.283H711.339L711.098 134.262H705.787V136.642C705.787 137.315 705.937 137.778 706.242 138.035C706.545 138.293 707.099 138.42 707.899 138.42H713.713V141.399L713.719 141.396Z" fill="#F93549"/>
<path d="M625.701 114.717C625.701 114.248 626.196 113.804 627.109 113.804C627.759 113.804 628.177 114.038 628.177 114.584C628.177 114.714 628.177 114.739 628.152 114.898H630.314C630.365 114.584 630.419 114.352 630.419 114.118C630.419 112.973 629.09 112.374 627.397 112.374C625.029 112.374 623.491 113.572 623.491 115.161C623.491 117.764 627.632 116.984 627.632 118.287C627.632 118.807 626.954 119.197 626.069 119.197C625.289 119.197 624.74 118.883 624.74 118.312C624.74 118.233 624.74 118.128 624.766 117.947H622.629C622.604 118.233 622.578 118.442 622.578 118.651C622.578 120.189 624.192 120.63 625.809 120.63C628.31 120.63 629.95 119.536 629.95 117.868C629.95 115.186 625.704 116.124 625.704 114.717M641.409 120.63C643.701 120.63 645.159 119.457 645.159 118.027C645.159 117.218 644.795 116.568 643.52 116.334C644.718 116.178 645.733 115.344 645.733 114.197C645.733 113.049 644.925 112.374 643.494 112.374H639.249L637.505 120.63H641.411H641.409ZM652.763 118.391C652.763 117.348 652.528 116.803 651.253 116.568C652.763 116.464 653.857 115.553 653.857 114.301C653.857 113.233 652.944 112.374 651.33 112.374H647.189L645.391 120.63H647.76L648.464 117.427H649.557C649.871 117.427 650.468 117.427 650.468 118.287C650.468 118.677 650.338 119.771 650.312 120.63H652.734C652.709 119.745 652.76 119.016 652.76 118.391M632.861 119.041L633.251 117.269H636.977L637.316 115.681H633.59L633.955 113.987H637.94L638.28 112.399H631.976L630.204 120.63H636.584L636.923 119.041H632.861ZM669.948 112.399H663.645L661.873 120.63H668.252L668.591 119.041H664.501L664.866 117.269H668.668L669.007 115.681H665.205L665.57 113.987H669.606L669.945 112.399H669.948ZM652.734 120.63H655.027L655.861 119.067H658.882L659.012 120.63H661.381L660.236 112.427H657.398L652.737 120.63H652.734ZM642.42 113.832C642.994 113.832 643.359 114.092 643.359 114.666C643.359 115.24 642.969 115.681 642.16 115.681H640.806L641.197 113.832H642.42ZM648.8 115.941L649.215 113.908H650.23C650.595 113.908 651.479 113.908 651.479 114.768C651.479 115.471 650.906 115.941 649.97 115.941H648.797H648.8ZM658.489 114.092H658.515L658.775 117.504H656.692L658.489 114.092ZM641.691 117.165C642.056 117.165 642.785 117.244 642.785 118.075C642.785 118.699 642.316 119.118 641.377 119.118H640.074L640.49 117.165H641.688H641.691Z" fill="#005EB8"/>
<path d="M416.241 177.355V183.971H424.59V187.387H416.241V194.135H426.834V197.683H411.786V173.824H426.834V177.355H416.241ZM429.77 197.683V180.754H432.261C432.789 180.754 433.136 181.001 433.301 181.496L433.565 182.75C433.862 182.42 434.17 182.118 434.489 181.843C434.819 181.568 435.165 181.331 435.528 181.133C435.902 180.935 436.298 180.781 436.716 180.671C437.145 180.55 437.613 180.49 438.119 180.49C439.186 180.49 440.06 180.781 440.742 181.364C441.435 181.936 441.952 182.701 442.293 183.658C442.557 183.097 442.887 182.618 443.283 182.222C443.679 181.815 444.114 181.485 444.587 181.232C445.06 180.979 445.56 180.792 446.088 180.671C446.627 180.55 447.166 180.49 447.705 180.49C448.64 180.49 449.471 180.633 450.197 180.919C450.923 181.205 451.533 181.623 452.028 182.173C452.523 182.723 452.897 183.394 453.15 184.186C453.414 184.978 453.546 185.885 453.546 186.908V197.683H449.471V186.908C449.471 185.83 449.234 185.022 448.761 184.483C448.288 183.933 447.595 183.658 446.682 183.658C446.264 183.658 445.874 183.729 445.511 183.872C445.159 184.015 444.845 184.224 444.57 184.499C444.306 184.763 444.097 185.099 443.943 185.506C443.789 185.913 443.712 186.38 443.712 186.908V197.683H439.62V186.908C439.62 185.775 439.389 184.95 438.927 184.433C438.476 183.916 437.811 183.658 436.931 183.658C436.337 183.658 435.781 183.806 435.264 184.103C434.758 184.389 434.285 184.785 433.845 185.291V197.683H429.77ZM461.496 193.294C461.958 193.855 462.458 194.251 462.997 194.482C463.547 194.713 464.141 194.828 464.779 194.828C465.395 194.828 465.951 194.713 466.446 194.482C466.941 194.251 467.359 193.899 467.7 193.426C468.052 192.953 468.321 192.359 468.508 191.644C468.695 190.918 468.789 190.065 468.789 189.086C468.789 188.096 468.706 187.26 468.541 186.578C468.387 185.885 468.162 185.324 467.865 184.895C467.568 184.466 467.205 184.153 466.776 183.955C466.358 183.757 465.879 183.658 465.34 183.658C464.493 183.658 463.773 183.839 463.179 184.202C462.585 184.554 462.024 185.055 461.496 185.704V193.294ZM461.281 183.064C461.974 182.283 462.761 181.65 463.641 181.166C464.521 180.682 465.555 180.44 466.743 180.44C467.667 180.44 468.508 180.633 469.267 181.018C470.037 181.403 470.697 181.964 471.247 182.701C471.808 183.427 472.237 184.329 472.534 185.407C472.842 186.474 472.996 187.7 472.996 189.086C472.996 190.351 472.826 191.523 472.485 192.601C472.144 193.679 471.654 194.614 471.016 195.406C470.389 196.198 469.625 196.819 468.723 197.27C467.832 197.71 466.831 197.93 465.72 197.93C464.774 197.93 463.965 197.787 463.294 197.501C462.623 197.204 462.024 196.797 461.496 196.28V203.21H457.42V180.754H459.912C460.44 180.754 460.786 181.001 460.951 181.496L461.281 183.064ZM480.021 183.691C480.549 182.679 481.176 181.887 481.902 181.315C482.628 180.732 483.486 180.44 484.476 180.44C485.257 180.44 485.884 180.611 486.357 180.952L486.093 184.004C486.038 184.202 485.955 184.345 485.845 184.433C485.746 184.51 485.609 184.549 485.433 184.549C485.268 184.549 485.02 184.521 484.69 184.466C484.371 184.411 484.058 184.384 483.75 184.384C483.299 184.384 482.897 184.45 482.545 184.582C482.193 184.714 481.874 184.906 481.588 185.159C481.313 185.401 481.066 185.698 480.846 186.05C480.637 186.402 480.439 186.804 480.252 187.255V197.683H476.176V180.754H478.569C478.987 180.754 479.278 180.831 479.443 180.985C479.608 181.128 479.718 181.392 479.773 181.777L480.021 183.691ZM498.91 187.271C498.91 186.743 498.833 186.248 498.679 185.786C498.536 185.313 498.316 184.901 498.019 184.549C497.722 184.197 497.342 183.922 496.88 183.724C496.429 183.515 495.901 183.41 495.296 183.41C494.119 183.41 493.19 183.746 492.508 184.417C491.837 185.088 491.408 186.039 491.221 187.271H498.91ZM491.138 189.73C491.204 190.599 491.358 191.352 491.6 191.99C491.842 192.617 492.161 193.14 492.557 193.558C492.953 193.965 493.421 194.273 493.96 194.482C494.51 194.68 495.115 194.779 495.775 194.779C496.435 194.779 497.001 194.702 497.474 194.548C497.958 194.394 498.376 194.223 498.728 194.036C499.091 193.849 499.405 193.679 499.669 193.525C499.944 193.371 500.208 193.294 500.461 193.294C500.802 193.294 501.055 193.42 501.22 193.673L502.391 195.158C501.94 195.686 501.434 196.132 500.873 196.495C500.312 196.847 499.724 197.133 499.108 197.353C498.503 197.562 497.881 197.71 497.243 197.798C496.616 197.886 496.006 197.93 495.412 197.93C494.235 197.93 493.14 197.738 492.128 197.353C491.116 196.957 490.236 196.379 489.488 195.62C488.74 194.85 488.152 193.904 487.723 192.782C487.294 191.649 487.079 190.34 487.079 188.855C487.079 187.7 487.266 186.617 487.64 185.605C488.014 184.582 488.548 183.696 489.241 182.948C489.945 182.189 490.797 181.59 491.798 181.15C492.81 180.71 493.949 180.49 495.214 180.49C496.281 180.49 497.265 180.66 498.167 181.001C499.069 181.342 499.845 181.843 500.494 182.503C501.143 183.152 501.649 183.955 502.012 184.912C502.386 185.858 502.573 186.941 502.573 188.162C502.573 188.778 502.507 189.196 502.375 189.416C502.243 189.625 501.99 189.73 501.616 189.73H491.138ZM511.113 197.947C509.639 197.947 508.506 197.534 507.714 196.709C506.933 195.873 506.543 194.724 506.543 193.261V183.806H504.81C504.59 183.806 504.403 183.735 504.249 183.592C504.095 183.449 504.018 183.234 504.018 182.948V181.331L506.741 180.886L507.599 176.266C507.654 176.046 507.758 175.875 507.912 175.754C508.066 175.633 508.264 175.573 508.506 175.573H510.618V180.902H515.139V183.806H510.618V192.98C510.618 193.508 510.745 193.921 510.998 194.218C511.262 194.515 511.619 194.663 512.07 194.663C512.323 194.663 512.532 194.636 512.697 194.581C512.873 194.515 513.022 194.449 513.143 194.383C513.275 194.317 513.39 194.256 513.489 194.201C513.588 194.135 513.687 194.102 513.786 194.102C513.907 194.102 514.006 194.135 514.083 194.201C514.16 194.256 514.243 194.344 514.331 194.465L515.552 196.445C514.958 196.94 514.276 197.314 513.506 197.567C512.736 197.82 511.938 197.947 511.113 197.947ZM528.526 187.271C528.526 186.743 528.449 186.248 528.295 185.786C528.152 185.313 527.932 184.901 527.635 184.549C527.338 184.197 526.958 183.922 526.496 183.724C526.045 183.515 525.517 183.41 524.912 183.41C523.735 183.41 522.806 183.746 522.124 184.417C521.453 185.088 521.024 186.039 520.837 187.271H528.526ZM520.754 189.73C520.82 190.599 520.974 191.352 521.216 191.99C521.458 192.617 521.777 193.14 522.173 193.558C522.569 193.965 523.037 194.273 523.576 194.482C524.126 194.68 524.731 194.779 525.391 194.779C526.051 194.779 526.617 194.702 527.09 194.548C527.574 194.394 527.992 194.223 528.344 194.036C528.707 193.849 529.021 193.679 529.285 193.525C529.56 193.371 529.824 193.294 530.077 193.294C530.418 193.294 530.671 193.42 530.836 193.673L532.007 195.158C531.556 195.686 531.05 196.132 530.489 196.495C529.928 196.847 529.34 197.133 528.724 197.353C528.119 197.562 527.497 197.71 526.859 197.798C526.232 197.886 525.622 197.93 525.028 197.93C523.851 197.93 522.756 197.738 521.744 197.353C520.732 196.957 519.852 196.379 519.104 195.62C518.356 194.85 517.768 193.904 517.339 192.782C516.91 191.649 516.695 190.34 516.695 188.855C516.695 187.7 516.882 186.617 517.256 185.605C517.63 184.582 518.164 183.696 518.857 182.948C519.561 182.189 520.413 181.59 521.414 181.15C522.426 180.71 523.565 180.49 524.83 180.49C525.897 180.49 526.881 180.66 527.783 181.001C528.685 181.342 529.461 181.843 530.11 182.503C530.759 183.152 531.265 183.955 531.628 184.912C532.002 185.858 532.189 186.941 532.189 188.162C532.189 188.778 532.123 189.196 531.991 189.416C531.859 189.625 531.606 189.73 531.232 189.73H520.754ZM547.375 184.334C547.254 184.488 547.133 184.609 547.012 184.697C546.902 184.785 546.737 184.829 546.517 184.829C546.308 184.829 546.104 184.769 545.906 184.648C545.708 184.516 545.472 184.373 545.197 184.219C544.922 184.054 544.592 183.911 544.207 183.79C543.833 183.658 543.365 183.592 542.804 183.592C542.089 183.592 541.462 183.724 540.923 183.988C540.384 184.241 539.933 184.609 539.57 185.093C539.218 185.577 538.954 186.166 538.778 186.859C538.602 187.541 538.514 188.316 538.514 189.185C538.514 190.087 538.608 190.89 538.795 191.594C538.993 192.298 539.273 192.892 539.636 193.376C539.999 193.849 540.439 194.212 540.956 194.465C541.473 194.707 542.056 194.828 542.705 194.828C543.354 194.828 543.877 194.751 544.273 194.597C544.68 194.432 545.021 194.256 545.296 194.069C545.571 193.871 545.807 193.695 546.005 193.541C546.214 193.376 546.445 193.294 546.698 193.294C547.028 193.294 547.276 193.42 547.441 193.673L548.612 195.158C548.161 195.686 547.672 196.132 547.144 196.495C546.616 196.847 546.066 197.133 545.494 197.353C544.933 197.562 544.35 197.71 543.745 197.798C543.151 197.886 542.557 197.93 541.963 197.93C540.918 197.93 539.933 197.738 539.009 197.353C538.085 196.957 537.277 196.385 536.584 195.637C535.891 194.889 535.341 193.976 534.934 192.898C534.538 191.809 534.34 190.571 534.34 189.185C534.34 187.942 534.516 186.793 534.868 185.737C535.231 184.67 535.759 183.751 536.452 182.981C537.145 182.2 538.003 181.59 539.026 181.15C540.049 180.71 541.226 180.49 542.557 180.49C543.822 180.49 544.927 180.693 545.873 181.1C546.83 181.507 547.688 182.09 548.447 182.849L547.375 184.334ZM559.06 186.017H567.607V189.416H559.06V186.017ZM587.925 185.819C588.739 185.819 589.449 185.72 590.054 185.522C590.659 185.313 591.159 185.022 591.555 184.648C591.962 184.263 592.265 183.801 592.463 183.262C592.661 182.712 592.76 182.101 592.76 181.43C592.76 180.792 592.661 180.215 592.463 179.698C592.265 179.181 591.968 178.741 591.572 178.378C591.176 178.015 590.675 177.74 590.07 177.553C589.465 177.355 588.75 177.256 587.925 177.256H584.609V185.819H587.925ZM587.925 173.824C589.52 173.824 590.901 174.011 592.067 174.385C593.233 174.759 594.195 175.281 594.954 175.952C595.713 176.623 596.274 177.426 596.637 178.361C597.011 179.296 597.198 180.319 597.198 181.43C597.198 182.585 597.006 183.647 596.621 184.615C596.236 185.572 595.658 186.397 594.888 187.09C594.118 187.783 593.15 188.322 591.984 188.707C590.829 189.092 589.476 189.284 587.925 189.284H584.609V197.683H580.17V173.824H587.925ZM608.386 190.456C607.209 190.511 606.219 190.615 605.416 190.769C604.613 190.912 603.969 191.099 603.485 191.33C603.001 191.561 602.655 191.831 602.446 192.139C602.237 192.447 602.132 192.782 602.132 193.145C602.132 193.86 602.341 194.372 602.759 194.68C603.188 194.988 603.744 195.142 604.426 195.142C605.262 195.142 605.982 194.993 606.587 194.696C607.203 194.388 607.803 193.926 608.386 193.31V190.456ZM599.047 183.113C600.994 181.331 603.337 180.44 606.076 180.44C607.066 180.44 607.951 180.605 608.732 180.935C609.513 181.254 610.173 181.705 610.712 182.288C611.251 182.86 611.658 183.548 611.933 184.351C612.219 185.154 612.362 186.034 612.362 186.991V197.683H610.514C610.129 197.683 609.832 197.628 609.623 197.518C609.414 197.397 609.249 197.16 609.128 196.808L608.765 195.587C608.336 195.972 607.918 196.313 607.511 196.61C607.104 196.896 606.681 197.138 606.241 197.336C605.801 197.534 605.328 197.683 604.822 197.782C604.327 197.892 603.777 197.947 603.172 197.947C602.457 197.947 601.797 197.853 601.192 197.666C600.587 197.468 600.064 197.177 599.624 196.792C599.184 196.407 598.843 195.928 598.601 195.356C598.359 194.784 598.238 194.119 598.238 193.36C598.238 192.931 598.31 192.507 598.453 192.089C598.596 191.66 598.827 191.253 599.146 190.868C599.476 190.483 599.899 190.12 600.416 189.779C600.933 189.438 601.566 189.141 602.314 188.888C603.073 188.635 603.953 188.432 604.954 188.278C605.955 188.113 607.099 188.014 608.386 187.981V186.991C608.386 185.858 608.144 185.022 607.66 184.483C607.176 183.933 606.477 183.658 605.564 183.658C604.904 183.658 604.354 183.735 603.914 183.889C603.485 184.043 603.106 184.219 602.776 184.417C602.446 184.604 602.143 184.774 601.868 184.928C601.604 185.082 601.307 185.159 600.977 185.159C600.691 185.159 600.449 185.088 600.251 184.945C600.053 184.791 599.894 184.615 599.773 184.417L599.047 183.113ZM620.326 173.164V197.683H616.25V173.164H620.326ZM635.293 187.271C635.293 186.743 635.216 186.248 635.062 185.786C634.919 185.313 634.699 184.901 634.402 184.549C634.105 184.197 633.725 183.922 633.263 183.724C632.812 183.515 632.284 183.41 631.679 183.41C630.502 183.41 629.573 183.746 628.891 184.417C628.22 185.088 627.791 186.039 627.604 187.271H635.293ZM627.521 189.73C627.587 190.599 627.741 191.352 627.983 191.99C628.225 192.617 628.544 193.14 628.94 193.558C629.336 193.965 629.804 194.273 630.343 194.482C630.893 194.68 631.498 194.779 632.158 194.779C632.818 194.779 633.384 194.702 633.857 194.548C634.341 194.394 634.759 194.223 635.111 194.036C635.474 193.849 635.788 193.679 636.052 193.525C636.327 193.371 636.591 193.294 636.844 193.294C637.185 193.294 637.438 193.42 637.603 193.673L638.774 195.158C638.323 195.686 637.817 196.132 637.256 196.495C636.695 196.847 636.107 197.133 635.491 197.353C634.886 197.562 634.264 197.71 633.626 197.798C632.999 197.886 632.389 197.93 631.795 197.93C630.618 197.93 629.523 197.738 628.511 197.353C627.499 196.957 626.619 196.379 625.871 195.62C625.123 194.85 624.535 193.904 624.106 192.782C623.677 191.649 623.462 190.34 623.462 188.855C623.462 187.7 623.649 186.617 624.023 185.605C624.397 184.582 624.931 183.696 625.624 182.948C626.328 182.189 627.18 181.59 628.181 181.15C629.193 180.71 630.332 180.49 631.597 180.49C632.664 180.49 633.648 180.66 634.55 181.001C635.452 181.342 636.228 181.843 636.877 182.503C637.526 183.152 638.032 183.955 638.395 184.912C638.769 185.858 638.956 186.941 638.956 188.162C638.956 188.778 638.89 189.196 638.758 189.416C638.626 189.625 638.373 189.73 637.999 189.73H627.521ZM652.343 184.054C652.233 184.23 652.117 184.356 651.996 184.433C651.875 184.499 651.721 184.532 651.534 184.532C651.336 184.532 651.122 184.477 650.891 184.367C650.671 184.257 650.412 184.136 650.115 184.004C649.818 183.861 649.477 183.735 649.092 183.625C648.718 183.515 648.273 183.46 647.756 183.46C646.953 183.46 646.32 183.63 645.858 183.971C645.407 184.312 645.182 184.758 645.182 185.308C645.182 185.671 645.297 185.979 645.528 186.232C645.77 186.474 646.084 186.688 646.469 186.875C646.865 187.062 647.31 187.233 647.805 187.387C648.3 187.53 648.801 187.689 649.307 187.865C649.824 188.041 650.33 188.245 650.825 188.476C651.32 188.696 651.76 188.982 652.145 189.334C652.541 189.675 652.854 190.087 653.085 190.571C653.327 191.055 653.448 191.638 653.448 192.32C653.448 193.134 653.3 193.888 653.003 194.581C652.717 195.263 652.288 195.857 651.716 196.363C651.144 196.858 650.434 197.248 649.587 197.534C648.751 197.809 647.783 197.947 646.683 197.947C646.1 197.947 645.528 197.892 644.967 197.782C644.417 197.683 643.884 197.54 643.367 197.353C642.861 197.166 642.388 196.946 641.948 196.693C641.519 196.44 641.139 196.165 640.809 195.868L641.75 194.317C641.871 194.13 642.014 193.987 642.179 193.888C642.344 193.789 642.553 193.739 642.806 193.739C643.059 193.739 643.295 193.811 643.515 193.954C643.746 194.097 644.01 194.251 644.307 194.416C644.604 194.581 644.951 194.735 645.347 194.878C645.754 195.021 646.265 195.092 646.881 195.092C647.365 195.092 647.778 195.037 648.119 194.927C648.471 194.806 648.757 194.652 648.977 194.465C649.208 194.278 649.373 194.064 649.472 193.822C649.582 193.569 649.637 193.31 649.637 193.046C649.637 192.65 649.516 192.326 649.274 192.073C649.043 191.82 648.729 191.6 648.333 191.413C647.948 191.226 647.503 191.061 646.997 190.918C646.502 190.764 645.99 190.599 645.462 190.423C644.945 190.247 644.434 190.043 643.928 189.812C643.433 189.57 642.987 189.268 642.591 188.905C642.206 188.542 641.893 188.096 641.651 187.568C641.42 187.04 641.304 186.402 641.304 185.654C641.304 184.961 641.442 184.301 641.717 183.674C641.992 183.047 642.393 182.503 642.921 182.041C643.46 181.568 644.126 181.194 644.918 180.919C645.721 180.633 646.645 180.49 647.69 180.49C648.856 180.49 649.917 180.682 650.874 181.067C651.831 181.452 652.629 181.958 653.267 182.585L652.343 184.054ZM662.159 197.947C660.685 197.947 659.552 197.534 658.76 196.709C657.979 195.873 657.588 194.724 657.588 193.261V183.806H655.856C655.636 183.806 655.449 183.735 655.295 183.592C655.141 183.449 655.064 183.234 655.064 182.948V181.331L657.786 180.886L658.644 176.266C658.699 176.046 658.804 175.875 658.958 175.754C659.112 175.633 659.31 175.573 659.552 175.573H661.664V180.902H666.185V183.806H661.664V192.98C661.664 193.508 661.79 193.921 662.043 194.218C662.307 194.515 662.665 194.663 663.116 194.663C663.369 194.663 663.578 194.636 663.743 194.581C663.919 194.515 664.067 194.449 664.188 194.383C664.32 194.317 664.436 194.256 664.535 194.201C664.634 194.135 664.733 194.102 664.832 194.102C664.953 194.102 665.052 194.135 665.129 194.201C665.206 194.256 665.288 194.344 665.376 194.465L666.597 196.445C666.003 196.94 665.321 197.314 664.551 197.567C663.781 197.82 662.984 197.947 662.159 197.947ZM672.639 183.691C673.167 182.679 673.794 181.887 674.52 181.315C675.246 180.732 676.104 180.44 677.094 180.44C677.875 180.44 678.502 180.611 678.975 180.952L678.711 184.004C678.656 184.202 678.573 184.345 678.463 184.433C678.364 184.51 678.227 184.549 678.051 184.549C677.886 184.549 677.638 184.521 677.308 184.466C676.989 184.411 676.676 184.384 676.368 184.384C675.917 184.384 675.515 184.45 675.163 184.582C674.811 184.714 674.492 184.906 674.206 185.159C673.931 185.401 673.684 185.698 673.464 186.05C673.255 186.402 673.057 186.804 672.87 187.255V197.683H668.794V180.754H671.187C671.605 180.754 671.896 180.831 672.061 180.985C672.226 181.128 672.336 181.392 672.391 181.777L672.639 183.691ZM689.822 190.456C688.645 190.511 687.655 190.615 686.852 190.769C686.049 190.912 685.406 191.099 684.922 191.33C684.438 191.561 684.091 191.831 683.882 192.139C683.673 192.447 683.569 192.782 683.569 193.145C683.569 193.86 683.778 194.372 684.196 194.68C684.625 194.988 685.18 195.142 685.862 195.142C686.698 195.142 687.419 194.993 688.024 194.696C688.64 194.388 689.239 193.926 689.822 193.31V190.456ZM680.483 183.113C682.43 181.331 684.773 180.44 687.512 180.44C688.502 180.44 689.388 180.605 690.169 180.935C690.95 181.254 691.61 181.705 692.149 182.288C692.688 182.86 693.095 183.548 693.37 184.351C693.656 185.154 693.799 186.034 693.799 186.991V197.683H691.951C691.566 197.683 691.269 197.628 691.06 197.518C690.851 197.397 690.686 197.16 690.565 196.808L690.202 195.587C689.773 195.972 689.355 196.313 688.948 196.61C688.541 196.896 688.117 197.138 687.677 197.336C687.237 197.534 686.764 197.683 686.258 197.782C685.763 197.892 685.213 197.947 684.608 197.947C683.893 197.947 683.233 197.853 682.628 197.666C682.023 197.468 681.501 197.177 681.061 196.792C680.621 196.407 680.28 195.928 680.038 195.356C679.796 194.784 679.675 194.119 679.675 193.36C679.675 192.931 679.746 192.507 679.889 192.089C680.032 191.66 680.263 191.253 680.582 190.868C680.912 190.483 681.336 190.12 681.853 189.779C682.37 189.438 683.002 189.141 683.75 188.888C684.509 188.635 685.389 188.432 686.39 188.278C687.391 188.113 688.535 188.014 689.822 187.981V186.991C689.822 185.858 689.58 185.022 689.096 184.483C688.612 183.933 687.914 183.658 687.001 183.658C686.341 183.658 685.791 183.735 685.351 183.889C684.922 184.043 684.542 184.219 684.212 184.417C683.882 184.604 683.58 184.774 683.305 184.928C683.041 185.082 682.744 185.159 682.414 185.159C682.128 185.159 681.886 185.088 681.688 184.945C681.49 184.791 681.33 184.615 681.209 184.417L680.483 183.113ZM716.287 185.077C715.825 184.516 715.319 184.12 714.769 183.889C714.23 183.658 713.647 183.542 713.02 183.542C712.404 183.542 711.849 183.658 711.354 183.889C710.859 184.12 710.435 184.472 710.083 184.945C709.731 185.407 709.462 186.001 709.275 186.727C709.088 187.442 708.994 188.289 708.994 189.268C708.994 190.258 709.071 191.099 709.225 191.792C709.39 192.474 709.621 193.035 709.918 193.475C710.215 193.904 710.578 194.218 711.007 194.416C711.436 194.603 711.915 194.696 712.443 194.696C713.29 194.696 714.01 194.52 714.604 194.168C715.198 193.816 715.759 193.316 716.287 192.667V185.077ZM720.363 173.164V197.683H717.871C717.332 197.683 716.991 197.435 716.848 196.94L716.502 195.307C715.82 196.088 715.033 196.72 714.142 197.204C713.262 197.688 712.234 197.93 711.057 197.93C710.133 197.93 709.286 197.738 708.516 197.353C707.746 196.968 707.08 196.412 706.519 195.686C705.969 194.949 705.54 194.042 705.232 192.964C704.935 191.886 704.787 190.654 704.787 189.268C704.787 188.014 704.957 186.848 705.298 185.77C705.639 184.692 706.129 183.757 706.767 182.965C707.405 182.173 708.169 181.557 709.06 181.117C709.951 180.666 710.952 180.44 712.063 180.44C713.009 180.44 713.818 180.589 714.489 180.886C715.16 181.183 715.759 181.584 716.287 182.09V173.164H720.363ZM735.292 187.271C735.292 186.743 735.215 186.248 735.061 185.786C734.918 185.313 734.698 184.901 734.401 184.549C734.104 184.197 733.724 183.922 733.262 183.724C732.811 183.515 732.283 183.41 731.678 183.41C730.501 183.41 729.572 183.746 728.89 184.417C728.219 185.088 727.79 186.039 727.603 187.271H735.292ZM727.52 189.73C727.586 190.599 727.74 191.352 727.982 191.99C728.224 192.617 728.543 193.14 728.939 193.558C729.335 193.965 729.803 194.273 730.342 194.482C730.892 194.68 731.497 194.779 732.157 194.779C732.817 194.779 733.383 194.702 733.856 194.548C734.34 194.394 734.758 194.223 735.11 194.036C735.473 193.849 735.787 193.679 736.051 193.525C736.326 193.371 736.59 193.294 736.843 193.294C737.184 193.294 737.437 193.42 737.602 193.673L738.773 195.158C738.322 195.686 737.816 196.132 737.255 196.495C736.694 196.847 736.106 197.133 735.49 197.353C734.885 197.562 734.263 197.71 733.625 197.798C732.998 197.886 732.388 197.93 731.794 197.93C730.617 197.93 729.522 197.738 728.51 197.353C727.498 196.957 726.618 196.379 725.87 195.62C725.122 194.85 724.534 193.904 724.105 192.782C723.676 191.649 723.461 190.34 723.461 188.855C723.461 187.7 723.648 186.617 724.022 185.605C724.396 184.582 724.93 183.696 725.623 182.948C726.327 182.189 727.179 181.59 728.18 181.15C729.192 180.71 730.331 180.49 731.596 180.49C732.663 180.49 733.647 180.66 734.549 181.001C735.451 181.342 736.227 181.843 736.876 182.503C737.525 183.152 738.031 183.955 738.394 184.912C738.768 185.858 738.955 186.941 738.955 188.162C738.955 188.778 738.889 189.196 738.757 189.416C738.625 189.625 738.372 189.73 737.998 189.73H727.52ZM554.761 230.456C553.584 230.511 552.594 230.615 551.791 230.769C550.988 230.912 550.344 231.099 549.86 231.33C549.376 231.561 549.03 231.831 548.821 232.139C548.612 232.447 548.507 232.782 548.507 233.145C548.507 233.86 548.716 234.372 549.134 234.68C549.563 234.988 550.119 235.142 550.801 235.142C551.637 235.142 552.357 234.993 552.962 234.696C553.578 234.388 554.178 233.926 554.761 233.31V230.456ZM545.422 223.113C547.369 221.331 549.712 220.44 552.451 220.44C553.441 220.44 554.326 220.605 555.107 220.935C555.888 221.254 556.548 221.705 557.087 222.288C557.626 222.86 558.033 223.548 558.308 224.351C558.594 225.154 558.737 226.034 558.737 226.991V237.683H556.889C556.504 237.683 556.207 237.628 555.998 237.518C555.789 237.397 555.624 237.16 555.503 236.808L555.14 235.587C554.711 235.972 554.293 236.313 553.886 236.61C553.479 236.896 553.056 237.138 552.616 237.336C552.176 237.534 551.703 237.683 551.197 237.782C550.702 237.892 550.152 237.947 549.547 237.947C548.832 237.947 548.172 237.853 547.567 237.666C546.962 237.468 546.439 237.177 545.999 236.792C545.559 236.407 545.218 235.928 544.976 235.356C544.734 234.784 544.613 234.119 544.613 233.36C544.613 232.931 544.685 232.507 544.828 232.089C544.971 231.66 545.202 231.253 545.521 230.868C545.851 230.483 546.274 230.12 546.791 229.779C547.308 229.438 547.941 229.141 548.689 228.888C549.448 228.635 550.328 228.432 551.329 228.278C552.33 228.113 553.474 228.014 554.761 227.981V226.991C554.761 225.858 554.519 225.022 554.035 224.483C553.551 223.933 552.852 223.658 551.939 223.658C551.279 223.658 550.729 223.735 550.289 223.889C549.86 224.043 549.481 224.219 549.151 224.417C548.821 224.604 548.518 224.774 548.243 224.928C547.979 225.082 547.682 225.159 547.352 225.159C547.066 225.159 546.824 225.088 546.626 224.945C546.428 224.791 546.269 224.615 546.148 224.417L545.422 223.113ZM566.651 233.294C567.113 233.855 567.614 234.251 568.153 234.482C568.703 234.713 569.297 234.828 569.935 234.828C570.551 234.828 571.106 234.713 571.601 234.482C572.096 234.251 572.514 233.899 572.855 233.426C573.207 232.953 573.477 232.359 573.664 231.644C573.851 230.918 573.944 230.065 573.944 229.086C573.944 228.096 573.862 227.26 573.697 226.578C573.543 225.885 573.317 225.324 573.02 224.895C572.723 224.466 572.36 224.153 571.931 223.955C571.513 223.757 571.035 223.658 570.496 223.658C569.649 223.658 568.928 223.839 568.334 224.202C567.74 224.554 567.179 225.055 566.651 225.704V233.294ZM566.437 223.064C567.13 222.283 567.916 221.65 568.796 221.166C569.676 220.682 570.71 220.44 571.898 220.44C572.822 220.44 573.664 220.633 574.423 221.018C575.193 221.403 575.853 221.964 576.403 222.701C576.964 223.427 577.393 224.329 577.69 225.407C577.998 226.474 578.152 227.7 578.152 229.086C578.152 230.351 577.981 231.523 577.64 232.601C577.299 233.679 576.81 234.614 576.172 235.406C575.545 236.198 574.78 236.819 573.878 237.27C572.987 237.71 571.986 237.93 570.875 237.93C569.929 237.93 569.121 237.787 568.45 237.501C567.779 237.204 567.179 236.797 566.651 236.28V243.21H562.576V220.754H565.067C565.595 220.754 565.942 221.001 566.107 221.496L566.437 223.064ZM585.176 223.691C585.704 222.679 586.331 221.887 587.057 221.315C587.783 220.732 588.641 220.44 589.631 220.44C590.412 220.44 591.039 220.611 591.512 220.952L591.248 224.004C591.193 224.202 591.11 224.345 591 224.433C590.901 224.51 590.764 224.549 590.588 224.549C590.423 224.549 590.175 224.521 589.845 224.466C589.526 224.411 589.213 224.384 588.905 224.384C588.454 224.384 588.052 224.45 587.7 224.582C587.348 224.714 587.029 224.906 586.743 225.159C586.468 225.401 586.221 225.698 586.001 226.05C585.792 226.402 585.594 226.804 585.407 227.255V237.683H581.331V220.754H583.724C584.142 220.754 584.433 220.831 584.598 220.985C584.763 221.128 584.873 221.392 584.928 221.777L585.176 223.691ZM604.065 227.271C604.065 226.743 603.988 226.248 603.834 225.786C603.691 225.313 603.471 224.901 603.174 224.549C602.877 224.197 602.498 223.922 602.036 223.724C601.585 223.515 601.057 223.41 600.452 223.41C599.275 223.41 598.345 223.746 597.663 224.417C596.992 225.088 596.563 226.039 596.376 227.271H604.065ZM596.294 229.73C596.36 230.599 596.514 231.352 596.756 231.99C596.998 232.617 597.317 233.14 597.713 233.558C598.109 233.965 598.576 234.273 599.115 234.482C599.665 234.68 600.27 234.779 600.93 234.779C601.59 234.779 602.157 234.702 602.63 234.548C603.114 234.394 603.532 234.223 603.884 234.036C604.247 233.849 604.56 233.679 604.824 233.525C605.099 233.371 605.363 233.294 605.616 233.294C605.957 233.294 606.21 233.42 606.375 233.673L607.547 235.158C607.096 235.686 606.59 236.132 606.029 236.495C605.468 236.847 604.879 237.133 604.263 237.353C603.658 237.562 603.037 237.71 602.399 237.798C601.772 237.886 601.161 237.93 600.567 237.93C599.39 237.93 598.296 237.738 597.284 237.353C596.272 236.957 595.392 236.379 594.644 235.62C593.896 234.85 593.307 233.904 592.878 232.782C592.449 231.649 592.235 230.34 592.235 228.855C592.235 227.7 592.422 226.617 592.796 225.605C593.17 224.582 593.703 223.696 594.396 222.948C595.1 222.189 595.953 221.59 596.954 221.15C597.966 220.71 599.104 220.49 600.369 220.49C601.436 220.49 602.421 220.66 603.323 221.001C604.225 221.342 605 221.843 605.649 222.503C606.298 223.152 606.804 223.955 607.167 224.912C607.541 225.858 607.728 226.941 607.728 228.162C607.728 228.778 607.662 229.196 607.53 229.416C607.398 229.625 607.145 229.73 606.771 229.73H596.294ZM621.115 224.054C621.005 224.23 620.89 224.356 620.769 224.433C620.648 224.499 620.494 224.532 620.307 224.532C620.109 224.532 619.894 224.477 619.663 224.367C619.443 224.257 619.185 224.136 618.888 224.004C618.591 223.861 618.25 223.735 617.865 223.625C617.491 223.515 617.045 223.46 616.528 223.46C615.725 223.46 615.093 223.63 614.631 223.971C614.18 224.312 613.954 224.758 613.954 225.308C613.954 225.671 614.07 225.979 614.301 226.232C614.543 226.474 614.856 226.688 615.241 226.875C615.637 227.062 616.083 227.233 616.578 227.387C617.073 227.53 617.573 227.689 618.079 227.865C618.596 228.041 619.102 228.245 619.597 228.476C620.092 228.696 620.532 228.982 620.917 229.334C621.313 229.675 621.627 230.087 621.858 230.571C622.1 231.055 622.221 231.638 622.221 232.32C622.221 233.134 622.072 233.888 621.775 234.581C621.489 235.263 621.06 235.857 620.488 236.363C619.916 236.858 619.207 237.248 618.36 237.534C617.524 237.809 616.556 237.947 615.456 237.947C614.873 237.947 614.301 237.892 613.74 237.782C613.19 237.683 612.656 237.54 612.139 237.353C611.633 237.166 611.16 236.946 610.72 236.693C610.291 236.44 609.912 236.165 609.582 235.868L610.522 234.317C610.643 234.13 610.786 233.987 610.951 233.888C611.116 233.789 611.325 233.739 611.578 233.739C611.831 233.739 612.068 233.811 612.288 233.954C612.519 234.097 612.783 234.251 613.08 234.416C613.377 234.581 613.723 234.735 614.119 234.878C614.526 235.021 615.038 235.092 615.654 235.092C616.138 235.092 616.55 235.037 616.891 234.927C617.243 234.806 617.529 234.652 617.749 234.465C617.98 234.278 618.145 234.064 618.244 233.822C618.354 233.569 618.409 233.31 618.409 233.046C618.409 232.65 618.288 232.326 618.046 232.073C617.815 231.82 617.502 231.6 617.106 231.413C616.721 231.226 616.275 231.061 615.769 230.918C615.274 230.764 614.763 230.599 614.235 230.423C613.718 230.247 613.206 230.043 612.7 229.812C612.205 229.57 611.76 229.268 611.364 228.905C610.979 228.542 610.665 228.096 610.423 227.568C610.192 227.04 610.077 226.402 610.077 225.654C610.077 224.961 610.214 224.301 610.489 223.674C610.764 223.047 611.166 222.503 611.694 222.041C612.233 221.568 612.898 221.194 613.69 220.919C614.493 220.633 615.417 220.49 616.462 220.49C617.628 220.49 618.69 220.682 619.647 221.067C620.604 221.452 621.401 221.958 622.039 222.585L621.115 224.054ZM636.195 227.271C636.195 226.743 636.118 226.248 635.964 225.786C635.821 225.313 635.601 224.901 635.304 224.549C635.007 224.197 634.627 223.922 634.165 223.724C633.714 223.515 633.186 223.41 632.581 223.41C631.404 223.41 630.475 223.746 629.793 224.417C629.122 225.088 628.693 226.039 628.506 227.271H636.195ZM628.423 229.73C628.489 230.599 628.643 231.352 628.885 231.99C629.127 232.617 629.446 233.14 629.842 233.558C630.238 233.965 630.706 234.273 631.245 234.482C631.795 234.68 632.4 234.779 633.06 234.779C633.72 234.779 634.286 234.702 634.759 234.548C635.243 234.394 635.661 234.223 636.013 234.036C636.376 233.849 636.69 233.679 636.954 233.525C637.229 233.371 637.493 233.294 637.746 233.294C638.087 233.294 638.34 233.42 638.505 233.673L639.676 235.158C639.225 235.686 638.719 236.132 638.158 236.495C637.597 236.847 637.009 237.133 636.393 237.353C635.788 237.562 635.166 237.71 634.528 237.798C633.901 237.886 633.291 237.93 632.697 237.93C631.52 237.93 630.425 237.738 629.413 237.353C628.401 236.957 627.521 236.379 626.773 235.62C626.025 234.85 625.437 233.904 625.008 232.782C624.579 231.649 624.364 230.34 624.364 228.855C624.364 227.7 624.551 226.617 624.925 225.605C625.299 224.582 625.833 223.696 626.526 222.948C627.23 222.189 628.082 221.59 629.083 221.15C630.095 220.71 631.234 220.49 632.499 220.49C633.566 220.49 634.55 220.66 635.452 221.001C636.354 221.342 637.13 221.843 637.779 222.503C638.428 223.152 638.934 223.955 639.297 224.912C639.671 225.858 639.858 226.941 639.858 228.162C639.858 228.778 639.792 229.196 639.66 229.416C639.528 229.625 639.275 229.73 638.901 229.73H628.423ZM646.728 222.833C647.069 222.492 647.426 222.178 647.8 221.892C648.185 221.595 648.587 221.348 649.005 221.15C649.434 220.941 649.89 220.781 650.374 220.671C650.858 220.55 651.386 220.49 651.958 220.49C652.882 220.49 653.702 220.649 654.417 220.968C655.132 221.276 655.726 221.716 656.199 222.288C656.683 222.849 657.046 223.526 657.288 224.318C657.541 225.099 657.667 225.962 657.667 226.908V237.683H653.592V226.908C653.592 225.874 653.355 225.077 652.882 224.516C652.409 223.944 651.689 223.658 650.721 223.658C650.017 223.658 649.357 223.817 648.741 224.136C648.125 224.455 647.542 224.89 646.992 225.44V237.683H642.916V220.754H645.408C645.936 220.754 646.282 221.001 646.447 221.496L646.728 222.833ZM666.961 237.947C665.487 237.947 664.354 237.534 663.562 236.709C662.781 235.873 662.39 234.724 662.39 233.261V223.806H660.658C660.438 223.806 660.251 223.735 660.097 223.592C659.943 223.449 659.866 223.234 659.866 222.948V221.331L662.588 220.886L663.446 216.266C663.501 216.046 663.606 215.875 663.76 215.754C663.914 215.633 664.112 215.573 664.354 215.573H666.466V220.902H670.987V223.806H666.466V232.98C666.466 233.508 666.592 233.921 666.845 234.218C667.109 234.515 667.467 234.663 667.918 234.663C668.171 234.663 668.38 234.636 668.545 234.581C668.721 234.515 668.869 234.449 668.99 234.383C669.122 234.317 669.238 234.256 669.337 234.201C669.436 234.135 669.535 234.102 669.634 234.102C669.755 234.102 669.854 234.135 669.931 234.201C670.008 234.256 670.09 234.344 670.178 234.465L671.399 236.445C670.805 236.94 670.123 237.314 669.353 237.567C668.583 237.82 667.786 237.947 666.961 237.947ZM682.539 230.456C681.362 230.511 680.372 230.615 679.569 230.769C678.766 230.912 678.123 231.099 677.639 231.33C677.155 231.561 676.808 231.831 676.599 232.139C676.39 232.447 676.286 232.782 676.286 233.145C676.286 233.86 676.495 234.372 676.913 234.68C677.342 234.988 677.897 235.142 678.579 235.142C679.415 235.142 680.136 234.993 680.741 234.696C681.357 234.388 681.956 233.926 682.539 233.31V230.456ZM673.2 223.113C675.147 221.331 677.49 220.44 680.229 220.44C681.219 220.44 682.105 220.605 682.886 220.935C683.667 221.254 684.327 221.705 684.866 222.288C685.405 222.86 685.812 223.548 686.087 224.351C686.373 225.154 686.516 226.034 686.516 226.991V237.683H684.668C684.283 237.683 683.986 237.628 683.777 237.518C683.568 237.397 683.403 237.16 683.282 236.808L682.919 235.587C682.49 235.972 682.072 236.313 681.665 236.61C681.258 236.896 680.834 237.138 680.394 237.336C679.954 237.534 679.481 237.683 678.975 237.782C678.48 237.892 677.93 237.947 677.325 237.947C676.61 237.947 675.95 237.853 675.345 237.666C674.74 237.468 674.218 237.177 673.778 236.792C673.338 236.407 672.997 235.928 672.755 235.356C672.513 234.784 672.392 234.119 672.392 233.36C672.392 232.931 672.463 232.507 672.606 232.089C672.749 231.66 672.98 231.253 673.299 230.868C673.629 230.483 674.053 230.12 674.57 229.779C675.087 229.438 675.719 229.141 676.467 228.888C677.226 228.635 678.106 228.432 679.107 228.278C680.108 228.113 681.252 228.014 682.539 227.981V226.991C682.539 225.858 682.297 225.022 681.813 224.483C681.329 223.933 680.631 223.658 679.718 223.658C679.058 223.658 678.508 223.735 678.068 223.889C677.639 224.043 677.259 224.219 676.929 224.417C676.599 224.604 676.297 224.774 676.022 224.928C675.758 225.082 675.461 225.159 675.131 225.159C674.845 225.159 674.603 225.088 674.405 224.945C674.207 224.791 674.047 224.615 673.926 224.417L673.2 223.113ZM703.719 235.158C702.971 236.038 702.124 236.687 701.178 237.105C700.243 237.512 699.275 237.765 698.274 237.864L698.059 238.689C699.093 238.931 699.814 239.256 700.221 239.663C700.639 240.081 700.848 240.576 700.848 241.148C700.848 241.522 700.749 241.857 700.551 242.154C700.364 242.451 700.089 242.704 699.726 242.913C699.374 243.122 698.95 243.282 698.455 243.392C697.971 243.502 697.432 243.557 696.838 243.557C696.387 243.557 695.964 243.524 695.568 243.458C695.172 243.403 694.787 243.315 694.413 243.194L694.776 241.923C694.842 241.67 695.001 241.544 695.254 241.544C695.408 241.544 695.579 241.582 695.766 241.659C695.953 241.747 696.222 241.791 696.574 241.791C696.937 241.791 697.207 241.72 697.383 241.577C697.57 241.445 697.663 241.28 697.663 241.082C697.663 240.763 697.465 240.532 697.069 240.389C696.673 240.257 696.063 240.13 695.238 240.009L695.964 237.848C695.04 237.716 694.182 237.43 693.39 236.99C692.598 236.539 691.91 235.95 691.327 235.224C690.744 234.487 690.282 233.613 689.941 232.601C689.611 231.589 689.446 230.45 689.446 229.185C689.446 227.942 689.622 226.793 689.974 225.737C690.337 224.67 690.865 223.751 691.558 222.981C692.251 222.2 693.109 221.59 694.132 221.15C695.155 220.71 696.332 220.49 697.663 220.49C698.928 220.49 700.034 220.693 700.98 221.1C701.937 221.507 702.795 222.09 703.554 222.849L702.481 224.334C702.36 224.488 702.239 224.609 702.118 224.697C702.008 224.785 701.843 224.829 701.623 224.829C701.414 224.829 701.211 224.769 701.013 224.648C700.815 224.516 700.578 224.373 700.303 224.219C700.028 224.054 699.698 223.911 699.313 223.79C698.939 223.658 698.472 223.592 697.911 223.592C697.196 223.592 696.569 223.724 696.03 223.988C695.491 224.241 695.04 224.609 694.677 225.093C694.325 225.577 694.061 226.166 693.885 226.859C693.709 227.541 693.621 228.316 693.621 229.185C693.621 230.087 693.714 230.89 693.901 231.594C694.099 232.298 694.38 232.892 694.743 233.376C695.106 233.849 695.546 234.212 696.063 234.465C696.58 234.707 697.163 234.828 697.812 234.828C698.461 234.828 698.983 234.751 699.379 234.597C699.786 234.432 700.127 234.256 700.402 234.069C700.677 233.871 700.914 233.695 701.112 233.541C701.321 233.376 701.552 233.294 701.805 233.294C702.135 233.294 702.382 233.42 702.547 233.673L703.719 235.158ZM715.249 230.456C714.072 230.511 713.082 230.615 712.279 230.769C711.476 230.912 710.832 231.099 710.348 231.33C709.864 231.561 709.518 231.831 709.309 232.139C709.1 232.447 708.995 232.782 708.995 233.145C708.995 233.86 709.204 234.372 709.622 234.68C710.051 234.988 710.607 235.142 711.289 235.142C712.125 235.142 712.845 234.993 713.45 234.696C714.066 234.388 714.666 233.926 715.249 233.31V230.456ZM705.91 223.113C707.857 221.331 710.2 220.44 712.939 220.44C713.929 220.44 714.814 220.605 715.595 220.935C716.376 221.254 717.036 221.705 717.575 222.288C718.114 222.86 718.521 223.548 718.796 224.351C719.082 225.154 719.225 226.034 719.225 226.991V237.683H717.377C716.992 237.683 716.695 237.628 716.486 237.518C716.277 237.397 716.112 237.16 715.991 236.808L715.628 235.587C715.199 235.972 714.781 236.313 714.374 236.61C713.967 236.896 713.544 237.138 713.104 237.336C712.664 237.534 712.191 237.683 711.685 237.782C711.19 237.892 710.64 237.947 710.035 237.947C709.32 237.947 708.66 237.853 708.055 237.666C707.45 237.468 706.927 237.177 706.487 236.792C706.047 236.407 705.706 235.928 705.464 235.356C705.222 234.784 705.101 234.119 705.101 233.36C705.101 232.931 705.173 232.507 705.316 232.089C705.459 231.66 705.69 231.253 706.009 230.868C706.339 230.483 706.762 230.12 707.279 229.779C707.796 229.438 708.429 229.141 709.177 228.888C709.936 228.635 710.816 228.432 711.817 228.278C712.818 228.113 713.962 228.014 715.249 227.981V226.991C715.249 225.858 715.007 225.022 714.523 224.483C714.039 223.933 713.34 223.658 712.427 223.658C711.767 223.658 711.217 223.735 710.777 223.889C710.348 224.043 709.969 224.219 709.639 224.417C709.309 224.604 709.006 224.774 708.731 224.928C708.467 225.082 708.17 225.159 707.84 225.159C707.554 225.159 707.312 225.088 707.114 224.945C706.916 224.791 706.757 224.615 706.636 224.417L705.91 223.113ZM714.325 215.259C714.655 215.259 714.913 215.171 715.1 214.995C715.287 214.808 715.381 214.478 715.381 214.005H717.856C717.856 214.621 717.768 215.182 717.592 215.688C717.427 216.183 717.196 216.612 716.899 216.975C716.602 217.327 716.244 217.602 715.826 217.8C715.419 217.987 714.968 218.081 714.473 218.081C714.077 218.081 713.709 218.009 713.368 217.866C713.027 217.723 712.708 217.569 712.411 217.404C712.114 217.239 711.833 217.085 711.569 216.942C711.316 216.799 711.08 216.728 710.86 216.728C710.541 216.728 710.288 216.827 710.101 217.025C709.925 217.212 709.837 217.536 709.837 217.998H707.312C707.312 217.382 707.395 216.827 707.56 216.332C707.736 215.826 707.978 215.397 708.286 215.045C708.594 214.682 708.951 214.401 709.358 214.203C709.776 214.005 710.227 213.906 710.711 213.906C711.107 213.906 711.476 213.978 711.817 214.121C712.169 214.264 712.493 214.418 712.79 214.583C713.087 214.748 713.362 214.902 713.615 215.045C713.868 215.188 714.105 215.259 714.325 215.259ZM730.555 220.49C731.809 220.49 732.947 220.693 733.97 221.1C735.004 221.507 735.884 222.085 736.61 222.833C737.347 223.581 737.914 224.494 738.31 225.572C738.706 226.65 738.904 227.854 738.904 229.185C738.904 230.527 738.706 231.737 738.31 232.815C737.914 233.893 737.347 234.812 736.61 235.571C735.884 236.33 735.004 236.913 733.97 237.32C732.947 237.727 731.809 237.93 730.555 237.93C729.29 237.93 728.14 237.727 727.106 237.32C726.072 236.913 725.187 236.33 724.45 235.571C723.724 234.812 723.157 233.893 722.75 232.815C722.354 231.737 722.156 230.527 722.156 229.185C722.156 227.854 722.354 226.65 722.75 225.572C723.157 224.494 723.724 223.581 724.45 222.833C725.187 222.085 726.072 221.507 727.106 221.1C728.14 220.693 729.29 220.49 730.555 220.49ZM730.555 234.795C731.963 234.795 733.002 234.322 733.673 233.376C734.355 232.43 734.696 231.044 734.696 229.218C734.696 227.392 734.355 226.001 733.673 225.044C733.002 224.087 731.963 223.608 730.555 223.608C729.125 223.608 728.063 224.092 727.37 225.06C726.688 226.017 726.347 227.403 726.347 229.218C726.347 231.033 726.688 232.419 727.37 233.376C728.063 234.322 729.125 234.795 730.555 234.795Z" fill="#394D60"/>
<rect y="355" width="1920" height="5" fill="#F93549"/>
<g clip-path="url(#clip1_25442_21001)">
<path d="M1580.5 -36H2537.5L2437 428H1480L1580.5 -36Z" fill="#F93549"/>
<path d="M1971.03 79.2788L1960.04 128.154L1772.23 128.154L1782.53 79.2788L1971.03 79.2788Z" fill="#D83041"/>
<path d="M1726.05 49.1246L1789.26 49.1246L1782.53 79.2788L1719.76 79.2788L1726.05 49.1246Z" fill="#D83041"/>
<path d="M1843.28 232.25L1832.29 281.125L1707 281.125L1717.37 232.25L1843.28 232.25Z" fill="#D83041"/>
<path d="M1802.23 -41.9999L1865.44 -42L1858.72 -11.8458L1795.95 -11.8458L1802.23 -41.9999Z" fill="#D83041"/>
<path d="M1832.29 281.125L1895.5 281.125L1888.78 311.279L1826.01 311.279L1832.29 281.125Z" fill="#D83041"/>
<path d="M1554.18 293.114L1550.63 309.28L1490.04 309.28L1493.37 293.114L1554.18 293.114Z" fill="#F93549"/>
<path d="M1475.14 283.14L1495.54 283.14L1493.37 293.114L1473.12 293.114L1475.14 283.14Z" fill="#F93549"/>
<path d="M1512.97 343.711L1509.42 359.877L1469 359.877L1472.34 343.711L1512.97 343.711Z" fill="#F93549"/>
<path d="M1499.72 253L1520.11 253L1517.94 262.974L1497.69 262.974L1499.72 253Z" fill="#F93549"/>
<path d="M1509.42 359.877L1529.81 359.877L1527.64 369.851L1507.39 369.851L1509.42 359.877Z" fill="#F93549"/>
<path d="M-3.5 -36H953.5L853 428H-104L-3.5 -36Z" fill="#F93549"/>
<path d="M3.5 -113H960.5L860 351H-97L3.5 -113Z" fill="#D83041"/>
<path d="M-123.012 302.498C-133.88 302.413 -144.788 299.567 -154.815 293.905L-154.815 293.905C-175.902 282.019 -188.5 260.445 -188.5 236.175V212.066C-188.5 203.918 -181.903 197.3 -173.788 197.3C-165.672 197.3 -159.075 203.918 -159.075 212.066V236.175C-159.075 249.619 -152.107 261.578 -140.408 268.141C-128.734 274.732 -114.929 274.437 -103.498 267.448L-103.497 267.447L149.579 112.267L149.579 112.267C160.534 105.543 167.049 93.8532 167.049 80.994C167.049 68.1349 160.507 56.4187 149.578 49.7211L-103.497 -105.459L-103.498 -105.46C-114.929 -112.449 -128.735 -112.744 -140.408 -106.153C-152.08 -99.5898 -159.075 -87.6318 -159.075 -74.1864V-48.6301C-159.075 -40.4823 -165.672 -33.8647 -173.788 -33.8647C-181.903 -33.8647 -188.5 -40.4823 -188.5 -48.6301V-74.1864C-188.5 -98.457 -175.903 -120.03 -154.816 -131.917C-133.702 -143.777 -108.796 -143.333 -88.1519 -130.663L-88.1517 -130.663L164.924 24.5173C184.683 36.6385 196.5 57.7433 196.5 80.994C196.5 104.245 184.709 125.35 164.924 137.471L165.185 137.897L164.924 137.471L-88.1517 292.625L-88.1521 292.625C-98.8278 299.184 -110.671 302.474 -122.512 302.474H-123.012V302.498Z" fill="#F93549" stroke="#D83041"/>
<path d="M-14.0116 455.498C-24.8804 455.413 -35.788 452.567 -45.8149 446.905L-45.8152 446.905C-66.9025 435.019 -79.5 413.445 -79.5 389.175V365.066C-79.5 356.918 -72.9028 350.3 -64.7876 350.3C-56.6724 350.3 -50.0753 356.918 -50.0753 365.066V389.175C-50.0753 402.619 -43.1068 414.578 -31.4077 421.141C-19.7344 427.732 -5.92874 427.437 5.5024 420.448L5.50294 420.447L258.579 265.267L258.579 265.267C269.534 258.543 276.049 246.853 276.049 233.994C276.049 221.135 269.507 209.419 258.578 202.721L5.50294 47.5407L5.5024 47.5404C-5.92889 40.551 -19.7348 40.2564 -31.4081 46.8469C-43.0801 53.4102 -50.0753 65.3682 -50.0753 78.8136V104.37C-50.0753 112.518 -56.6724 119.135 -64.7876 119.135C-72.9028 119.135 -79.5 112.518 -79.5 104.37V78.8136C-79.5 54.543 -66.9028 32.9698 -45.8158 21.0831C-24.7024 9.22256 0.204239 9.66686 20.8481 22.3367L20.8483 22.3368L273.924 177.517C293.683 189.638 305.5 210.743 305.5 233.994C305.5 257.245 293.709 278.35 273.924 290.471L274.185 290.897L273.924 290.471L20.8483 445.625L20.8479 445.625C10.1722 452.184 -1.67126 455.474 -13.5116 455.474H-14.0116V455.498Z" fill="#F93549" stroke="#D83041"/>
<rect x="1" y="351" width="1920" height="9" fill="#F93549"/>
</g>
</g>
<defs>
<clipPath id="clip0_25442_21001">
<rect width="1920" height="360" fill="white"/>
</clipPath>
<clipPath id="clip1_25442_21001">
<rect width="1918" height="360" fill="white" transform="translate(1)"/>
</clipPath>
</defs>
</svg>
