<svg width="161" height="65" viewBox="0 0 161 65" fill="none" xmlns="http://www.w3.org/2000/svg">
<path d="M113.428 65C111.794 65 110.153 64.58 108.646 63.7323C105.525 61.9792 103.66 58.7965 103.66 55.217V51.6875C103.66 50.4546 104.662 49.4528 105.895 49.4528C107.128 49.4528 108.13 50.4546 108.13 51.6875V55.217C108.13 57.159 109.139 58.8851 110.835 59.833C112.526 60.7847 114.526 60.7423 116.183 59.7328L153.361 37.015C154.949 36.044 155.893 34.3563 155.893 32.4991C155.893 30.6419 154.945 28.9504 153.361 27.9833L116.183 5.26544C114.526 4.25592 112.526 4.21354 110.835 5.16526C109.143 6.11312 108.13 7.83931 108.13 9.78127V13.5226C108.13 14.7556 107.128 15.7574 105.895 15.7574C104.662 15.7574 103.66 14.7556 103.66 13.5226V9.78127C103.66 6.20174 105.525 3.01908 108.646 1.26592C111.771 -0.483384 115.458 -0.41788 118.514 1.45087L155.692 24.1687C158.617 25.9566 160.366 29.0699 160.366 32.4991C160.366 35.9284 158.621 39.0417 155.692 40.8295L118.514 63.5435C116.934 64.5107 115.181 64.9961 113.428 64.9961V65Z" fill="white"/>
<path d="M13.7413 35.1231H17.9642C17.9642 38.0939 17.2206 40.3749 15.7372 41.9662C14.2499 43.5614 12.1538 44.359 9.4489 44.359C3.48816 44.359 0.505859 40.8527 0.505859 33.8439V31.8788C0.505859 26.3535 2.03554 22.8934 5.09105 21.4947C6.29321 20.9283 7.74198 20.6432 9.4489 20.6432C11.938 20.6432 13.9647 21.3252 15.5252 22.6892C17.0857 24.0532 17.8679 26.026 17.8679 28.6037H13.6102C13.3675 27.3168 12.9437 26.3419 12.331 25.6869C11.7184 25.0319 10.759 24.7043 9.4489 24.7043C7.91922 24.7043 6.78256 25.186 6.04276 26.1454C5.51874 26.8236 5.21435 27.9795 5.12572 29.617C5.08334 30.1411 5.06022 30.85 5.06022 31.744V33.7745C5.06022 36.2868 5.407 37.9975 6.10827 38.9146C6.82879 39.8316 7.94619 40.2901 9.46431 40.2901C10.9824 40.2901 12.0305 39.8701 12.6084 39.0302C13.1864 38.1902 13.5602 36.884 13.7374 35.1154L13.7413 35.1231Z" fill="white"/>
<path d="M38.9298 31.4203V33.1889C38.9298 37.0959 38.1938 39.9356 36.7181 41.7042C35.2424 43.4728 32.8804 44.359 29.6245 44.359C26.3687 44.359 24.0183 43.4728 22.5657 41.7042C21.1131 39.9356 20.3887 37.0651 20.3887 33.0925V31.3895C20.3887 27.7637 21.1246 25.0665 22.6003 23.298C24.0761 21.5294 26.4111 20.647 29.6091 20.647C32.8072 20.647 35.1614 21.5448 36.668 23.3326C38.1746 25.1243 38.9259 27.8176 38.9259 31.4203H38.9298ZM34.3754 33.0925V31.8788C34.3754 29.7827 34.1134 28.1105 33.5894 26.8698C32.9767 25.4287 31.6667 24.7082 29.6592 24.7082C27.6518 24.7082 26.307 25.4287 25.6982 26.8698C25.1935 28.0488 24.9469 29.7172 24.9469 31.8788V33.0925C24.9469 35.9092 25.3399 37.8087 26.1259 38.7913C26.4303 39.2074 26.885 39.5619 27.4861 39.8547C28.0872 40.1476 28.8077 40.2978 29.6477 40.2978C30.4876 40.2978 31.2043 40.1553 31.7938 39.8701C32.3834 39.5889 32.8419 39.2382 33.1694 38.8221C33.4969 38.4098 33.7474 37.8627 33.9207 37.1845C34.2251 36.1172 34.3793 34.7494 34.3793 33.0925H34.3754Z" fill="white"/>
<path d="M60.1504 30.2412L55.9582 39.0841C55.3455 40.2631 54.5865 40.8526 53.681 40.8526C52.7755 40.8526 52.0165 40.2284 51.4038 38.9839L47.1462 30.2374V44.1586H42.5918V20.8397H47.0807L53.6617 34.3024L60.212 20.8397H64.7009V44.1586H60.1465V30.2374L60.1504 30.2412Z" fill="white"/>
<path d="M84.8467 44.1625H76.5934C73.9733 44.1625 72.1315 43.7117 71.0758 42.8024C70.0162 41.8969 69.4883 40.2979 69.4883 38.0053V20.8436H84.8506V24.9047H74.0426V30.3761H81.6101L81.2826 34.4373H74.0426V37.6816C74.0426 38.5986 74.2507 39.2305 74.6668 39.5812C75.0791 39.9318 75.8343 40.1052 76.9248 40.1052H84.8506V44.1664L84.8467 44.1625Z" fill="white"/>
<path d="M101.091 35.1231H105.314C105.314 38.0939 104.57 40.3749 103.087 41.9662C101.599 43.5614 99.5034 44.359 96.7985 44.359C90.8378 44.359 87.8555 40.8527 87.8555 33.8439V31.8788C87.8555 26.3535 89.3851 22.8934 92.4407 21.4947C93.6428 20.9283 95.0916 20.6432 96.7985 20.6432C99.2876 20.6432 101.314 21.3252 102.875 22.6892C104.435 24.0532 105.218 26.026 105.218 28.6037H100.96C100.717 27.3168 100.293 26.3419 99.6806 25.6869C99.068 25.0319 98.1086 24.7043 96.7985 24.7043C95.2688 24.7043 94.1322 25.186 93.3924 26.1454C92.8683 26.8236 92.564 27.9795 92.4753 29.617C92.4329 30.1411 92.4098 30.85 92.4098 31.744V33.7745C92.4098 36.2868 92.7566 37.9975 93.4579 38.9146C94.1784 39.8316 95.2958 40.2901 96.8139 40.2901C98.332 40.2901 99.3801 39.8701 99.9581 39.0302C100.536 38.1902 100.91 36.884 101.087 35.1154L101.091 35.1231Z" fill="white"/>
<path d="M124.54 44.1625H116.287C113.667 44.1625 111.825 43.7117 110.765 42.8024C109.706 41.8969 109.178 40.2979 109.178 38.0053V20.8436H124.54V24.9047H113.732V30.3761H121.296L120.968 34.4373H113.728V37.6816C113.728 38.5986 113.932 39.2305 114.349 39.5812C114.761 39.9318 115.516 40.1052 116.607 40.1052H124.532V44.1664L124.54 44.1625Z" fill="white"/>
<path d="M4.5565 7.79309C4.5565 7.15348 5.23079 6.54854 6.47534 6.54854C7.36155 6.54854 7.93181 6.86835 7.93181 7.612C7.93181 7.78924 7.93181 7.82392 7.89714 8.03969H10.8448C10.9141 7.612 10.9873 7.29604 10.9873 6.97624C10.9873 5.41573 9.17636 4.59888 6.86836 4.59888C3.63946 4.59888 1.54338 6.23259 1.54338 8.39803C1.54338 11.9467 7.18816 10.8833 7.18816 12.6596C7.18816 13.3685 6.26342 13.9003 5.0574 13.9003C3.99394 13.9003 3.24644 13.4726 3.24644 12.6942C3.24644 12.5863 3.24644 12.4438 3.28112 12.1972H0.368181C0.333503 12.5863 0.298828 12.8715 0.298828 13.1566C0.298828 15.2527 2.49894 15.8538 4.70292 15.8538C8.11291 15.8538 10.3477 14.3626 10.3477 12.0893C10.3477 8.43271 4.56035 9.71193 4.56035 7.79309M25.9682 15.8538C29.093 15.8538 31.0812 14.2547 31.0812 12.3051C31.0812 11.2031 30.5842 10.3169 28.8464 9.99706C30.4801 9.78514 31.8634 8.64848 31.8634 7.08412C31.8634 5.51977 30.7614 4.59888 28.8117 4.59888H23.0244L20.647 15.8538H25.972H25.9682ZM41.446 12.8021C41.446 11.3803 41.1262 10.6367 39.3885 10.3169C41.446 10.1743 42.9372 8.93361 42.9372 7.22669C42.9372 5.77022 41.6926 4.59888 39.4925 4.59888H33.8477L31.3972 15.8538H34.6261L35.5855 11.4882H37.0766C37.5043 11.4882 38.3173 11.4882 38.3173 12.6596C38.3173 13.1913 38.1401 14.6824 38.1054 15.8538H41.4075C41.3728 14.6478 41.4422 13.6537 41.4422 12.8021M14.3164 13.6883L14.8481 11.2724H19.9265L20.3889 9.107H15.3105L15.8075 6.79899H21.2404L21.7028 4.63355H13.1104L10.6945 15.8538H19.3909L19.8533 13.6883H14.3164ZM64.8729 4.63355H56.2805L53.8646 15.8538H62.561L63.0234 13.6883H57.448L57.945 11.2724H63.1274L63.5898 9.107H58.4074L58.9044 6.79899H64.4067L64.869 4.63355H64.8729ZM41.4075 15.8538H44.5324L45.669 13.723H49.788L49.9653 15.8538H53.1941L51.6336 4.67208H47.7651L41.4114 15.8538H41.4075ZM27.3476 6.58708C28.1297 6.58708 28.6268 6.94156 28.6268 7.72374C28.6268 8.50592 28.0951 9.107 26.9931 9.107H25.1475L25.6792 6.58708H27.3476ZM36.044 9.46148L36.6104 6.69111H37.9937C38.4907 6.69111 39.6967 6.69111 39.6967 7.86245C39.6967 8.82187 38.9146 9.46148 37.6392 9.46148H36.0402H36.044ZM49.2524 6.94156H49.2871L49.6416 11.5922H46.8018L49.2524 6.94156ZM26.3535 11.1299C26.8505 11.1299 27.8446 11.2378 27.8446 12.3706C27.8446 13.2221 27.205 13.7924 25.9258 13.7924H24.1495L24.7159 11.1299H26.3496H26.3535Z" fill="white"/>
</svg>
