<svg width="18" height="14" viewBox="0 0 18 14" fill="none" xmlns="http://www.w3.org/2000/svg">
<path d="M17.3327 1.83363C16.7063 2.10538 16.0439 2.28502 15.366 2.36696C16.0812 1.93973 16.6171 1.26762 16.8743 0.475297C16.2023 0.875349 15.4667 1.15721 14.6993 1.30863C13.6445 0.164699 11.95 -0.121988 10.5775 0.611288C9.20507 1.34456 8.50145 2.91256 8.86602 4.4253C6.11798 4.2863 3.55828 2.98676 1.82435 0.850297C1.52363 1.37544 1.36562 1.97015 1.36602 2.5753C1.36385 3.71672 1.93319 4.78346 2.88268 5.41696C2.33933 5.40218 1.80759 5.25638 1.33268 4.99196V5.03363C1.34108 6.65695 2.49054 8.05024 4.08268 8.36696C3.7854 8.45743 3.47674 8.50514 3.16602 8.50863C2.95092 8.50612 2.73637 8.48661 2.52435 8.4503C2.97516 9.83875 4.25648 10.7889 5.71602 10.817C4.51368 11.763 3.02925 12.2793 1.49935 12.2836C1.2208 12.2845 0.942462 12.2678 0.666016 12.2336C2.22804 13.2422 4.04836 13.7776 5.90768 13.7753C8.49957 13.8022 10.9935 12.7862 12.8287 10.9557C14.6639 9.12522 15.6863 6.63391 15.666 4.04196C15.666 3.9003 15.666 3.7503 15.666 3.6003C16.3199 3.11264 16.8839 2.51482 17.3327 1.83363Z" fill="white"/>
</svg>