<svg width="18" height="18" viewBox="0 0 18 18" fill="none" xmlns="http://www.w3.org/2000/svg">
<path fill-rule="evenodd" clip-rule="evenodd" d="M14.916 3.08301C11.666 -0.166992 6.41602 -0.166992 3.16602 3.08301C0.499349 5.74967 -0.000651062 9.83301 1.83268 13.083L0.666016 17.333L5.08268 16.1663C6.33268 16.833 7.66602 17.1663 8.99935 17.1663C13.5827 17.1663 17.2493 13.4997 17.2493 8.91634C17.3327 6.74967 16.416 4.66634 14.916 3.08301ZM12.8327 10.6663C12.7494 10.6247 12.4369 10.4789 12.1244 10.333L12.1243 10.333C11.8118 10.1872 11.4993 10.0413 11.416 9.99967C11.2493 9.91634 11.0827 9.91634 10.916 10.083C10.8327 10.1663 10.7077 10.333 10.5827 10.4997L10.5827 10.4997C10.4577 10.6663 10.3327 10.833 10.2493 10.9163C10.166 11.083 9.99935 11.083 9.83268 10.9997C9.24935 10.7497 8.66602 10.4163 8.16602 9.99967C7.74935 9.58301 7.33268 9.08301 6.99935 8.58301C6.91602 8.41634 6.99935 8.24967 7.08268 8.16634C7.10791 8.14111 7.13315 8.10824 7.16069 8.07235C7.22412 7.98972 7.29981 7.89111 7.41602 7.83301C7.49935 7.74967 7.58268 7.58301 7.58268 7.49967C7.66602 7.41634 7.66602 7.24967 7.58268 7.16634C7.49935 7.08301 7.08268 6.08301 6.91602 5.66634C6.83268 5.08301 6.66602 5.08301 6.49935 5.08301H6.08268C5.91602 5.08301 5.66602 5.24967 5.58268 5.33301C5.08268 5.83301 4.83268 6.41634 4.83268 7.08301C4.91602 7.83301 5.16602 8.58301 5.66602 9.24967C6.58268 10.583 7.74935 11.6663 9.16602 12.333C9.26102 12.371 9.35169 12.409 9.44 12.446L9.44001 12.446C9.73902 12.5713 10.011 12.6853 10.3327 12.7497C10.7493 12.9163 11.166 12.9163 11.666 12.833C12.2493 12.7497 12.7493 12.333 13.0827 11.833C13.2493 11.4997 13.2493 11.1663 13.166 10.833L12.8327 10.6663ZM8.99935 15.833C10.3327 15.833 11.5827 15.4163 12.666 14.7497C15.916 12.7497 16.8327 8.49967 14.8327 5.24967C12.8327 2.08301 8.66602 0.999674 5.41602 3.08301C2.16602 5.16634 1.16602 9.33301 3.16602 12.6663L3.33268 12.9163L2.66602 15.4163L5.24935 14.7497L5.49935 14.9163C6.58268 15.4997 7.74935 15.833 8.99935 15.833Z" fill="white"/>
</svg>
