<svg width="48" height="48" viewBox="0 0 48 48" fill="none" xmlns="http://www.w3.org/2000/svg">
<circle cx="24" cy="24" r="24" fill="#005EB8"/>
<circle cx="25.875" cy="25.875" r="1.875" fill="white"/>
<path d="M32.75 22.75C32.3333 23.5833 30 25.875 26.5 25.875" stroke="white"/>
<path d="M32.1753 16.633C30.9057 12.8597 27.8187 10.363 24.4881 10.363C21.1574 10.363 18.0704 12.8597 16.8008 16.633H16.744V23.4064C16.5637 23.4339 16.379 23.4481 16.1909 23.4481C14.2052 23.4481 12.5954 21.8615 12.5954 19.9042C12.5954 18.2087 13.8034 16.7914 15.4174 16.4426C16.7906 12.0954 20.3337 9 24.4881 9C28.6424 9 32.1855 12.0954 33.5588 16.4426C35.1727 16.7914 36.3807 18.2087 36.3807 19.9042C36.3807 21.8615 34.7709 23.4481 32.7852 23.4481C32.5971 23.4481 32.4124 23.4339 32.2321 23.4064V16.633H32.1753Z" fill="white"/>
<path d="M29.8777 29.355C35.5479 30.4454 37.2374 35.625 37.2374 38.4873H24.4256V32.3536C25.516 32.3536 28.5147 32.3536 29.8777 29.355Z" fill="white"/>
<path d="M19.1098 29.355C13.4396 30.4454 11.7501 36.25 11.7501 38.4873H24.5619V32.3536C23.4715 32.3536 20.6091 32.2173 19.1098 29.355Z" fill="white"/>
</svg>
