<svg width="32" height="32" viewBox="0 0 32 32" fill="none" xmlns="http://www.w3.org/2000/svg">
<path d="M23.8567 21.8922L17.9642 15.9996L23.8567 10.1071C24.3991 9.56467 24.3991 8.68527 23.8567 8.14287C23.3143 7.60048 22.435 7.60048 21.8926 8.14287L16 14.0354L10.1074 8.14287C9.56505 7.60048 8.68565 7.60048 8.14326 8.14287C7.60086 8.68527 7.60086 9.56467 8.14326 10.1071L14.0358 15.9996L8.14326 21.8922C7.60086 22.4346 7.60086 23.314 8.14326 23.8564C8.68565 24.3988 9.56505 24.3988 10.1074 23.8564L16 17.9638L21.8926 23.8564C22.435 24.3988 23.3143 24.3988 23.8567 23.8564C24.3991 23.314 24.3991 22.4346 23.8567 21.8922Z" fill="#005EB8"/>
</svg>
